<ttFont>
          <CharString index="0">
            664 192 -107 callgsubr
            return
          </CharString>
          <CharString index="1">
            41 -5 -23 21 -41 hhcurveto
            -16 -15 -4 -8 -13 hvcurveto
            -15 -9 -10 -12 -4 -14 36 -23 rcurveline
            9 15 10 8 12 -1 13 -1 8 -16 -3 -13 -2 -7 -8 -13 -15 -18 rrcurveto
            -15 -17 -8 -15 -13 vvcurveto
            -19 7 -13 14 -8 vhcurveto
            18 15 9 7 1 vvcurveto
            1 -2 2 -3 4 vhcurveto
            -3 4 -1 4 1 3 12 12 12 12 11 12 22 21 10 21 -2 20 rrcurveto
            return
          </CharString>
          <CharString index="2">
            rmoveto
            -4 callgsubr
            63 -55 -76 32 -97 hhcurveto
            -94 -75 -33 -67 -57 hvcurveto
            -53 -62 -26 -77 -93 vvcurveto
            -87 28 -74 57 -61 vhcurveto
            -61 57 73 -30 90 hhcurveto
            86 72 31 63 59 hvcurveto
            57 61 29 73 1 87 rrcurveto
            -134 2 rmoveto
            -53 -15 -44 -31 -36 vhcurveto
            -39 -32 -41 -19 -51 hhcurveto
            -51 -41 19 39 -33 hvcurveto
            -30 37 -15 44 51 vvcurveto
            55 14 47 28 38 vhcurveto
            42 31 42 21 52 hhcurveto
            56 43 -19 -38 31 hvcurveto
            29 -36 14 -48 -61 vvcurveto
            endchar
          </CharString>
          <CharString index="3">
            -15 callsubr
            186 vlineto
            1 61 93 callsubr
            -147 hlineto
            9 -31 3 -85 -1 -139 rrcurveto
            -303 hlineto
            -2 129 4 85 10 41 rrcurveto
            -148 hlineto
            -44 callgsubr
            -31 rrcurveto
            1 -31 0 -138 60 callsubr
            28 -4 85 143 vvcurveto
            302 hlineto
            1 -138 -3 -85 -9 -33 rrcurveto
            return
          </CharString>
          <CharString index="4">
            -61 callsubr
            15 2 21 3 25 vhcurveto
            -64 hlineto
            -5 -101 4 -52 13 -1 13 -2 18 3 23 8 return
          </CharString>
          <CharString index="5">
            rmoveto
            -25 14 -24 14 -24 14 rrcurveto
            -29 -2 -10 -15 -18 hhcurveto
            -23 -31 8 16 -39 hvcurveto
            -38 16 -32 8 -25 -1 -19 -1 -17 -9 -17 -17 -21 -21 -13 -29 -3 -36 66 -23 rcurveline
            11 30 15 15 19 -1 17 -1 26 -8 35 -16 rrcurveto
            -16 35 35 -8 35 hhcurveto
            47 29 32 64 11 hvcurveto
            return
          </CharString>
          <CharString index="6">
            509 88 -104 callgsubr
            return
          </CharString>
          <CharString index="7">
            -11 -6 8 15 hvcurveto
            206 vlineto
            42 -17 30 -33 19 vhcurveto
            -28 16 -38 7 -47 -3 -61 -4 -47 -21 -33 -38 rrcurveto
            -93 vlineto
            43 33 68 29 57 hhcurveto
            37 18 -14 -27 hvcurveto
            -26 vlineto
            -81 -11 -54 -12 -28 -13 rrcurveto
            -46 -22 -23 -37 -53 vvcurveto
            -72 35 -36 70 47 44 16 31 39 vhcurveto
            return
          </CharString>
          <CharString index="8">
            -71 callsubr
            -19 -1 -21 -16 -22 -33 37 -61 rcurveline
            27 13 14 13 16 hhcurveto
            15 19 -5 -10 22 hvcurveto
            37 -16 29 -7 23 3 18 3 16 10 13 17 6 8 5 9 4 10 rrcurveto
            -96 -162 rmoveto
            -36 callsubr
            6 callgsubr
            return
          </CharString>
          <CharString index="9">
            14 2 42 3 71 vhcurveto
            3 63 1 43 -1 23 -2 15 -10 6 -17 -3 -50 -1 -42 -6 -33 -10 6 -87 rcurveline
            1 1 30 11 9 hhcurveto
            5 5 5 -39 hvcurveto
            -1 -31 -2 -31 -1 -31 -1 -17 -1 -16 -1 -17 rrcurveto
            -1 -29 -1 -23 -18 vvcurveto
            -41 4 -22 8 -1 vhcurveto
            16 -1 26 4 36 9 rrcurveto
            return
          </CharString>
          <CharString index="10">
            rmoveto
            -44 callgsubr
            -30 rrcurveto
            -75 callgsubr
            -6 25 -3 43 -1 62 rrcurveto
            182 vlineto
            184 vlineto
            1 60 18 callsubr
            return
          </CharString>
          <CharString index="11">
            rmoveto
            3 -11 2 -14 1 -18 5 -51 1 -93 -1 -135 -1 -59 -6 -43 -13 -28 rrcurveto
            -41 -19 -37 -21 -53 hhcurveto
            -89 -45 58 89 74 1 99 1 123 hvcurveto
            1 25 3 24 5 22 rrcurveto
            -150 hlineto
            5 -16 3 -23 2 -31 1 -26 1 -57 -1 -87 -1 -139 12 -95 24 -50 rrcurveto
            -74 36 75 -37 115 hhcurveto
            117 75 44 87 35 hvcurveto
            21 51 9 91 -2 133 -1 26 1 49 3 71 1 39 3 27 5 17 rrcurveto
            endchar
          </CharString>
          <CharString index="12">
            -1 67 0 50 32 vvcurveto
            9 11 8 12 9 11 21 21 28 11 33 -1 rrcurveto
            33 20 -20 -41 7 hvcurveto
            1 -9 1 -36 1 -64 1 -57 -2 -108 -6 -158 rrcurveto
            104 hlineto
            return
          </CharString>
          <CharString index="13">
            127 vstem
            699 726 rmoveto
            86 callsubr
            -14 -64 rcurveline
            27 20 -4 -7 13 hvcurveto
            10 -6 5 -8 -11 vvcurveto
            -14 -7 -10 -14 -6 vhcurveto
            -7 -16 -18 -4 -21 hhcurveto
            -148 hlineto
            6 -51 3 -40 1 -29 3 -85 1 -68 -1 -50 rrcurveto
            -17 0 -16 -1 -15 vhcurveto
            -1 -43 -11 -35 -21 -27 rrcurveto
            -29 -23 -33 -15 -41 hhcurveto
            -44 -34 15 29 -24 hvcurveto
            -22 27 -11 36 45 vvcurveto
            95 1 72 1 49 vhcurveto
            1 81 4 50 5 21 rrcurveto
            -150 hlineto
            5 -16 3 -24 2 -31 rrcurveto
            1 -67 0 -57 -46 vvcurveto
            2 -126 1 -75 21 -63 39 -49 rlinecurve
            -58 47 66 -29 85 hhcurveto
            85 66 30 60 47 hvcurveto
            41 52 19 62 -1 71 34 callsubr
            15 2 7 1 1 41 -3 37 12 31 26 rrcurveto
            27 22 13 26 29 vvcurveto
            17 -5 16 -10 17 vhcurveto
            return
          </CharString>
          <CharString index="14">
            rmoveto
            -49 -177 73 -20 63 167 rlineto
            return
          </CharString>
          <CharString index="15">
            -1 -58 18 -48 37 -38 rrcurveto
            -40 39 50 -20 61 hhcurveto
            57 47 19 37 39 hvcurveto
            39 37 19 49 60 vvcurveto
            return
          </CharString>
          <CharString index="16">
            3 -3 1 -23 1 -44 1 -51 5 -38 7 -26 8 -29 17 -25 25 -22 rrcurveto
            -29 33 43 -14 52 hhcurveto
            52 43 15 29 35 hvcurveto
            25 21 17 25 9 29 11 75 6 62 1 48 return
          </CharString>
          <CharString index="17">
            hstem
            31 87 175 94 70 69 vstem
            511 489 13 callgsubr
            -58 -5 -13 -64 rcurveline
            27 20 -4 -7 12 hvcurveto
            10 -6 5 -8 -11 vvcurveto
            -28 -31 -10 -35 -3 vhcurveto
            -97 hlineto
            -73 callgsubr
            -43 callgsubr
            -51 callsubr
            -1 -1 1 1 -1 hvcurveto
            84 1 78 2 71 vhcurveto
            32 -1 30 10 28 21 rrcurveto
            31 23 15 27 31 vvcurveto
            17 -5 18 -10 17 vhcurveto
            return
          </CharString>
          <CharString index="18">
            10 -6 5 -9 -13 vvcurveto
            -10 -3 -7 -7 -5 vhcurveto
            -14 -11 -17 -3 -21 3 rrcurveto
            return
          </CharString>
          <CharString index="19">
            4 3 17 2 30 hhcurveto
            -32 vlineto
            -54 -22 -28 -43 -3 vhcurveto
            -45 -3 -40 16 -35 35 rrcurveto
            -37 37 -19 48 59 vvcurveto
            65 17 51 35 38 vhcurveto
            31 28 33 21 58 hhcurveto
            39 28 -7 -20 19 hvcurveto
            11 -12 2 -11 -13 vvcurveto
            -64 callgsubr
            14 hhcurveto
            35 33 4 8 30 hvcurveto
            31 9 32 3 35 -1 rrcurveto
            103 0 52 1 26 vhcurveto
            3 53 3 64 1 17 rrcurveto
            endchar
          </CharString>
          <CharString index="20">
            -35 4 -18 14 23 vvcurveto
            6 2 6 3 7 vhcurveto
            13 6 12 7 18 hhcurveto
            25 22 -12 -23 17 hvcurveto
            47 88 rlineto
            23 -30 -37 12 -45 hhcurveto
            -38 -32 -11 -22 -27 hvcurveto
            -26 -21 -13 -26 -29 vvcurveto
            -45 24 -31 48 -17 vhcurveto
            -59 -14 -26 -35 5 -55 3 -34 17 -26 31 -19 27 -16 29 -7 32 1 50 3 39 12 28 21 rrcurveto
            return
          </CharString>
          <CharString index="21">
            -7 -9 -4 -11 -12 vvcurveto
            -15 4 -12 7 -8 vhcurveto
            16 -18 28 -8 39 3 rrcurveto
            28 vlineto
            -30 -15 7 14 7 4 4 9 3 hvcurveto
            11 4 14 1 16 -2 rrcurveto
            return
          </CharString>
          <CharString index="22">
            -21 31 -37 13 -53 -4 rrcurveto
            -65 vlineto
            19 1 17 -3 13 -8 rrcurveto
            return
          </CharString>
          <CharString index="23">
            rmoveto
            -107 hlineto
            -20 -56 -36 -96 -54 -152 -63 148 -43 101 -24 55 rrcurveto
            -116 hlineto
            63 -142 64 -142 63 -143 -6 -20 -9 -19 -12 -17 -15 -21 -15 -11 -13 1 -31 2 -32 13 -31 25 -50 -99 rcurveline
            31 -17 17 -9 4 -1 24 -9 28 -3 32 2 55 4 51 41 47 79 17 29 28 63 40 97 rrcurveto
            endchar
          </CharString>
          <CharString index="24">
            -9 -9 -11 -5 -14 hhcurveto
            -11 -19 6 12 -27 hvcurveto
            -29 13 -25 6 -21 -1 return
          </CharString>
          <CharString index="25">
            vvcurveto
            -193 -12 callgsubr
            4 113 87 2 61 hhcurveto
            53 1 75 -2 98 -4 rrcurveto
            return
          </CharString>
          <CharString index="26">
            -81 callgsubr
            126 vlineto
            -9 -21 -83 -5 -146 hhcurveto
            -1 73 0 50 1 25 rrcurveto
            175 hlineto
            39 22 -2 -5 3 hvcurveto
            4 -4 2 -3 -2 vvcurveto
            return
          </CharString>
          <CharString index="27">
            rmoveto
            -4 -17 -6 -12 -7 -7 -15 -15 -27 -8 -40 -3 -45 -3 -40 16 -35 35 rrcurveto
            -37 37 -19 48 59 vvcurveto
            65 17 51 35 38 vhcurveto
            31 34 36 17 43 1 44 1 32 -9 19 -19 7 -15 5 -12 1 -9 rrcurveto
            -64 callgsubr
            15 hhcurveto
            35 32 14 callgsubr
            endchar
          </CharString>
          <CharString index="28">
            -1 -56 0 -111 vhcurveto
            10 -19 6 -42 3 -63 rrcurveto
            1 -25 0 -63 -102 vvcurveto
            -182 vlineto
            -1 -59 8 callsubr
            42 -1 61 rrcurveto
            179 vlineto
            139 vlineto
            21 -33 69 -84 117 -135 48 -57 56 -64 64 -72 rrcurveto
            125 306 hlineto
            161 0 62 -1 -37 vhcurveto
            1 62 93 callsubr
            endchar
          </CharString>
          <CharString index="29">
            -45 57 -22 53 1 47 rrcurveto
            91 3 58 55 95 hhcurveto
            95 58 -55 -91 3 hvcurveto
            1 -50 -22 -52 -46 -55 return
          </CharString>
          <CharString index="30">
            -1 23 1 17 3 12 rrcurveto
            74 hlineto
            17 9 0 1 -1 hvcurveto
            8 -1 5 -5 2 -9 rrcurveto
            45 hlineto
            -2 27 0 23 3 19 -48 -3 -39 -1 -30 1 -53 1 -38 1 -22 1 rrcurveto
            2 -11 1 -59 -107 vvcurveto
            41 hlineto
            1 2 2 5 4 3 5 1 rlinecurve
            4 14 14 2 14 hhcurveto
            return
          </CharString>
          <CharString index="31">
            hstemhm
            36 58 callgsubr
            -23 65 hintmask 11011010
            397 329 rmoveto
            24 -2 21 10 17 22 rrcurveto
            16 20 8 23 25 vvcurveto
            18 -4 16 -8 13 vhcurveto
            86 callsubr
            rrcurveto
            hintmask 11011100
            -14 -64 27 3 20 -2 13 -7 rlinecurve
            hintmask 11011010
            10 -6 5 -9 -12 vvcurveto
            hintmask 11011100
            -32 -34 -12 -41 vhcurveto
            hintmask 10111100
            15 -30 -34 8 -39 hhcurveto
            -29 callgsubr
            -30 callsubr
            -92 callsubr
            53 -15 44 -29 36 vhcurveto
            -54 -128 -49 callgsubr
            return
          </CharString>
          <CharString index="32">
            -31 84 -37 98 -41 113 rrcurveto
            -113 hlineto
            return
          </CharString>
          <CharString index="33">
            hmoveto
            -64 callsubr
            -75 callsubr
            return
          </CharString>
          <CharString index="34">
            rmoveto
            28 -24 26 -28 -28 -23 -26 -28 -28 23 -25 28 29 23 26 27 35 callsubr
            return
          </CharString>
          <CharString index="35">
            78 hlineto
            -10 89 -5 53 17 vvcurveto
            -15 -3 -27 4 -40 9 rrcurveto
            11 -44 -30 5 -15 hhcurveto
            -92 -74 -32 -64 -55 hvcurveto
            -53 -60 -26 -76 -92 vvcurveto
            return
          </CharString>
          <CharString index="36">
            -50 callsubr
            -83 callsubr
            return
          </CharString>
          <CharString index="37">
            42 callgsubr
            2 15 2 16 1 17 rrcurveto
            -104 hlineto
            1 -18 2 -16 1 -14 rrcurveto
            -40 callsubr
            1 -172 rcurveline
            return
          </CharString>
          <CharString index="38">
            23 8 16 9 9 9 rrcurveto
            return
          </CharString>
          <CharString index="39">
            rmoveto
            -83 -29 62 -167 65 22 rlineto
            return
          </CharString>
          <CharString index="40">
            rmoveto
            -120 -439 -70 209 -48 147 -26 83 rlinecurve
            -67 hlineto
            -130 -439 -83 269 -45 146 -5 24 rlinecurve
            -145 hlineto
            19 -44 42 -117 64 -191 27 -79 30 -91 34 -102 rrcurveto
            113 hlineto
            41 123 39 112 36 102 56 -168 37 -112 19 -57 rrcurveto
            113 hlineto
            131 381 74 208 19 35 rrcurveto
            endchar
          </CharString>
          <CharString index="41">
            102 vstem
            -107 callsubr
            return
          </CharString>
          <CharString index="42">
            rmoveto
            -72 -22 62 -167 54 15 rlineto
            return
          </CharString>
          <CharString index="43">
            -13 24 -44 113 -75 201 return
          </CharString>
          <CharString index="44">
            rmoveto
            47 21 23 34 47 vvcurveto
            58 -41 45 -81 32 vhcurveto
            -19 7 -18 6 -19 7 -15 7 -8 10 -1 11 rrcurveto
            18 17 8 33 -1 vhcurveto
            21 23 -4 -9 26 hvcurveto
            13 -4 13 -4 13 -5 rrcurveto
            90 vlineto
            -1 -13 3 6 -27 hvcurveto
            5 -24 -16 2 -9 hhcurveto
            -36 -23 -1 -1 -9 hvcurveto
            -24 -3 -23 -8 -21 -14 rrcurveto
            -25 -17 -13 -27 -37 vvcurveto
            -33 13 -25 27 -19 vhcurveto
            45 -21 34 -15 24 -9 43 -19 20 -23 -3 -25 rrcurveto
            return
          </CharString>
          <CharString index="45">
            -61 callgsubr
            endchar
          </CharString>
          <CharString index="46">
            -3 1 -1 7 13 vvcurveto
            return
          </CharString>
          <CharString index="47">
            98 -98 122 hintmask 11010010
            474 388 -96 callgsubr
            hintmask 11001010
            -91 callsubr
            rrcurveto
            hintmask 10110001
            -4 callsubr
            return
          </CharString>
          <CharString index="48">
            18 15 9 20 24 vvcurveto
            15 -5 15 -9 15 vhcurveto
            return
          </CharString>
          <CharString index="49">
            -57 callgsubr
            endchar
          </CharString>
          <CharString index="50">
            1 44 1 32 -9 19 -19 7 -15 5 59 callsubr
            -72 callsubr
            return
          </CharString>
          <CharString index="51">
            -98 callgsubr
            140 return
          </CharString>
          <CharString index="52">
            rmoveto
            140 8 -71 89 -127 hhcurveto
            -54 -1 -46 -19 -39 -39 rrcurveto
            return
          </CharString>
          <CharString index="53">
            rmoveto
            -9 -1 -6 -1 -4 vhcurveto
            -3 -11 -10 -8 -16 -3 rrcurveto
            -1 -7 -13 -1 -20 hhcurveto
            hintmask 10010100
            -161 -1 307 522 -113 -2 -88 -1 -62 1 rlinecurve
            -53 -1 -69 2 -85 4 3 -26 0 -45 -5 -63 rrcurveto
            81 hlineto
            1 12 2 8 4 5 rrcurveto
            hintmask 01001100
            5 4 21 2 39 hhcurveto
            119 hlineto
            -289 -489 rlineto
            -37 vlineto
            112 3 86 0 60 -1 rrcurveto
            hintmask 00110100
            53 1 79 -1 103 -4 rrcurveto
            hintmask 01010100
            -3 27 1 49 5 73 rrcurveto
            endchar
          </CharString>
          <CharString index="54">
            rmoveto
            -33 -18 -20 -8 -6 3 rrcurveto
            -2 1 -1 10 17 vvcurveto
            return
          </CharString>
          <CharString index="55">
            1 1 19 -54 38 -109 rrcurveto
            -214 282 rmoveto
            1 -3 21 57 41 115 20 -56 20 -56 20 -57 rrcurveto
            return
          </CharString>
          <CharString index="56">
            -9 49 -5 26 -3 4 rrcurveto
            -1 -4 -23 -16 -7 hhcurveto
            return
          </CharString>
          <CharString index="57">
            rmoveto
            -3 -10 -4 -8 -7 -7 rrcurveto
            return
          </CharString>
          <CharString index="58">
            21 -42 callgsubr
            return
          </CharString>
          <CharString index="59">
            428 rmoveto
            80 -28 56 -56 31 vhcurveto
            19 -33 -40 9 -47 hhcurveto
            -279 hlineto
            7 -25 3 -43 1 -62 rrcurveto
            -184 vlineto
            -184 129 callsubr
            -41 -7 -25 -10 callgsubr
            -7 25 -6 71 1 29 rrcurveto
            118 0 -38 -1 17 vhcurveto
            39 80 1 1 23 hvcurveto
            53 3 42 11 29 17 rrcurveto
            55 32 27 58 83 vvcurveto
            -131 -2 rmoveto
            1 -48 -17 -31 -33 -14 rrcurveto
            -5 -13 -22 -3 -31 hhcurveto
            -98 return
          </CharString>
          <CharString index="60">
            rmoveto
            51 -41 41 -51 -51 -41 -41 -51 -51 41 -41 51 51 41 41 51 vhcurveto
            -49 hmoveto
            -24 -19 -19 -24 -24 -20 19 24 24 20 20 24 24 19 -20 -24 vhcurveto
            return
          </CharString>
          <CharString index="61">
            -62 callgsubr
            -7 return
          </CharString>
          <CharString index="62">
            8 7 20 4 35 hhcurveto
            83 -225 hlineto
            -179 vlineto
            -1 -57 -4 -40 1 callsubr
            41 -1 57 rrcurveto
            1 -34 0 60 153 vvcurveto
            224 91 vlineto
            33 20 -3 -7 8 hvcurveto
            4 -3 3 -6 1 -9 1 -3 0 -7 1 -11 rrcurveto
            return
          </CharString>
          <CharString index="63">
            436 194 rmoveto
            59 -18 47 -36 36 vhcurveto
            37 -36 -48 18 -60 hhcurveto
            -116 -69 -77 -121 -176 -1 -125 -2 -75 hvcurveto
            94 74 hlineto
            -1 52 0 45 38 vvcurveto
            14 -23 32 -13 49 -1 58 -1 47 19 37 38 rrcurveto
            37 38 19 50 61 vvcurveto
            -96 -2 rmoveto
            -68 -41 -41 -60 -40 -26 8 15 -12 vhcurveto
            -11 16 -6 29 41 vvcurveto
            71 31 35 63 61 41 -45 -61 vhcurveto
            return
          </CharString>
          <CharString index="64">
            -4 -3 -25 -2 -47 hhcurveto
            15 12 24 22 32 32 rrcurveto
            43 44 21 42 40 vvcurveto
            73 -36 36 -73 1 vhcurveto
            -49 -35 -13 -26 -23 hvcurveto
            -20 -22 -9 -24 3 -26 rrcurveto
            19 hlineto
            35 hlineto
            18 hlineto
            return
          </CharString>
          <CharString index="65">
            70 callsubr
            -66 vlineto
            1 2 18 0 35 hhcurveto
            35 29 2 3 22 hvcurveto
            59 9 36 28 12 46 rrcurveto
            return
          </CharString>
          <CharString index="66">
            rmoveto
            -46 -18 -35 -23 -52 hhcurveto
            -47 -39 26 43 -16 hvcurveto
            -39 -25 6 -27 17 -24 27 -20 rlinecurve
            -19 27 32 -10 35 hhcurveto
            34 32 11 22 30 hvcurveto
            30 23 16 27 2 32 rrcurveto
            endchar
          </CharString>
          <CharString index="67">
            -157 -1 -114 -3 -69 vhcurveto
            101 hlineto
            91 0 76 1 60 vhcurveto
            51 13 30 26 48 hhcurveto
            33 22 -14 -28 10 hvcurveto
            6 -16 3 -30 1 -44 return
          </CharString>
          <CharString index="68">
            58 -16 63 167 rlineto
            return
          </CharString>
          <CharString index="69">
            hstem
            38 99 155 120 151 -66 callsubr
            return
          </CharString>
          <CharString index="70">
            -1 rmoveto
            -5 128 0 130 5 132 rrcurveto
            -96 hlineto
            6 -119 0 -130 -6 -141 rrcurveto
            return
          </CharString>
          <CharString index="71">
            7 8 3 12 15 vvcurveto
            12 -3 11 -7 9 vhcurveto
            return
          </CharString>
          <CharString index="72">
            19 -19 33 -8 46 3 return
          </CharString>
          <CharString index="73">
            1 rrcurveto
            -8 vlineto
            -167 -2 -100 -4 -35 vhcurveto
            25 callgsubr
            return
          </CharString>
          <CharString index="74">
            -32 callgsubr
            135 hlineto
            return
          </CharString>
          <CharString index="75">
            -20 hstem
            25 137 347 137 vstem
            646 312 rmoveto
            3 143 -61 114 -112 51 47 144 rcurveline
            -92 hlineto
            -39 -120 rlineto
            3 -19 -19 1 -18 hhcurveto
            -92 -75 -32 -63 -58 hvcurveto
            -57 -63 -29 -81 -99 vvcurveto
            -124 62 -109 103 -55 vhcurveto
            -40 -121 rlineto
            92 hlineto
            30 93 rlineto
            -4 21 21 -2 21 hhcurveto
            86 73 31 62 60 hvcurveto
            60 63 31 77 1 91 rrcurveto
            -137 2 46 callgsubr
            -41 -19 -51 hhcurveto
            -8 -8 0 1 -8 hvcurveto
            121 373 rlineto
            50 -35 25 -59 -83 vvcurveto
            -277 -161 rmoveto
            -47 39 -23 53 68 vvcurveto
            60 16 50 32 39 vhcurveto
            35 43 47 19 59 -5 rrcurveto
            return
          </CharString>
          <CharString index="76">
            rmoveto
            -2 -63 -49 -1 -33 hhcurveto
            -30 -1 -39 1 -47 2 1 -9 -1 -28 -2 -46 rrcurveto
            45 hlineto
            1 13 3 8 6 3 rrcurveto
            2 3 10 1 17 hhcurveto
            83 hlineto
            -48 -68 -37 -93 -27 -135 rrcurveto
            87 hlineto
            -1 4 0 5 6 vvcurveto
            51 14 58 28 66 vhcurveto
            11 27 14 25 15 22 1 1 13 17 25 32 rrcurveto
            return
          </CharString>
          <CharString index="77">
            -37 -37 -19 -47 -1 -57 return
          </CharString>
          <CharString index="78">
            -13 callsubr
            hintmask 10111110
            -92 callgsubr
            return
          </CharString>
          <CharString index="79">
            146 rmoveto
            -1 -14 -2 -10 -5 -6 rrcurveto
            hintmask 10001000
            -8 -6 -18 -4 -30 hhcurveto
            -187 hlineto
            183 210 -179 212 rlineto
            158 hlineto
            39 21 -2 -5 4 hvcurveto
            4 -5 2 -3 -2 vvcurveto
            hintmask 10010000
            1 -1 0 -6 1 -9 rrcurveto
            80 hlineto
            hintmask 10000100
            -3 70 -1 45 3 20 rrcurveto
            hintmask 01010000
            -67 -5 -165 -2 -264 2 rrcurveto
            -61 vlineto
            -167 148 73 -83 -1 hhcurveto
            -1 -37 -42 -84 -73 hvcurveto
            -108 -126 1 1 0 -21 -1 -41 rlinecurve
            100 72 0 1 44 hvcurveto
            hintmask 00110000
            53 1 96 -1 140 -3 -2 9 0 25 3 43 rrcurveto
            hintmask 01010000
            2 37 2 24 1 11 rrcurveto
            endchar
          </CharString>
          <CharString index="80">
            23 callsubr
            3 -20 hstemhm
            hintmask 01010000
            443 147 rmoveto
            -9 -1 -6 -1 -4 vhcurveto
            -3 -11 -10 -8 -16 -3 rrcurveto
            -1 -7 -13 -1 -20 hhcurveto
            hintmask 10010000
            -161 -1 307 522 -113 -2 -88 -1 -62 1 rlinecurve
            hintmask 10000100
            -53 -1 -69 2 -85 4 rrcurveto
            hintmask 10010000
            3 -26 0 -45 -5 -63 rrcurveto
            81 hlineto
            1 12 2 8 4 5 rrcurveto
            hintmask 01001000
            5 4 21 2 39 hhcurveto
            119 hlineto
            -289 -489 rlineto
            -37 vlineto
            112 3 86 0 60 -1 rrcurveto
            hintmask 00110000
            53 1 79 -1 103 -4 rrcurveto
            hintmask 01010000
            -3 27 1 49 5 73 rrcurveto
            endchar
          </CharString>
          <CharString index="81">
            494 rmoveto
            12 -3 32 13 vvcurveto
            39 1 26 1 11 vhcurveto
            -3 -50 -76 -2 -101 hhcurveto
            -27 -39 1 2 -53 hvcurveto
            hintmask 11001100
            2 -52 -39 1 -27 hhcurveto
            4 -15 3 -13 1 -12 rrcurveto
            3 -33 1 -88 -143 vvcurveto
            -133 -1 -89 -2 -44 vhcurveto
            -1 -26 -3 -19 -3 -13 -10 callgsubr
            -9 33 -4 46 -1 59 rrcurveto
            -1 59 0 43 25 vvcurveto
            1 41 29 0 18 hhcurveto
            86 55 -3 -7 24 hvcurveto
            126 vlineto
            -13 -6 -19 -4 -26 -2 rrcurveto
            -1 -17 -36 -1 -55 hhcurveto
            -84 hlineto
            hintmask 11010100
            158 201 vlineto
            17 12 -1 -3 5 hvcurveto
            hintmask 11100100
            8 -4 4 -9 -15 vvcurveto
            80 hlineto
            endchar
          </CharString>
          <CharString index="82">
            -95 -62 rmoveto
            -43 1 -31 -11 -17 -23 rrcurveto
            return
          </CharString>
          <CharString index="83">
            -29 -3 -17 -14 -31 hhcurveto
            -39 -20 23 47 10 1 10 2 11 hvcurveto
            7 35 24 38 41 39 37 29 27 19 16 7 -40 44 rcurveline
            -49 -17 -44 -32 -37 -45 -40 -49 -19 -52 2 -53 4 -77 46 -52 87 4 37 1 29 12 20 21 18 18 10 23 1 29 rrcurveto
            endchar
          </CharString>
          <CharString index="84">
            vhcurveto
            -28 vlineto
            39 -3 28 8 17 18 rrcurveto
            return
          </CharString>
          <CharString index="85">
            -177 -39 callsubr
            return
          </CharString>
          <CharString index="86">
            625 rmoveto
            1 -17 1 -15 1 -15 rrcurveto
            1 -85 1 -63 -42 vvcurveto
            1 -23 rlineto
            19 -23 -30 9 -36 hhcurveto
            -121 -76 -81 -120 -62 19 -49 37 -37 hvcurveto
            38 -36 49 -17 61 2 43 1 33 12 21 23 rrcurveto
            hintmask 01111100
            12 -29 rlineto
            67 hlineto
            -3 71 -1 116 161 vvcurveto
            39 vlineto
            123 2 80 4 35 vhcurveto
            -97 -506 rmoveto
            hintmask 10111100
            -25 -22 -27 -12 -33 hhcurveto
            -31 -26 9 18 -20 hvcurveto
            -22 20 -11 28 1 36 rrcurveto
            65 1 44 46 63 hhcurveto
            34 27 -12 -24 21 hvcurveto
            1 -62 0 -50 -37 vvcurveto
            return
          </CharString>
          <CharString index="87">
            -148 163 -105 callgsubr
            return
          </CharString>
          <CharString index="88">
            -86 callsubr
            endchar
          </CharString>
          <CharString index="89">
            rmoveto
            -48 -1 -85 1 -123 1 3 -21 1 -17 -1 -28 rrcurveto
            -21 -1 -12 -2 -28 vhcurveto
            81 hlineto
            1 14 2 9 3 3 rrcurveto
            return
          </CharString>
          <CharString index="90">
            3 -14 -15 1 -15 hhcurveto
            -95 callgsubr
            endchar
          </CharString>
          <CharString index="91">
            rmoveto
            94 -24 75 -49 56 vhcurveto
            60 -52 -96 36 -100 hhcurveto
            -251 hlineto
            3 -11 2 -15 1 -21 rrcurveto
            3 -47 1 -88 -129 vvcurveto
            -126 -1 -79 -2 -32 vhcurveto
            -1 -32 -3 -25 -5 -18 rrcurveto
            244 hlineto
            106 81 28 57 57 hvcurveto
            57 57 29 73 87 vvcurveto
            -138 1 rmoveto
            -59 -18 -48 -35 -37 vhcurveto
            -37 -35 -46 -18 -59 hhcurveto
            -103 hlineto
            -1 78 -1 69 61 vvcurveto
            25 0 34 1 42 vhcurveto
            1 53 0 34 15 vvcurveto
            107 hlineto
            57 43 -16 -32 31 hvcurveto
            39 -41 19 -55 -68 vvcurveto
            endchar
          </CharString>
          <CharString index="92">
            hmoveto
            -20 callgsubr
            return
          </CharString>
          <CharString index="93">
            rmoveto
            -13 -11 -9 -7 -8 hhcurveto
            return
          </CharString>
          <CharString index="94">
            87 -48 48 hintmask 10111101
            -101 callsubr
            hintmask 01111110
            -74 callgsubr
            return
          </CharString>
          <CharString index="95">
            rmoveto
            27 -25 26 -28 -27 -24 -26 -27 -28 24 -25 27 29 24 25 28 vhcurveto
            -9 callgsubr
            return
          </CharString>
          <CharString index="96">
            rmoveto
            24 -19 21 -27 -28 -20 -21 -27 1 vhcurveto
            -31 1 16 -15 30 hhcurveto
            31 15 16 33 hvcurveto
            return
          </CharString>
          <CharString index="97">
            85 callgsubr
            3 -162 0 -113 -3 -65 97 1 rcurveline
            -3 168 -1 29 7 27 13 25 rlinecurve
            35 18 28 18 39 hhcurveto
            return
          </CharString>
          <CharString index="98">
            rmoveto
            2 27 -6 23 -15 18 -15 21 -24 13 -32 4 -18 2 -17 -2 -16 -5 -19 -57 rcurveline
            9 7 13 2 18 -1 37 -3 16 -18 -3 -31 rrcurveto
            return
          </CharString>
          <CharString index="99">
            132 -10 126 393 126 return
          </CharString>
          <CharString index="100">
            rmoveto
            7 -25 4 -42 1 -61 rrcurveto
            -1 24 0 -61 -147 vvcurveto
            -117 vlineto
            return
          </CharString>
          <CharString index="101">
            -3 rmoveto
            -76 callgsubr
            return
          </CharString>
          <CharString index="102">
            -9 0 33 -1 75 vhcurveto
            return
          </CharString>
          <CharString index="103">
            1 6 8 2 15 -2 rrcurveto
            return
          </CharString>
          <CharString index="104">
            -59 -59 -70 -28 -81 hhcurveto
            -80 -71 28 59 -58 hvcurveto
            -59 59 -28 70 80 vvcurveto
            80 28 71 59 59 vhcurveto
            58 58 70 30 80 hhcurveto
            81 70 -29 -58 59 hvcurveto
            60 -59 29 -70 -81 vvcurveto
            58 hmoveto
            100 -35 83 -70 69 vhcurveto
            68 -68 -84 35 -100 hhcurveto
            -98 -83 -35 -69 -68 hvcurveto
            -69 -70 -35 -84 -98 vvcurveto
            -97 35 -84 69 -68 vhcurveto
            -68 68 84 -36 98 hhcurveto
            99 84 35 68 68 hvcurveto
            70 68 35 85 98 vvcurveto
            endchar
          </CharString>
          <CharString index="105">
            21 -21 256 114 return
          </CharString>
          <CharString index="106">
            39 callsubr
            39 vlineto
            119 2 82 3 45 vhcurveto
            -106 hlineto
            5 -37 2 -80 -1 -121 rrcurveto
            -47 vlineto
            -157 -1 -114 -3 -69 vhcurveto
            101 hlineto
            91 0 76 1 60 vhcurveto
            4 16 9 15 13 15 19 21 21 11 25 -1 33 -1 22 -14 10 -27 128 callgsubr
            return
          </CharString>
          <CharString index="107">
            -41 -178 rmoveto
            28 -24 26 -28 -28 -24 -26 -28 -28 24 -25 28 28 24 25 28 vhcurveto
            -192 2 rmoveto
            27 -25 26 -27 -29 -25 -25 -28 -28 25 -24 29 28 24 25 27 vhcurveto
            endchar
          </CharString>
          <CharString index="108">
            -7 -25 rrcurveto
            147 hlineto
            -7 24 -3 return
          </CharString>
          <CharString index="109">
            rmoveto
            31 -24 24 -31 -31 -24 -24 -31 -31 24 -24 31 31 24 24 31 vhcurveto
            return
          </CharString>
          <CharString index="110">
            69 -91 callgsubr
            return
          </CharString>
          <CharString index="111">
            rmoveto
            -49 -22 callsubr
            -147 -22 rmoveto
            hintmask 11101110
            -85 callsubr
            2 callgsubr
          </CharString>
          <CharString index="112">
            38 -41 50 -20 62 3 24 1 21 4 18 5 10 3 13 5 17 7 rrcurveto
            endchar
          </CharString>
          <CharString index="113">
            37 9 23 8 11 9 rrcurveto
            return
          </CharString>
          <CharString index="114">
            104 -51 callgsubr
            return
          </CharString>
          <CharString index="115">
            -3 -42 1 callsubr
            return
          </CharString>
          <CharString index="116">
            rmoveto
            125 4 -44 62 -92 hhcurveto
            -45 -34 -19 -39 -23 hvcurveto
            -20 -34 -9 -43 1 -53 rrcurveto
            -121 2 44 -61 85 hhcurveto
            83 44 61 122 4 hvcurveto
            -68 hmoveto
            -77 -2 -21 -39 -40 hhcurveto
            -43 -21 39 77 82 21 41 43 29 19 -15 -29 9 hvcurveto
            5 -16 2 -26 -1 -37 rrcurveto
            endchar
          </CharString>
          <CharString index="117">
            32 callgsubr
            194 98 -98 122 return
          </CharString>
          <CharString index="118">
            -30 callsubr
            -92 callsubr
            -98 5 -49 callgsubr
            endchar
          </CharString>
          <CharString index="119">
            37 9 28 4 19 -3 rrcurveto
            17 5 56 9 93 vhcurveto
            return
          </CharString>
          <CharString index="120">
            rmoveto
            7 -16 4 -65 -115 vvcurveto
            -145 -1 -83 -3 -21 vhcurveto
            112 hlineto
            -1 17 -1 83 149 vvcurveto
            106 3 65 7 25 vhcurveto
            return
          </CharString>
          <CharString index="121">
            -86 -10 88 87 74 64 91 return
          </CharString>
          <CharString index="122">
            59 callgsubr
            rlineto
            hintmask 10111000
            57 -18 59 170 rlineto
            -150 -94 78 callsubr
          </CharString>
          <CharString index="123">
            94 -75 -21 96 216 0 95 return
          </CharString>
          <CharString index="124">
            62 callgsubr
            312 95 return
          </CharString>
          <CharString index="125">
            3 42 7 25 rrcurveto
            return
          </CharString>
          <CharString index="126">
            -317 -91 callgsubr
            return
          </CharString>
          <CharString index="127">
            -137 rmoveto
            -44 callgsubr
            -30 rrcurveto
            hintmask 11001000
            -75 callgsubr
            -6 25 -3 43 -1 62 rrcurveto
            182 vlineto
            184 vlineto
            1 60 18 callsubr
            endchar
          </CharString>
          <CharString index="128">
            -71 callgsubr
            endchar
          </CharString>
          <CharString index="129">
            -55 -1 -15 -28 -29 hhcurveto
            -30 -15 28 55 58 15 29 30 21 13 -10 -21 6 hvcurveto
            4 -11 2 -19 -1 -26 rrcurveto
            return
          </CharString>
          <CharString index="130">
            10 0 103 -103 147 -128 -21 496 131 -99 99 return
          </CharString>
          <CharString index="131">
            hstem
            71 128 263 125 vstem
            return
          </CharString>
          <CharString index="132">
            -25 callsubr
            -19 callsubr
          </CharString>
          <CharString index="133">
            151 102 hintmask 11100110
            34 callgsubr
            return
          </CharString>
          <CharString index="134">
            rmoveto
            -17 -80 -29 -98 -41 -117 -15 39 -14 49 -15 59 -36 150 rcurveline
            return
          </CharString>
          <CharString index="135">
            hstemhm
            40 91 141 91 return
          </CharString>
          <CharString index="136">
            -59 66 -37 -31 -98 rcurveline
            5 15 2 10 1 4 -2 -6 -3 -10 -5 -13 rrcurveto
            2 hlineto
            90 hlineto
            3 10 2 6 1 1 18 56 rcurveline
            -1 7 8 0 7 hhcurveto
            58 48 19 37 38 hvcurveto
            39 38 return
          </CharString>
          <CharString index="137">
            758 -73 callsubr
            return
          </CharString>
          <CharString index="138">
            -69 231 50 callsubr
            return
          </CharString>
          <CharString index="139">
            125 302 125 return
          </CharString>
          <CharString index="140">
            -31 1 rrcurveto
            55 1 34 2 13 vhcurveto
            5 27 15 15 27 3 31 3 42 -16 16 -24 rrcurveto
            endchar
          </CharString>
          <CharString index="141">
            -2 136 rcurveline
            -1 26 1 49 3 71 1 return
          </CharString>
          <CharString index="142">
            vhcurveto
            -191 2 rmoveto
            return
          </CharString>
          <CharString index="143">
            -1 30 -1 101 172 vvcurveto
            6 161 vlineto
            -135 -1 -103 -3 -71 vhcurveto
            103 hlineto
            -4 -1 47 -1 98 vhcurveto
            -1 99 0 69 40 vvcurveto
            39 vlineto
            113 2 79 3 45 vhcurveto
            -101 return
          </CharString>
          <CharString index="144">
            -35 callgsubr
            endchar
          </CharString>
          <CharString index="145">
            -28 callgsubr
            endchar
          </CharString>
          <CharString index="146">
            hmoveto
            42 callgsubr
            return
          </CharString>
          <CharString index="147">
            -1 -88 -3 -55 -7 -23 rrcurveto
            4 113 87 2 61 hhcurveto
            53 1 75 -2 98 -4 rrcurveto
            -599 285 rmoveto
            41 55 41 57 41 57 rrcurveto
            -169 vlineto
            return
          </CharString>
          <CharString index="148">
            5 rmoveto
            -1 -63 -38 -43 -55 -4 62 192 rcurveline
            21 -21 11 -28 -33 vvcurveto
            -177 -83 rmoveto
            -25 23 -12 27 1 33 rrcurveto
            59 40 46 59 5 vhcurveto
            return
          </CharString>
          <CharString index="149">
            hstem
            55 98 165 94 vstem
            return
          </CharString>
          <CharString index="150">
            64 callgsubr
            -130 -357 -80 -32 callgsubr
            return
          </CharString>
          <CharString index="151">
            -65 callsubr
            -148 163 -89 callgsubr
            return
          </CharString>
          <CharString index="152">
            rrcurveto
            -157 -1 -114 -3 -69 vhcurveto
            return
          </CharString>
          <CharString index="153">
            hstemhm
            38 98 201 87 -48 48 return
          </CharString>
          <CharString index="154">
            -185 vlineto
            -1 return
          </CharString>
          <CharString index="155">
            163 rmoveto
            -53 3 -37 -13 -21 -30 rrcurveto
            -9 -13 -5 -16 -17 vvcurveto
            -27 8 -20 117 callsubr
            return
          </CharString>
          <CharString index="156">
            -101 -222 89 129 89 222 89 return
          </CharString>
          <CharString index="157">
            -141 -21 162 120 return
          </CharString>
          <CharString index="158">
            38 28 -6 -13 17 hvcurveto
            21 -15 11 -26 -37 vvcurveto
            return
          </CharString>
          <CharString index="159">
            97 220 85 return
          </CharString>
          <CharString index="160">
            605 rmoveto
            -23 7 -15 6 -9 5 rrcurveto
            8 -18 -22 4 -27 hhcurveto
            return
          </CharString>
          <CharString index="161">
            rmoveto
            -294 -59 294 hlineto
            endchar
          </CharString>
          <CharString index="162">
            rmoveto
            1 45 -29 44 -41 8 rrcurveto
            return
          </CharString>
          <CharString index="163">
            124 -12 129 403 128 return
          </CharString>
          <CharString index="164">
            172 11 -20 hstemhm
            return
          </CharString>
          <CharString index="165">
            rmoveto
            36 -32 31 -36 vhcurveto
            hintmask 11100000
            67 callsubr
            hvcurveto
            hintmask 11001000
            36 32 31 37 hvcurveto
            endchar
          </CharString>
          <CharString index="166">
            -12 1 -9 rrcurveto
            return
          </CharString>
          <CharString index="167">
            -245 vvcurveto
            -1 -61 -46 callsubr
            return
          </CharString>
          <CharString index="168">
            -21 197 -20 hstem
            return
          </CharString>
          <CharString index="169">
            -31 -33 -15 -46 -59 -28 callgsubr
            return
          </CharString>
          <CharString index="170">
            423 -4 108 -108 151 -126 -21 162 120 -4 100 116 137 -105 105 return
          </CharString>
          <CharString index="171">
            138 346 137 return
          </CharString>
          <CharString index="172">
            98 callgsubr
            8 -20 hstemhm
            0 return
          </CharString>
          <CharString index="173">
            hstem
            106 callsubr
            vstem
            return
          </CharString>
          <CharString index="174">
            -36 -31 -31 -36 -37 31 -31 36 return
          </CharString>
          <CharString index="175">
            117 -11 121 return
          </CharString>
          <CharString index="176">
            172 8 -20 hstemhm
            return
          </CharString>
          <CharString index="177">
            22 callgsubr
            -40 -6 -35 -20 -65 hhcurveto
            -28 -25 2 4 -22 hvcurveto
            return
          </CharString>
          <CharString index="178">
            -34 callsubr
            6 vlineto
            return
          </CharString>
          <CharString index="179">
            -369 rmoveto
            37 -31 31 -36 -37 -31 -31 -37 -37 31 -31 37 36 31 31 37 vhcurveto
            endchar
          </CharString>
          <CharString index="180">
            -1 rmoveto
            -5 129 0 130 5 131 rrcurveto
            -247 hlineto
            33 1 27 1 21 vhcurveto
            return
          </CharString>
          <CharString index="181">
            -57 -41 hlineto
            -27 0 -14 -1 -1 vhcurveto
            return
          </CharString>
          <CharString index="182">
            -33 -1 -22 2 -10 5 rrcurveto
            -88 vlineto
            return
          </CharString>
          <CharString index="183">
            37 callgsubr
            -29 return
          </CharString>
          <CharString index="184">
            111 4 -39 55 -82 hhcurveto
            -40 -30 -17 -34 -20 hvcurveto
            -18 -30 -9 -39 1 -47 rrcurveto
            return
          </CharString>
          <CharString index="185">
            rmoveto
            76 callsubr
            -24 -26 -27 -28 24 -24 29 28 25 25 27 vhcurveto
            endchar
          </CharString>
          <CharString index="186">
            -1 105 -105 147 -128 -21 496 130 -97 97 5 -20 hstemhm
            hintmask 01010000
            return
          </CharString>
          <CharString index="187">
            -20 32 callgsubr
            return
          </CharString>
          <CharString index="188">
            -6 97 220 62 -62 85 return
          </CharString>
          <CharString index="189">
            -9 89 230 88 return
          </CharString>
          <CharString index="190">
            38 99 155 return
          </CharString>
          <CharString index="191">
            35 -110 24 -77 12 -43 rrcurveto
            return
          </CharString>
          <CharString index="192">
            -8 -6 -21 -4 -36 hhcurveto
            return
          </CharString>
          <CharString index="193">
            -19 32 -38 13 -57 -5 return
          </CharString>
          <CharString index="194">
            -76 57 -61 vhcurveto
            -63 59 return
          </CharString>
          <CharString index="195">
            rmoveto
            74 -24 60 -49 58 vhcurveto
            -23 27 -28 27 -29 18 rrcurveto
            -11 hlineto
            -22 return
          </CharString>
          <CharString index="196">
            36 -31 31 -36 -36 -32 -31 -36 -37 32 -31 36 36 31 31 37 vhcurveto
            return
          </CharString>
          <CharString index="197">
            -28 hlineto
            46 14 26 27 6 vhcurveto
            -3 43 rlineto
            -77 -9 -39 -43 -75 vvcurveto
            return
          </CharString>
          <CharString index="198">
            -68 -162 -21 172 94 215 93 return
          </CharString>
          <CharString index="199">
            107 -49 callsubr
            return
          </CharString>
          <CharString index="200">
            3 43 7 25 rrcurveto
            return
          </CharString>
          <CharString index="201">
            191 -124 124 309 124 -124 191 hintmask 11010100
            return
          </CharString>
          <CharString index="202">
            -2 callgsubr
            -47 callgsubr
            return
          </CharString>
          <CharString index="203">
            -21 21 106 65 -20 hstemhm
            12 106 162 104 hintmask 01111000
            384 return
          </CharString>
          <CharString index="204">
            2 13 vhcurveto
            43 7 28 21 47 hhcurveto
            33 25 -9 -18 18 hvcurveto
            return
          </CharString>
          <CharString index="205">
            16 callsubr
            0 return
          </CharString>
          <CharString index="206">
            -33 -1 -22 2 -11 5 rrcurveto
            -88 vlineto
            return
          </CharString>
          <CharString index="207">
            hstem
            58 97 167 100 vstem
            return
          </CharString>
          <CharString index="208">
            87 callgsubr
            98 return
          </CharString>
          <CharString index="209">
            -171 -12 91 0 221 return
          </CharString>
          <CharString index="210">
            8 10 -4 -9 12 hvcurveto
            return
          </CharString>
          <CharString index="211">
            155 19 -21 23 -21 return
          </CharString>
          <CharString index="212">
            hstemhm
            25 156 -90 90 return
          </CharString>
          <CharString index="213">
            116 115 callgsubr
            return
          </CharString>
          <CharString index="214">
            hlineto
            36 169 rlineto
            -86 hlineto
            -10 -53 -14 -63 -11 -53 rrcurveto
            return
          </CharString>
          <CharString index="215">
            21 -21 266 102 126 128 -96 96 6 -20 hstemhm
            return
          </CharString>
          <CharString index="216">
            rmoveto
            118 vlineto
            hintmask 10100000
            -5 -31 -78 -2 -124 hhcurveto
            return
          </CharString>
          <CharString index="217">
            -29 -69 -73 -72 vhcurveto
            1 -14 19 -14 rlineto
            12 hlineto
            99 return
          </CharString>
          <CharString index="218">
            -17 9 -17 rrcurveto
            118 vlineto
            -31 27 -49 15 -66 1 return
          </CharString>
          <CharString index="219">
            21 -21 477 146 -97 97 return
          </CharString>
          <CharString index="220">
            -21 196 -20 hstem
            return
          </CharString>
          <CharString index="221">
            rmoveto
            -106 -67 hlineto
            return
          </CharString>
          <CharString index="222">
            125 225 133 -118 135 hintmask 11110100
            return
          </CharString>
          <CharString index="223">
            106 callgsubr
            104 callgsubr
            return
          </CharString>
          <CharString index="224">
            16 -15 vhcurveto
            20 -19 33 -8 46 3 rrcurveto
            36 vlineto
            return
          </CharString>
          <CharString index="225">
            21 -21 162 120 return
          </CharString>
          <CharString index="226">
            -20 hstem
            72 125 vstem
            return
          </CharString>
          <CharString index="227">
            834 -65 callsubr
            return
          </CharString>
          <CharString index="228">
            -20 hstemhm
            71 125 hintmask 01110000
            return
          </CharString>
          <CharString index="229">
            -235 20 -21 303 86 return
          </CharString>
          <CharString index="230">
            -165 71 242 0 80 return
          </CharString>
          <CharString index="231">
            33 3 38 -19 43 -43 rrcurveto
            return
          </CharString>
          <CharString index="232">
            -14 130 402 128 return
          </CharString>
          <CharString index="233">
            -20 21 -20 hstemhm
            return
          </CharString>
          <CharString index="234">
            hstemhm
            36 74 90 69 203 72 90 72 return
          </CharString>
          <CharString index="235">
            172 -157 -21 189 -20 hstemhm
            12 return
          </CharString>
          <CharString index="236">
            vlineto
            -1 -59 -3 return
          </CharString>
        <CharString name=".notdef">
          -144 endchar
        </CharString>
        <CharString name="A">
          95 -49 callsubr
          hstem
          615 hmoveto
          -102 callgsubr
        </CharString>
        <CharString name="AE">
          63 callsubr
          hstemhm
          426 124 hintmask 01010101
          902 -3 rmoveto
          -3 32 0 50 3 68 rrcurveto
          -79 hlineto
          -1 -15 -3 -10 -5 -6 rrcurveto
          hintmask 10001011
          -81 callsubr
          hintmask 00110101
          1 -1 0 -6 1 -9 rrcurveto
          80 hlineto
          -4 57 0 46 4 34 -99 -4 -75 -2 -53 1 -133 2 -72 1 -10 1 -259 -355 -156 -210 -52 -65 rrcurveto
          135 hlineto
          45 65 39 54 33 43 rrcurveto
          205 hlineto
          hintmask 10010101
          40 callsubr
          endchar
        </CharString>
        <CharString name="AEacute">
          63 callsubr
          226 -20 hstemhm
          490 124 hintmask 0101010110000000
          966 -3 rmoveto
          -3 32 0 50 3 68 rrcurveto
          -79 hlineto
          -1 -15 -3 -10 -5 -6 rrcurveto
          hintmask 1000101110000000
          -81 callsubr
          hintmask 0011010110000000
          1 -1 0 -6 1 -9 rrcurveto
          80 hlineto
          -4 57 0 46 4 34 -99 -4 -75 -2 -53 1 -133 2 -72 1 -10 1 -259 -355 -156 -210 -52 -65 rrcurveto
          135 hlineto
          45 65 39 54 33 43 rrcurveto
          205 hlineto
          hintmask 1001010110000000
          40 callsubr
          103 575 -93 callsubr
          endchar
        </CharString>
        <CharString name="Aacute">
          95 -49 callsubr
          289 -20 hstem
          321 902 -93 callsubr
          207 -872 rmoveto
          -102 callgsubr
        </CharString>
        <CharString name="Abreve">
          95 -49 callsubr
          92 56 85 -20 hstem
          439 845 -98 callgsubr
          135 -808 rmoveto
          -102 callgsubr
        </CharString>
        <CharString name="Acircumflex">
          95 -49 callsubr
          241 -20 hstem
          505 730 -100 callgsubr
          169 -672 rmoveto
          -102 callgsubr
        </CharString>
        <CharString name="Adieresis">
          95 -49 callsubr
          92 79 callgsubr
          171 107 88 103 hintmask 11110110
          469 30 callsubr
          hintmask 11101110
          -66 callgsubr
          337 -760 rmoveto
          -102 callgsubr
        </CharString>
        <CharString name="Agrave">
          95 -49 callsubr
          288 -20 hstem
          310 901 -68 callsubr
          261 -727 rmoveto
          -102 callgsubr
        </CharString>
        <CharString name="Alpha">
          107 21 -21 162 120 351 -20 hstem
          621 hmoveto
          -102 callgsubr
        </CharString>
        <CharString name="Alphatonos">
          92 callsubr
          33 -20 hstemhm
          hintmask 11010000
          26 646 -93 callsubr
          508 -616 rmoveto
          -64 callsubr
          rrcurveto
          hintmask 11100000
          -75 callsubr
          -131 -357 -79 -33 callsubr
          22 65 20 54 17 43 rrcurveto
          196 hlineto
          1 19 -54 39 -109 vhcurveto
          -214 282 rmoveto
          1 -3 21 57 41 115 20 -56 20 -56 20 -57 rrcurveto
          endchar
        </CharString>
        <CharString name="Amacron">
          95 -49 callsubr
          92 61 hstem
          474 766 35 callgsubr
          141 -705 rmoveto
          -102 callgsubr
        </CharString>
        <CharString name="Aogonek">
          93 -200 -21 242 -42 callgsubr
          hstem
          443 78 vstem
          617 -125 16 callgsubr
          36 23 36 45 37 vhcurveto
          30 hlineto
          -64 callsubr
          -75 callsubr
          -131 -357 -79 -33 callsubr
          22 65 20 54 17 43 rrcurveto
          196 hlineto
          1 19 -54 39 -109 vhcurveto
          15 hlineto
          62 callsubr
          -383 465 rmoveto
          1 -3 21 57 41 115 20 -56 20 -56 20 -57 rrcurveto
          endchar
        </CharString>
        <CharString name="Aring">
          95 -49 callsubr
          92 49 87 48 hstem
          234 48 87 49 vstem
          418 797 -47 callsubr
          246 -797 rmoveto
          -102 callgsubr
        </CharString>
        <CharString name="Aringacute">
          95 -49 callsubr
          54 49 87 48 220 -20 hstem
          234 48 87 49 vstem
          418 759 -47 callsubr
          -24 312 -93 callsubr
          183 -1041 rmoveto
          -102 callgsubr
        </CharString>
        <CharString name="Atilde">
          95 -49 callsubr
          92 94 hstem
          517 801 rmoveto
          -25 15 -24 14 -25 13 rrcurveto
          -29 -1 -10 -15 -18 hhcurveto
          -23 -31 8 16 -39 hvcurveto
          -39 17 -31 55 callgsubr
          -18 -9 -17 -17 -21 -21 -12 -29 -3 -36 66 -23 rcurveline
          11 30 15 15 19 -1 rrcurveto
          17 26 -8 -17 35 hvcurveto
          -16 35 35 -8 35 hhcurveto
          46 29 32 64 12 hvcurveto
          98 -801 rmoveto
          -102 callgsubr
        </CharString>
        <CharString name="B">
          69 0 104 166 107 147 99 hstemhm
          72 115 callsubr
          572 -38 callgsubr
        </CharString>
        <CharString name="Beta">
          99 0 104 166 107 147 99 hstemhm
          92 115 callsubr
          592 -38 callgsubr
        </CharString>
        <CharString name="C">
          66 callgsubr
          hstem
          32 138 vstem
          445 179 -80 callsubr
        </CharString>
        <CharString name="Cacute">
          66 callgsubr
          265 -20 hstem
          32 138 vstem
          330 902 -93 callsubr
          28 -693 -80 callsubr
        </CharString>
        <CharString name="Ccaron">
          66 callgsubr
          250 -20 hstem
          32 138 vstem
          449 884 -79 callgsubr
          -63 -647 -80 callsubr
        </CharString>
        <CharString name="Ccedilla">
          20 -193 77 631 122 hstem
          21 138 vstem
          347 -135 rmoveto
          5 13 2 12 13 vvcurveto
          35 -15 22 -29 11 vhcurveto
          10 19 33 1 32 4 29 8 rlinecurve
          12 callsubr
          -78 hlineto
          -4 -17 -6 -12 -7 -7 -15 -15 -27 -8 -40 -3 -45 -3 -40 16 -35 35 rrcurveto
          -37 37 -19 48 59 vvcurveto
          65 17 51 35 38 vhcurveto
          31 34 36 17 43 -57 callsubr
          -72 19 -65 39 -58 vhcurveto
          41 -60 53 -39 65 -19 rrcurveto
          -32 -18 -8 -16 33 callgsubr
        </CharString>
        <CharString name="Ccircumflex">
          66 callgsubr
          210 -20 hstem
          32 138 vstem
          515 723 -100 callgsubr
          -11 -486 -80 callsubr
        </CharString>
        <CharString name="Cdotaccent">
          66 callgsubr
          68 110 hstem
          32 138 107 110 vstem
          387 760 2 callsubr
          58 -581 -80 callsubr
        </CharString>
        <CharString name="Chi">
          -7 callgsubr
        </CharString>
        <CharString name="D">
          124 0 104 411 108 hstem
          72 128 296 138 vstem
          634 302 -16 callsubr
        </CharString>
        <CharString name="Dcaron">
          124 0 104 411 108 264 -20 hstem
          72 128 296 138 vstem
          376 884 -79 callgsubr
          199 -524 -16 callsubr
        </CharString>
        <CharString name="Delta">
          12 callgsubr
        </CharString>
        <CharString name="Dmacron">
          128 -31 callgsubr
        </CharString>
        <CharString name="E">
          45 -4 -56 callgsubr
          1 70 callgsubr
          hintmask 01110010
          547 -6 callsubr
          hintmask 10101010
          -81 callgsubr
          123 vlineto
          -9 -21 -83 -5 -146 hhcurveto
          -1 73 0 50 1 25 rrcurveto
          175 hlineto
          39 22 -2 -5 3 hvcurveto
          4 -4 2 -3 -2 vvcurveto
          hintmask 10110010
          1 -1 0 -6 1 -9 rrcurveto
          80 hlineto
          -4 57 0 46 4 34 -99 -4 -75 -2 -53 1 rrcurveto
          hintmask 10100110
          5 callgsubr
        </CharString>
        <CharString name="Eacute">
          45 -4 -56 callgsubr
          274 57 callgsubr
          285 902 -93 callsubr
          175 -875 -99 callgsubr
        </CharString>
        <CharString name="Ebreve">
          45 -4 -56 callgsubr
          77 56 85 70 callgsubr
          hintmask 01110111
          403 845 -98 callgsubr
          103 -811 rmoveto
          -76 callgsubr
          hintmask 10101111
          -81 callgsubr
          123 vlineto
          -9 -21 -83 -5 -146 hhcurveto
          -1 73 0 50 1 25 rrcurveto
          175 hlineto
          39 22 -2 -5 3 hvcurveto
          4 -4 2 -3 -2 vvcurveto
          hintmask 10110111
          1 -1 0 -6 1 -9 rrcurveto
          80 hlineto
          -4 57 0 46 4 34 -99 -4 -75 -2 -53 1 5 callgsubr
        </CharString>
        <CharString name="Ecaron">
          45 -4 -56 callgsubr
          259 57 callgsubr
          413 884 -79 callgsubr
          75 -829 -99 callgsubr
        </CharString>
        <CharString name="Ecircumflex">
          45 -4 -56 callgsubr
          228 57 callgsubr
          470 732 -100 callgsubr
          136 -677 -99 callgsubr
        </CharString>
        <CharString name="Edieresis">
          45 -4 -56 callgsubr
          77 107 1 70 callgsubr
          -49 107 88 105 hintmask 1011010011000000
          444 30 callsubr
          hintmask 0111001011000000
          -66 callgsubr
          294 -763 rmoveto
          -76 callgsubr
          hintmask 1010110101000000
          -81 callgsubr
          123 vlineto
          -9 -21 -83 -5 -146 hhcurveto
          -1 73 0 50 1 25 rrcurveto
          175 hlineto
          39 22 -2 -5 3 hvcurveto
          4 -4 2 -3 -2 vvcurveto
          hintmask 1011010101000000
          1 -1 0 -6 1 -9 rrcurveto
          80 hlineto
          -4 57 0 46 4 34 -99 -4 -75 -2 -53 1 5 callgsubr
        </CharString>
        <CharString name="Edotaccent">
          45 -4 -56 callgsubr
          77 110 94 callgsubr
          54 110 hintmask 01110111
          359 760 2 callsubr
          188 -763 rmoveto
          -76 callgsubr
          hintmask 10101111
          -81 callgsubr
          123 vlineto
          -9 -21 -83 -5 -146 hhcurveto
          -1 73 0 50 1 25 rrcurveto
          175 hlineto
          39 22 -2 -5 3 hvcurveto
          4 -4 2 -3 -2 vvcurveto
          hintmask 10110111
          1 -1 0 -6 1 -9 rrcurveto
          80 hlineto
          -4 57 0 46 4 34 -99 -4 -75 -2 -53 1 5 callgsubr
        </CharString>
        <CharString name="Egrave">
          45 -4 -56 callgsubr
          273 57 callgsubr
          283 901 -68 callsubr
          220 -730 -99 callgsubr
        </CharString>
        <CharString name="Emacron">
          45 -4 -56 callgsubr
          77 61 94 callgsubr
          hintmask 01110110
          457 766 35 callgsubr
          90 -708 -99 callgsubr
        </CharString>
        <CharString name="Eng">
          189 -222 116 127 -21 626 126 callsubr
          52 125 375 125 hintmask 11101100
          541 626 rmoveto
          7 -25 4 -43 1 -62 rrcurveto
          -1 25 0 -62 -148 vvcurveto
          -117 vlineto
          hintmask 11011100
          -37 55 -118 144 -198 234 rrcurveto
          hintmask 11101100
          -1 -56 0 -111 vhcurveto
          10 -19 6 -42 3 -63 rrcurveto
          1 -25 0 -63 -102 vvcurveto
          -184 vlineto
          -1 -61 8 callsubr
          43 -1 62 rrcurveto
          181 vlineto
          139 vlineto
          21 -33 69 -85 117 -136 48 -57 56 -65 64 -73 1 -39 -12 -29 -23 -19 rrcurveto
          -13 -16 -19 -6 -23 hhcurveto
          -29 -31 13 27 -34 hvcurveto
          -50 -119 15 -2 20 -7 27 -13 rlinecurve
          -10 22 25 -5 27 hhcurveto
          59 1 50 16 41 31 rrcurveto
          50 39 25 59 77 vvcurveto
          309 vlineto
          161 0 62 -1 -37 vhcurveto
          1 62 93 callsubr
          endchar
        </CharString>
        <CharString name="Eogonek">
          46 -200 -21 217 23 callgsubr
          1 -20 hstemhm
          70 124 69 78 hintmask 1011100110000000
          546 -6 callsubr
          hintmask 1101010110000000
          -81 callsubr
          hintmask 1101100110000000
          1 -1 0 -6 1 -9 rrcurveto
          80 hlineto
          -4 57 0 46 4 34 -99 -4 -75 -2 -53 1 rrcurveto
          hintmask 1101001110000000
          -124 2 -78 2 -33 2 rrcurveto
          7 -23 3 -103 -182 vvcurveto
          -193 -12 callgsubr
          109 3 84 2 59 1 rrcurveto
          -32 -33 -16 -47 -60 -28 callgsubr
          -26 58 -21 -19 -16 -10 -12 -1 rlinecurve
          -23 -1 -24 18 29 vvcurveto
          36 23 37 47 37 vhcurveto
          68 -2 45 -1 22 -1 rrcurveto
          endchar
        </CharString>
        <CharString name="Epsilon">
          65 -4 -56 callgsubr
          1 -20 hstemhm
          91 124 hintmask 01110010
          567 -6 callsubr
          hintmask 10101010
          -81 callgsubr
          123 vlineto
          -9 -21 -83 -5 -146 hhcurveto
          -1 73 0 50 1 25 rrcurveto
          175 hlineto
          39 22 -2 -5 3 hvcurveto
          4 -4 2 -3 -2 vvcurveto
          hintmask 10110010
          1 -1 0 -6 1 -9 rrcurveto
          80 hlineto
          -4 57 0 46 4 34 -99 -4 -75 -2 -53 1 rrcurveto
          hintmask 10100110
          5 callgsubr
        </CharString>
        <CharString name="Epsilon.alt">
          -2 -10 127 145 97 156 122 hstem
          163 359 rmoveto
          8 49 20 39 32 29 29 25 32 13 37 1 44 1 32 -9 19 -19 7 -15 5 -12 1 -9 rrcurveto
          -64 callgsubr
          14 hhcurveto
          35 33 14 callgsubr
          -78 hlineto
          -4 -17 -6 -12 -7 -7 -15 -15 -27 -8 -40 -3 -38 -2 -36 12 -33 27 -33 27 -22 36 -10 45 133 1 80 -4 29 -9 3 126 rcurveline
          -11 -25 -82 -6 -138 hhcurveto
          endchar
        </CharString>
        <CharString name="Epsilontonos">
          65 -4 -56 callgsubr
          22 -20 hstemhm
          91 124 hintmask 01110110
          -66 650 -93 callsubr
          546 -623 -99 callgsubr
        </CharString>
        <CharString name="Eta">
          194 -2 callsubr
          253 -20 hstem
          92 32 callsubr
          vstem
          656 -15 callsubr
          185 vlineto
          1 61 18 callsubr
          -147 hlineto
          9 -31 3 -85 -1 -137 rrcurveto
          -303 hlineto
          -2 128 4 84 10 41 rrcurveto
          -148 hlineto
          -44 callgsubr
          -31 rrcurveto
          1 -30 0 -137 60 callsubr
          28 -4 85 143 vvcurveto
          302 hlineto
          1 -138 -3 -85 -9 -33 -10 callgsubr
          endchar
        </CharString>
        <CharString name="Etatonos">
          194 -2 callsubr
          280 -20 hstem
          92 32 callsubr
          vstem
          -119 650 -93 callsubr
          688 -620 rmoveto
          -20 callgsubr
          185 vlineto
          1 61 18 callsubr
          -147 hlineto
          9 -31 3 -85 -1 -137 rrcurveto
          -303 hlineto
          -2 128 4 84 10 41 rrcurveto
          -148 hlineto
          -44 callgsubr
          -31 rrcurveto
          1 -30 0 -137 60 callsubr
          28 -4 85 143 vvcurveto
          302 hlineto
          1 -138 -3 -85 -9 -33 rrcurveto
          endchar
        </CharString>
        <CharString name="Eth">
          123 -31 callgsubr
        </CharString>
        <CharString name="F">
          13 108 callsubr
          72 124 hintmask 11010100
          525 -26 callsubr
        </CharString>
        <CharString name="G">
          46 50 callgsubr
          hstemhm
          32 75 callgsubr
          hintmask 11111000
          530 328 -18 callsubr
          hintmask 11110100
          -88 callsubr
        </CharString>
        <CharString name="Gamma">
          13 20 -21 479 143 -95 95 5 -20 hstemhm
          72 126 hintmask 10101000
          530 478 rmoveto
          -5 61 0 49 5 37 -85 -3 -69 -2 -53 1 rrcurveto
          hintmask 10011000
          -155 3 -87 1 -19 1 rrcurveto
          7 -23 3 -109 -193 vvcurveto
          -179 vlineto
          -1 -57 -3 -41 -7 -25 rrcurveto
          149 hlineto
          -7 25 -3 27 -1 28 rrcurveto
          -1 29 0 74 119 vvcurveto
          hintmask 10101000
          225 181 vlineto
          35 21 -4 -7 5 hvcurveto
          hintmask 11001000
          5 -7 4 -12 1 -18 rrcurveto
          80 hlineto
          endchar
        </CharString>
        <CharString name="Gbreve">
          46 50 callgsubr
          68 56 85 -20 hstemhm
          32 75 callgsubr
          hintmask 11111110
          427 845 -98 callgsubr
          62 -480 -18 callsubr
          hintmask 11111101
          -88 callsubr
        </CharString>
        <CharString name="Gcircumflex">
          2 50 callgsubr
          250 -20 hstemhm
          21 75 callgsubr
          hintmask 11111100
          493 763 -100 callgsubr
          85 -377 -18 callsubr
          hintmask 11111010
          -88 callsubr
        </CharString>
        <CharString name="Gcommaaccent">
          46 -279 -21 188 102 127 85 0 127 0 123 63 122 hstemhm
          32 138 94 106 -93 245 -111 111 hintmask 1110111101000000
          370 -112 114 callsubr
          hintmask 1101011101000000
          -50 callgsubr
          160 501 rmoveto
          -48 -1 -85 1 -123 1 rrcurveto
          hintmask 1110111010000000
          3 -21 1 -17 -1 -28 rrcurveto
          -21 -1 -12 -2 -28 vhcurveto
          81 hlineto
          1 14 2 9 3 3 rrcurveto
          hintmask 1110111101000000
          -88 callsubr
        </CharString>
        <CharString name="Gdotaccent">
          46 50 callgsubr
          68 110 hstem
          32 138 96 110 35 111 vstem
          376 760 2 callsubr
          154 -432 -18 callsubr
          -88 callsubr
        </CharString>
        <CharString name="H">
          154 -2 callsubr
          253 -20 hstem
          72 32 callsubr
          vstem
          636 -15 callsubr
          185 vlineto
          1 61 18 callsubr
          -147 hlineto
          9 -31 3 -85 -1 -137 rrcurveto
          -303 hlineto
          -2 128 4 84 10 41 rrcurveto
          -148 hlineto
          -44 callgsubr
          -31 rrcurveto
          1 -30 0 -137 60 callsubr
          28 -4 85 143 vvcurveto
          302 hlineto
          1 -138 -3 -85 -9 -33 -10 callgsubr
          endchar
        </CharString>
        <CharString name="Hbar">
          111 -2 callsubr
          81 73 -73 174 hstemhm
          52 32 callsubr
          hintmask 11101100
          657 524 rmoveto
          -53 hlineto
          hintmask 11011100
          1 44 4 34 6 23 rrcurveto
          -147 hlineto
          hintmask 11101100
          7 -25 3 -33 1 -43 rrcurveto
          -303 hlineto
          hintmask 11011100
          1 41 4 33 7 27 rrcurveto
          -148 hlineto
          hintmask 11101100
          7 -23 4 -34 1 -44 rrcurveto
          -58 -73 58 -139 hlineto
          47 callsubr
          -60 -46 callsubr
          28 -4 85 143 vvcurveto
          302 hlineto
          1 -138 -3 -85 -9 -33 -10 callgsubr
          -20 callgsubr
          73 vlineto
          68 53 vlineto
          -177 hmoveto
          -1 -35 0 -27 -19 vvcurveto
          -303 hlineto
          -1 31 0 27 23 vvcurveto
          endchar
        </CharString>
        <CharString name="Hcircumflex">
          154 -2 callsubr
          517 -20 hstem
          72 32 callsubr
          vstem
          535 763 -100 callgsubr
          160 -705 rmoveto
          -20 callgsubr
          185 vlineto
          1 61 18 callsubr
          -147 hlineto
          9 -31 3 -85 -1 -137 rrcurveto
          -303 hlineto
          -2 128 4 84 10 41 rrcurveto
          -148 hlineto
          -44 callgsubr
          -31 rrcurveto
          1 -30 0 -137 60 callsubr
          28 -4 85 143 vvcurveto
          302 hlineto
          1 -138 -3 -85 -9 -33 rrcurveto
          endchar
        </CharString>
        <CharString name="I">
          -274 21 -21 623 119 callsubr
          60 623 -97 callsubr
          endchar
        </CharString>
        <CharString name="IJ">
          55 0 94 -84 -21 634 126 callsubr
          61 125 236 124 hintmask 10101100
          49 623 -97 callsubr
          hintmask 10011100
          213 1 -8 callgsubr
          hintmask 01011100
          -8 38 25 -4 12 hhcurveto
          67 43 20 40 21 hvcurveto
          17 31 8 90 148 vvcurveto
          181 vlineto
          1 59 3 41 7 25 rrcurveto
          endchar
        </CharString>
        <CharString name="Iacute">
          120 callgsubr
          902 119 callsubr
          138 902 -93 callsubr
          -165 -249 -97 callsubr
          endchar
        </CharString>
        <CharString name="Ibreve">
          120 callgsubr
          705 56 85 119 callsubr
          253 845 -98 callgsubr
          -234 -185 -97 callsubr
          endchar
        </CharString>
        <CharString name="Icircumflex">
          120 callgsubr
          851 119 callsubr
          305 727 -100 callgsubr
          -186 -46 -97 callsubr
          endchar
        </CharString>
        <CharString name="Idieresis">
          120 callgsubr
          705 79 callgsubr
          -14 107 -21 125 -16 103 hintmask 11010100
          284 30 callsubr
          hintmask 10110100
          -66 callgsubr
          -33 20 callsubr
        </CharString>
        <CharString name="Idotaccent">
          -302 21 -21 705 110 hstem
          61 125 vstem
          49 623 -97 callsubr
          -15 137 2 callsubr
          endchar
        </CharString>
        <CharString name="Igrave">
          120 callgsubr
          901 119 callsubr
          125 901 -68 callsubr
          -109 -104 -97 callsubr
          endchar
        </CharString>
        <CharString name="Imacron">
          120 callgsubr
          705 61 hstem
          72 125 vstem
          287 766 35 callgsubr
          -227 -82 -97 callsubr
          endchar
        </CharString>
        <CharString name="Iogonek">
          -300 -200 -21 242 96 callgsubr
          hstemhm
          23 78 -40 125 hintmask 11110000
          197 -125 16 callgsubr
          36 23 36 45 37 vhcurveto
          27 hlineto
          hintmask 11101000
          -6 25 -3 43 -1 62 rrcurveto
          182 vlineto
          184 vlineto
          1 60 18 callsubr
          -148 hlineto
          -44 callgsubr
          -30 rrcurveto
          -72 callgsubr
          20 hlineto
          hintmask 11110000
          62 callsubr
          endchar
        </CharString>
        <CharString name="Iota">
          -234 52 callgsubr
          92 125 vstem
          80 623 -97 callsubr
          endchar
        </CharString>
        <CharString name="Iotadieresis">
          120 callgsubr
          705 79 callgsubr
          -13 107 -22 125 -15 103 hintmask 11010100
          285 30 callsubr
          hintmask 10110100
          -66 callgsubr
          -34 20 callsubr
        </CharString>
        <CharString name="Iotatonos">
          -234 21 -21 650 -20 hstem
          92 125 vstem
          -108 650 -93 callsubr
          101 3 -97 callsubr
          endchar
        </CharString>
        <CharString name="Itilde">
          120 callgsubr
          705 94 hstem
          72 125 vstem
          314 801 rmoveto
          -25 15 -24 14 -25 13 rrcurveto
          -29 -1 -10 -15 -18 hhcurveto
          -23 -31 8 16 -39 hvcurveto
          -39 17 -31 55 callgsubr
          -18 -9 -17 -17 -21 -21 -12 -29 -3 -36 66 -23 rcurveline
          11 30 15 15 19 -1 rrcurveto
          17 26 -8 -17 35 hvcurveto
          -16 35 35 -8 35 hhcurveto
          46 29 32 64 12 hvcurveto
          -254 -178 -97 callsubr
          endchar
        </CharString>
        <CharString name="J">
          -156 -11 105 530 -20 hstem
          191 124 vstem
          179 624 -8 callgsubr
          -8 38 25 -4 12 hhcurveto
          67 43 20 40 21 hvcurveto
          17 31 8 90 148 vvcurveto
          181 vlineto
          1 59 3 41 7 25 rrcurveto
          endchar
        </CharString>
        <CharString name="Jcircumflex">
          -167 -11 105 793 -20 hstem
          202 124 vstem
          190 624 -8 callgsubr
          -8 38 25 -4 12 hhcurveto
          67 43 20 40 21 hvcurveto
          17 31 8 90 148 vvcurveto
          181 vlineto
          1 59 3 41 7 25 rrcurveto
          104 139 51 callgsubr
        </CharString>
        <CharString name="K">
          131 21 -21 623 119 callsubr
          60 623 rmoveto
          -44 callgsubr
          -31 rrcurveto
          1 -30 0 -137 60 callsubr
          25 -3 43 -1 62 rrcurveto
          182 vlineto
          37 -25 47 -41 57 -56 51 -50 34 -36 19 -22 22 -28 15 -27 9 -27 rrcurveto
          179 hlineto
          -43 68 -70 79 -97 91 -27 25 -35 30 -43 35 31 31 25 24 17 17 43 44 44 44 43 45 43 45 32 30 20 15 rrcurveto
          -195 hlineto
          -1 -21 -12 -24 -24 -27 -7 -7 -35 -36 -64 -64 -36 -36 -38 -39 -41 -43 rrcurveto
          167 4 99 8 31 vhcurveto
          endchar
        </CharString>
        <CharString name="Kappa">
          151 52 callgsubr
          92 125 vstem
          80 623 rmoveto
          -44 callgsubr
          -31 rrcurveto
          1 -30 0 -137 60 callsubr
          25 -3 43 -1 62 rrcurveto
          182 vlineto
          37 -25 47 -41 57 -56 51 -50 34 -36 19 -22 22 -28 15 -27 9 -27 rrcurveto
          179 hlineto
          -43 68 -70 79 -97 91 -27 25 -35 30 -43 35 31 31 25 24 17 17 43 44 44 44 43 45 43 45 32 30 20 15 rrcurveto
          -195 hlineto
          -1 -21 -12 -24 -24 -27 -7 -7 -35 -36 -64 -64 -36 -36 -38 -39 -41 -43 rrcurveto
          167 4 99 8 31 vhcurveto
          endchar
        </CharString>
        <CharString name="Kcommaaccent">
          131 -281 -21 323 96 callgsubr
          hstemhm
          72 125 104 106 vstemhm
          407 -114 114 callsubr
          hintmask 11111000
          -50 callgsubr
          -347 798 rmoveto
          -44 callgsubr
          -31 rrcurveto
          1 -30 0 -137 60 callsubr
          25 -3 43 -1 62 rrcurveto
          182 vlineto
          37 -25 47 -41 57 -56 51 -50 34 -36 19 -22 22 -28 15 -27 9 -27 rrcurveto
          179 hlineto
          -43 68 -70 79 -97 91 -27 25 -35 30 -43 35 31 31 25 24 17 17 43 44 44 44 43 45 43 45 32 30 20 15 rrcurveto
          -195 hlineto
          -1 -21 -12 -24 -24 -27 -7 -7 -35 -36 -64 -64 -36 -36 -38 -39 -41 -43 rrcurveto
          167 4 99 8 31 vhcurveto
          endchar
        </CharString>
        <CharString name="L">
          22 -3 108 -108 151 475 121 callsubr
          536 -2 rmoveto
          -76 callgsubr
          hintmask 10110000
          85 callsubr
          -191 hlineto
          1 63 1 68 74 vvcurveto
          180 vlineto
          1 63 3 45 7 25 rrcurveto
          -146 hlineto
          7 -25 3 -40 1 -57 rrcurveto
          -1 68 0 -59 -186 vvcurveto
          -192 -12 callgsubr
          4 113 86 2 61 hhcurveto
          53 1 72 -2 91 -4 rrcurveto
          endchar
        </CharString>
        <CharString name="Lacute">
          22 -3 108 -108 151 754 121 callsubr
          143 902 -93 callsubr
          306 -874 rmoveto
          -76 callgsubr
          hintmask 10110000
          85 callsubr
          -191 hlineto
          1 63 1 68 74 vvcurveto
          180 vlineto
          1 63 3 45 7 25 rrcurveto
          -146 hlineto
          7 -25 3 -40 1 -57 rrcurveto
          -1 68 0 -59 -186 vvcurveto
          -192 -12 callgsubr
          4 113 86 2 61 hhcurveto
          53 1 72 -2 91 -4 rrcurveto
          endchar
        </CharString>
        <CharString name="Lambda">
          109 21 -21 633 -20 hstem
          622 -74 callsubr
          -130 -357 -80 -33 callsubr
          4 17 28 79 53 143 rrcurveto
          51 139 26 70 3 vvcurveto
          94 -282 50 -150 7 -19 rrcurveto
          145 hlineto
          endchar
        </CharString>
        <CharString name="Lcaron">
          22 -3 108 -108 151 526 121 callsubr
          436 674 -93 callsubr
          13 -646 rmoveto
          -76 callgsubr
          hintmask 10110000
          85 callsubr
          -191 hlineto
          1 63 1 68 74 vvcurveto
          180 vlineto
          1 63 3 45 7 25 rrcurveto
          -146 hlineto
          7 -25 3 -40 1 -57 rrcurveto
          -1 68 0 -59 -186 vvcurveto
          -192 -12 callgsubr
          4 113 86 2 61 hhcurveto
          53 1 72 -2 91 -4 rrcurveto
          endchar
        </CharString>
        <CharString name="Lcommaaccent">
          22 -278 -21 188 108 0 108 -108 151 475 -20 hstemhm
          71 125 51 106 hintmask 11001110
          353 -111 114 callsubr
          -50 callgsubr
          183 170 rmoveto
          hintmask 10011110
          -76 callgsubr
          hintmask 10101110
          85 callsubr
          -191 hlineto
          1 63 1 68 74 vvcurveto
          180 vlineto
          1 63 3 45 7 25 rrcurveto
          -146 hlineto
          7 -25 3 -40 1 -57 rrcurveto
          -1 68 0 -59 -186 vvcurveto
          -192 -12 callgsubr
          4 113 86 2 61 hhcurveto
          53 1 72 -2 91 -4 rrcurveto
          endchar
        </CharString>
        <CharString name="Ldot">
          22 -3 108 -108 151 168 110 197 -20 hstemhm
          71 125 85 110 hintmask 01111100
          391 371 2 callsubr
          145 -373 rmoveto
          -76 callgsubr
          hintmask 10111100
          85 callsubr
          -191 hlineto
          1 63 1 68 74 vvcurveto
          180 vlineto
          1 63 3 45 7 25 rrcurveto
          -146 hlineto
          7 -25 3 -40 1 -57 rrcurveto
          -1 68 0 -59 -186 vvcurveto
          -192 -12 callgsubr
          4 113 86 2 61 hhcurveto
          53 1 72 -2 91 -4 rrcurveto
          endchar
        </CharString>
        <CharString name="Lslash">
          28 -3 108 -108 151 475 -20 hstemhm
          64 124 hintmask 01110000
          529 -2 rmoveto
          -76 callgsubr
          hintmask 10110000
          85 callsubr
          -191 hlineto
          2 196 187 108 -37 63 -150 -88 -1 127 3 80 9 32 rlinecurve
          -146 hlineto
          7 -25 3 -40 1 -57 rrcurveto
          -1 67 0 -59 -185 vvcurveto
          -12 vlineto
          -108 -63 36 -61 72 41 rlineto
          -129 -4 -77 -7 -26 vhcurveto
          4 113 86 2 61 hhcurveto
          53 1 72 -2 91 -4 rrcurveto
          endchar
        </CharString>
        <CharString name="M">
          339 52 callgsubr
          81 125 469 124 vstem
          658 -14 callgsubr
        </CharString>
        <CharString name="Mu">
          379 52 callgsubr
          101 125 469 124 vstem
          678 -14 callgsubr
        </CharString>
        <CharString name="N">
          233 21 129 callgsubr
          375 125 hintmask 11011000
          569 622 -7 callsubr
          hintmask 10111000
          24 callgsubr
          hintmask 11011000
          -79 callsubr
        </CharString>
        <CharString name="Nacute">
          233 21 -21 902 -20 99 callgsubr
          419 902 -93 callsubr
          63 -250 -7 callsubr
          24 callgsubr
          -79 callsubr
        </CharString>
        <CharString name="Ncaron">
          233 21 -21 887 -20 99 callgsubr
          524 884 -79 callgsubr
          -14 -204 -7 callsubr
          24 callgsubr
          -79 callsubr
        </CharString>
        <CharString name="Ncommaaccent">
          233 -278 -21 320 129 callgsubr
          144 106 125 125 hintmask 11011110
          455 -111 114 callsubr
          hintmask 11101110
          -50 callgsubr
          114 794 -7 callsubr
          hintmask 11011110
          24 callgsubr
          hintmask 11101110
          -79 callsubr
        </CharString>
        <CharString name="Ntilde">
          233 21 -21 705 94 99 callgsubr
          600 801 rmoveto
          -25 15 -24 14 -25 13 rrcurveto
          -29 -1 -10 -15 -18 hhcurveto
          -23 -31 8 16 -39 hvcurveto
          -39 17 -31 55 callgsubr
          -18 -9 -17 -17 -21 -21 -12 -29 -3 -36 66 -23 rcurveline
          11 30 15 15 19 -1 rrcurveto
          17 26 -8 -17 35 hvcurveto
          -16 35 35 -8 35 hhcurveto
          46 29 32 64 12 hvcurveto
          -31 -179 -7 callsubr
          24 callgsubr
          -79 callsubr
        </CharString>
        <CharString name="Nu">
          273 21 -21 622 126 callsubr
          100 125 375 125 hintmask 11011000
          589 622 -7 callsubr
          hintmask 10111000
          24 callgsubr
          hintmask 11011000
          -79 callsubr
        </CharString>
        <CharString name="Numero">
          629 -6 82 -55 -21 131 91 178 89 133 126 callsubr
          60 125 375 125 73 106 160 106 hintmask 1011101111000000
          947 400 rmoveto
          45 32 -37 -52 -50 -28 -39 -49 -40 -43 30 59 53 39 36 44 hvcurveto
          -189 -406 rmoveto
          373 82 -373 hlineto
          372 235 rmoveto
          107 -74 71 -110 -104 -83 -73 -104 -1 vhcurveto
          -106 -2 82 -75 108 hhcurveto
          107 77 76 104 hvcurveto
          -581 311 -7 callsubr
          hintmask 1011011111000000
          24 callgsubr
          hintmask 0111101111000000
          -79 callsubr
        </CharString>
        <CharString name="O">
          -8 callsubr
          4 callgsubr
          641 305 -105 callsubr
        </CharString>
        <CharString name="OE">
          413 -12 120 -108 23 callgsubr
          -105 118 hstemhm
          24 137 276 124 hintmask 0011100110000000
          913 1 rmoveto
          -3 32 0 50 3 68 rrcurveto
          -79 hlineto
          -1 -15 -3 -10 -5 -6 rrcurveto
          hintmask 1001010110000000
          -8 -5 -21 -4 -37 hhcurveto
          -201 hlineto
          1 174 135 2 84 -4 31 -10 rlinecurve
          126 vlineto
          -9 -21 -83 -5 -146 hhcurveto
          -1 73 0 50 1 25 rrcurveto
          175 hlineto
          39 22 -2 -5 3 hvcurveto
          4 -4 2 -3 -2 vvcurveto
          hintmask 1001100110000000
          1 -1 0 -6 1 -9 rrcurveto
          80 hlineto
          -4 57 0 46 4 34 -99 -4 -75 -2 -53 1 -123 2 -77 2 -33 2 rrcurveto
          hintmask 1001001110000000
          8 -27 -32 4 -35 hhcurveto
          -96 -77 -34 -68 -57 hvcurveto
          -54 -63 -27 -78 -95 vvcurveto
          -90 29 87 callsubr
          75 -32 91 hhcurveto
          hintmask 0101100110000000
          37 31 4 8 23 hvcurveto
          4 113 87 2 61 hhcurveto
          53 1 75 -2 98 -4 rrcurveto
          -476 487 rmoveto
          1 -125 0 -112 -1 -99 rrcurveto
          -23 -29 -34 -12 -39 hhcurveto
          -52 -42 20 40 -33 hvcurveto
          -31 38 -16 45 53 vvcurveto
          56 14 47 29 39 vhcurveto
          43 32 43 22 53 hhcurveto
          42 35 -11 -21 28 hvcurveto
          endchar
        </CharString>
        <CharString name="Oacute">
          -8 callsubr
          267 -20 4 callgsubr
          356 902 -93 callsubr
          198 -567 -105 callsubr
        </CharString>
        <CharString name="Obreve">
          -8 callsubr
          70 56 85 -20 4 callgsubr
          460 845 -56 callsubr
          -503 -105 callsubr
        </CharString>
        <CharString name="Ocircumflex">
          -8 callsubr
          215 -20 4 callgsubr
          506 726 -100 callgsubr
          194 -363 -105 callsubr
        </CharString>
        <CharString name="Odieresis">
          -8 callsubr
          70 84 callgsubr
          30 callsubr
          hintmask 11011111
          -66 callgsubr
          355 -455 -105 callsubr
        </CharString>
        <CharString name="Ograve">
          -8 callsubr
          266 -20 4 callgsubr
          323 901 -68 callsubr
          274 -422 -105 callsubr
        </CharString>
        <CharString name="Ohm">
          -8 callsubr
          32 84 callgsubr
          720 -73 callsubr
          hintmask 11011111
          -66 callgsubr
          355 -417 -105 callsubr
        </CharString>
        <CharString name="Ohungarumlaut">
          -8 callsubr
          267 -20 4 callgsubr
          427 902 -93 callsubr
          -227 30 -93 callsubr
          267 -567 -105 callsubr
        </CharString>
        <CharString name="Omacron">
          -8 callsubr
          70 61 4 callgsubr
          489 766 35 callgsubr
          152 -400 -105 callsubr
        </CharString>
        <CharString name="Omega">
          128 18 callgsubr
          hstemhm
          46 -23 callgsubr
          hintmask 01110100
          558 -33 callgsubr
          hintmask 10101010
          -103 callgsubr
          hintmask 01101100
          -87 callgsubr
          rrcurveto
          hintmask 10110010
          -78 callsubr
          rrcurveto
          hintmask 10110100
          -67 callgsubr
          hintmask 01110100
          -13 callgsubr
          endchar
        </CharString>
        <CharString name="Omega.alt">
          227 -11 126 520 -20 hstem
          15 134 160 146 164 129 vstem
          748 244 rmoveto
          106 -26 97 -52 88 vhcurveto
          -22 37 -26 33 -30 30 -105 -71 rcurveline
          9 -5 10 -11 11 -17 5 -8 10 -16 14 -25 24 -42 14 -27 5 -13 21 -50 10 -53 -1 -57 -1 -42 -8 -32 -16 -22 rrcurveto
          -19 -13 -18 -10 -21 hhcurveto
          -37 -35 32 47 -8 hvcurveto
          -5 31 -2 30 30 vvcurveto
          38 3 32 7 27 vhcurveto
          -167 hlineto
          7 -31 4 -27 -24 vvcurveto
          -29 -3 -34 -6 -40 vhcurveto
          -47 -7 -39 -36 -37 hhcurveto
          -45 -23 40 80 77 25 86 49 94 hvcurveto
          12 24 21 24 29 25 -109 71 rcurveline
          -103 -123 -53 -135 -5 -146 -3 -89 21 -66 44 -43 rrcurveto
          -29 29 31 -15 32 hhcurveto
          112 70 47 95 27 hvcurveto
          22 -97 63 -48 105 3 39 1 37 18 35 36 rrcurveto
          46 47 23 67 86 vvcurveto
          endchar
        </CharString>
        <CharString name="Omegatonos">
          128 18 callgsubr
          7 -20 hstemhm
          46 -23 callgsubr
          hintmask 01011010
          -86 650 -93 callsubr
          557 -484 rmoveto
          -1 -9 -2 -7 -5 -4 rrcurveto
          hintmask 10100101
          -103 callgsubr
          hintmask 01100110
          -87 callgsubr
          rrcurveto
          hintmask 10101001
          -78 callsubr
          rrcurveto
          hintmask 10101010
          -67 callgsubr
          hintmask 01101010
          -13 callgsubr
          endchar
        </CharString>
        <CharString name="Omicron">
          148 -10 126 393 126 hstem
          40 135 340 134 vstem
          649 305 -105 callsubr
        </CharString>
        <CharString name="Omicrontonos">
          148 -10 126 393 126 14 -20 hstemhm
          40 135 340 134 hintmask 10111000
          -79 649 -93 callsubr
          641 -314 rmoveto
          -4 callgsubr
          hintmask 11011000
          63 -55 -76 32 -97 hhcurveto
          -94 -75 -33 -67 -57 hvcurveto
          -53 -62 -26 -77 -93 vvcurveto
          -87 28 -74 57 -61 vhcurveto
          -61 57 73 -30 90 hhcurveto
          86 72 31 63 59 hvcurveto
          57 61 29 73 1 87 rrcurveto
          -134 2 rmoveto
          -53 -15 -44 -31 -36 vhcurveto
          -39 -32 -41 -19 -51 hhcurveto
          -51 -41 19 39 -33 hvcurveto
          -30 37 -15 44 51 vvcurveto
          55 14 47 28 38 vhcurveto
          42 31 42 21 52 hhcurveto
          56 43 -19 -38 31 hvcurveto
          29 -36 14 -48 -61 vvcurveto
          endchar
        </CharString>
        <CharString name="Oslash">
          133 -78 -21 87 129 647 -32 callsubr
          endchar
        </CharString>
        <CharString name="Oslashacute">
          133 -78 -21 87 129 785 -32 callsubr
          -43 383 -93 callsubr
          endchar
        </CharString>
        <CharString name="Otilde">
          -8 callsubr
          70 94 4 callgsubr
          516 801 rmoveto
          -25 15 -24 14 -25 13 rrcurveto
          -29 -1 -10 -15 -18 hhcurveto
          -23 -31 8 16 -39 hvcurveto
          -39 17 -31 55 callgsubr
          -18 -9 -17 -17 -21 -21 -12 -29 -3 -36 66 -23 rcurveline
          11 30 15 15 19 -1 rrcurveto
          17 26 -8 -17 35 hvcurveto
          -16 35 35 -8 35 hhcurveto
          46 29 32 64 12 hvcurveto
          125 -496 -105 callsubr
        </CharString>
        <CharString name="P">
          33 21 -21 222 103 198 100 hstem
          71 125 216 131 vstem
          543 -48 callsubr
          198 98 hlineto
          51 callsubr
          endchar
        </CharString>
        <CharString name="Phi">
          208 0 179 -105 105 289 105 -105 157 hstemhm
          39 132 135 130 135 134 hintmask 10101110
          705 322 rmoveto
          -1 81 -29 63 -57 46 rrcurveto
          41 -50 -60 20 -71 hhcurveto
          hintmask 10011110
          3 24 2 17 1 11 rrcurveto
          -147 hlineto
          hintmask 01101110
          5 -17 3 -17 1 -18 rrcurveto
          -70 -60 -20 -41 -50 hvcurveto
          -57 -46 -28 -63 -1 -81 -1 -91 32 -66 63 -43 rrcurveto
          -32 47 58 -16 68 hhcurveto
          hintmask 10101110
          -3 -39 -3 -25 -4 -10 -10 callgsubr
          -3 30 -3 24 -1 19 rrcurveto
          68 58 16 32 47 hvcurveto
          64 43 32 67 -1 91 rrcurveto
          -397 -10 rmoveto
          -15 -1 -45 -1 -73 vhcurveto
          -40 -33 14 27 -25 hvcurveto
          -25 28 -12 35 41 vvcurveto
          39 13 34 26 28 vhcurveto
          29 27 32 14 38 hhcurveto
          1 -17 0 -14 -10 vvcurveto
          126 hmoveto
          10 0 14 1 17 vhcurveto
          38 32 -14 -29 27 hvcurveto
          26 -28 13 -34 -39 vvcurveto
          -41 -12 -35 -25 -28 vhcurveto
          -27 -25 -33 -14 -40 hhcurveto
          -1 73 -1 45 15 vvcurveto
          endchar
        </CharString>
        <CharString name="Pi">
          208 20 -21 527 100 7 -20 hstemhm
          35 94 callsubr
          377 -17 callgsubr
        </CharString>
        <CharString name="Psi">
          246 21 -21 624 -20 hstem
          33 133 168 126 157 137 vstem
          460 370 rmoveto
          -2 101 -1 43 -16 vvcurveto
          56 4 42 7 28 vhcurveto
          -143 hlineto
          7 -27 3 -84 -1 -143 -83 9 -53 49 -23 87 rrcurveto
          -6 24 -3 23 23 vvcurveto
          15 2 13 3 11 vhcurveto
          -138 hlineto
          -120 30 -93 61 -65 vhcurveto
          51 -55 71 -32 89 -11 rrcurveto
          -151 vlineto
          -1 -40 -3 -32 -7 -25 rrcurveto
          147 hlineto
          -9 34 -3 82 1 131 82 9 68 35 54 61 61 69 30 91 -1 112 rrcurveto
          -142 hlineto
          3 -11 2 -13 -15 vvcurveto
          -23 -3 -23 -6 -24 vhcurveto
          -22 -83 -49 -50 -77 -12 rrcurveto
          endchar
        </CharString>
        <CharString name="Q">
          132 -134 250 -126 126 393 126 hstemhm
          32 135 340 134 hintmask 10111000
          557 -134 rmoveto
          -9 6 -12 13 -17 19 -23 26 -17 25 -12 24 -17 33 rcurveline
          57 23 46 39 34 53 35 53 18 60 1 65 -4 callgsubr
          63 -55 -76 32 -97 hhcurveto
          -94 -75 -33 -67 -57 hvcurveto
          -53 -62 -26 -77 -93 vvcurveto
          -87 28 -74 56 -59 vhcurveto
          hintmask 01111000
          -62 57 74 -31 90 hhcurveto
          23 -42 rlineto
          hintmask 10111000
          21 -47 10 -27 -8 vvcurveto
          116 441 rmoveto
          -53 -15 -44 -31 -36 vhcurveto
          -39 -32 -41 -19 -51 hhcurveto
          -51 -41 19 39 -33 hvcurveto
          -30 37 -15 44 51 vvcurveto
          55 14 47 28 38 vhcurveto
          42 31 42 21 52 hhcurveto
          56 43 -19 -38 31 hvcurveto
          29 -36 14 -48 -61 vvcurveto
          endchar
        </CharString>
        <CharString name="R">
          66 21 -21 521 102 100 callgsubr
          584 hmoveto
          -77 callgsubr
          8 callgsubr
          endchar
        </CharString>
        <CharString name="Racute">
          66 21 -21 521 102 279 -20 100 callgsubr
          273 902 -93 callsubr
          224 -872 rmoveto
          -77 callgsubr
          8 callgsubr
          endchar
        </CharString>
        <CharString name="Rcaron">
          66 21 -21 521 102 264 -20 100 callgsubr
          383 884 -79 callgsubr
          142 -826 rmoveto
          -77 callgsubr
          8 callgsubr
          endchar
        </CharString>
        <CharString name="Rcommaaccent">
          66 -276 -21 318 -21 342 179 0 102 hstemhm
          71 125 86 106 24 132 hintmask 11101110
          388 -109 114 callsubr
          hintmask 11011110
          -50 callgsubr
          196 170 rmoveto
          -77 callgsubr
          hintmask 11101110
          8 callgsubr
          endchar
        </CharString>
        <CharString name="Rho">
          61 21 -21 222 103 198 100 hstem
          91 125 216 131 vstem
          563 -48 callsubr
          198 98 hlineto
          51 callsubr
          endchar
        </CharString>
        <CharString name="S">
          -2 101 callgsubr
          hstem
          68 122 vstem
          266 -12 -88 callgsubr
          endchar
        </CharString>
        <CharString name="Sacute">
          -2 101 callgsubr
          267 -20 hstem
          68 122 vstem
          297 902 -93 callsubr
          -118 -884 -88 callgsubr
          endchar
        </CharString>
        <CharString name="Scaron">
          58 101 callgsubr
          220 -20 hstem
          95 122 vstem
          293 -12 -88 callgsubr
          141 864 -79 callgsubr
          endchar
        </CharString>
        <CharString name="Scedilla">
          58 -161 -21 712 113 hstemhm
          97 125 18 147 -75 75 hintmask 11110000
          332 -13 rmoveto
          57 5 47 17 38 29 rrcurveto
          43 33 22 43 54 vvcurveto
          52 -21 45 -43 38 vhcurveto
          -39 35 -51 25 -63 16 rrcurveto
          -67 17 -33 27 39 vvcurveto
          10 2 10 5 10 vhcurveto
          13 28 37 13 60 -3 23 -1 17 -4 12 -8 15 -12 17 -6 7 -40 rrcurveto
          68 155 hlineto
          -15 -3 -21 3 -29 8 -51 15 -36 7 -23 -1 -67 -2 -52 -15 -39 -29 -46 -34 -23 -50 1 -67 1 -53 24 -41 48 -31 19 -12 52 -22 83 -33 19 -7 16 -11 15 -13 rrcurveto
          19 -17 10 -17 -19 vvcurveto
          -5 -1 -4 -1 -4 vhcurveto
          -36 -9 -27 -18 -44 hhcurveto
          -58 -47 15 29 -35 hvcurveto
          -15 13 -10 15 -3 18 rrcurveto
          -70 -164 hlineto
          5 1 15 -2 25 -6 42 -11 37 -11 33 -9 rrcurveto
          -50 vlineto
          7 1 8 0 9 -1 9 -1 9 -3 8 -5 rrcurveto
          hintmask 11101000
          15 -9 7 -13 -18 vvcurveto
          -14 -6 -10 -11 -7 vhcurveto
          -17 -10 -17 -4 -17 2 rrcurveto
          -1 -1 -27 vlineto
          -2 23 18 -1 14 hhcurveto
          30 21 6 13 13 hvcurveto
          17 17 8 22 29 vvcurveto
          34 -18 27 -37 21 vhcurveto
          endchar
        </CharString>
        <CharString name="Scircumflex">
          -2 101 callgsubr
          252 -20 hstem
          68 122 vstem
          471 763 -100 callgsubr
          -146 -717 -88 callgsubr
          endchar
        </CharString>
        <CharString name="Scommaaccent">
          -2 -280 -21 188 101 539 108 hstemhm
          68 122 44 106 vstemhm
          340 -113 114 callsubr
          hintmask 11111000
          -50 callgsubr
          -74 162 -88 callgsubr
          endchar
        </CharString>
        <CharString name="Sigma">
          74 79 callsubr
          491 -28 callsubr
        </CharString>
        <CharString name="T">
          49 112 callsubr
          hstemhm
          229 125 hintmask 11010000
          596 476 3 callgsubr
          hintmask 10110000
          -45 callsubr
          80 hlineto
          endchar
        </CharString>
        <CharString name="Tau">
          59 112 callsubr
          hstemhm
          234 125 hintmask 11010000
          601 476 3 callgsubr
          hintmask 10110000
          -45 callsubr
          80 hlineto
          endchar
        </CharString>
        <CharString name="Tbar">
          131 21 -21 344 73 60 148 -99 99 hstemhm
          271 125 hintmask 11101000
          638 476 rmoveto
          -3 67 0 50 76 callgsubr
          -49 -5 -62 rrcurveto
          81 hlineto
          1 18 3 12 4 7 rrcurveto
          hintmask 11011000
          8 8 21 4 33 hhcurveto
          83 -109 -149 -73 149 -43 hlineto
          -179 vlineto
          -1 -57 -4 -40 1 callsubr
          41 -1 57 rrcurveto
          1 -34 0 60 153 vvcurveto
          43 163 73 -163 108 91 vlineto
          34 21 -4 -8 8 hvcurveto
          4 -7 3 -12 1 -18 rrcurveto
          80 hlineto
          endchar
        </CharString>
        <CharString name="Tcaron">
          49 112 callsubr
          264 -20 hstemhm
          229 125 hintmask 11011000
          421 884 -79 callgsubr
          116 -350 3 callgsubr
          hintmask 10111000
          -45 callsubr
          endchar
        </CharString>
        <CharString name="Tcommaaccent">
          49 -281 -21 188 114 526 97 hstemhm
          229 125 -87 87 hintmask 11101000
          345 -114 rmoveto
          -106 -67 28 hlineto
          -47 -14 -26 -27 -5 vhcurveto
          hintmask 11110000
          3 -43 rlineto
          77 9 39 43 75 vvcurveto
          251 651 3 callgsubr
          -45 callsubr
          endchar
        </CharString>
        <CharString name="Theta">
          179 -10 126 142 99 152 126 hstem
          61 135 48 245 47 134 vstem
          489 366 rmoveto
          -6 -4 -23 -3 -39 -2 -16 -1 -19 -1 -22 -1 -71 1 -40 4 -9 6 rrcurveto
          -117 vlineto
          45 6 40 3 35 1 73 -1 42 -3 10 -5 rrcurveto
          181 56 -105 callsubr
        </CharString>
        <CharString name="Thorn">
          17 0 214 -101 101 201 100 -100 208 hstemhm
          61 127 213 131 hintmask 10101100
          532 320 rmoveto
          128 -68 65 -136 2 vhcurveto
          -142 2 rlineto
          hintmask 10011100
          1 49 4 35 6 22 rrcurveto
          -148 hlineto
          -44 callgsubr
          -30 rrcurveto
          -75 callgsubr
          -5 22 -4 37 -1 51 rrcurveto
          hintmask 01101100
          50 1 47 1 43 1 rrcurveto
          137 9 69 69 129 vvcurveto
          -131 -2 rmoveto
          1 -48 -17 -31 -33 -15 rrcurveto
          -7 -14 -22 -3 -30 hhcurveto
          -98 201 98 hlineto
          51 callsubr
          endchar
        </CharString>
        <CharString name="U">
          68 callsubr
          514 -20 24 callsubr
          451 624 -96 callsubr
        </CharString>
        <CharString name="Uacute">
          68 callsubr
          792 -20 24 callsubr
          340 902 -93 callsubr
          24 -248 -96 callsubr
        </CharString>
        <CharString name="Ubreve">
          68 callsubr
          595 56 85 -20 24 callsubr
          452 845 -98 callgsubr
          -42 -184 -96 callsubr
        </CharString>
        <CharString name="Ucircumflex">
          68 callsubr
          744 -20 24 callsubr
          513 730 -100 callgsubr
          -3 -48 -96 callsubr
        </CharString>
        <CharString name="Udieresis">
          68 callsubr
          592 79 callgsubr
          71 128 -12 107 88 103 -23 125 hintmask 11001100
          485 755 -73 callsubr
          hintmask 10101010
          -66 callgsubr
          157 -133 rmoveto
          3 -11 2 -14 1 -18 5 -51 1 -93 -1 -135 -1 -59 -6 -43 -13 -28 rrcurveto
          -41 -19 -37 -21 -53 hhcurveto
          hintmask 11010010
          -89 -45 58 89 74 1 99 1 123 hvcurveto
          1 25 3 24 5 22 rrcurveto
          -150 hlineto
          5 -16 3 -23 2 -31 1 -26 1 -57 -1 -87 -1 -139 12 -95 24 -50 rrcurveto
          -74 36 75 -37 115 hhcurveto
          117 75 44 87 35 hvcurveto
          21 51 9 91 -2 133 -1 26 1 49 3 71 1 39 3 27 5 17 rrcurveto
          endchar
        </CharString>
        <CharString name="Ugrave">
          68 callsubr
          791 -20 24 callsubr
          339 901 -68 callsubr
          68 -103 -96 callsubr
        </CharString>
        <CharString name="Uhorn">
          -88 81 callsubr
          hstemhm
          36 58 callgsubr
          -23 65 hintmask 11010100
          397 329 rmoveto
          24 -2 21 10 17 22 rrcurveto
          16 20 8 23 25 vvcurveto
          18 -4 16 -8 13 vhcurveto
          86 callsubr
          rrcurveto
          hintmask 11011000
          -14 -64 27 3 20 -2 13 -7 rlinecurve
          hintmask 11010100
          10 -6 5 -9 -12 vvcurveto
          hintmask 11011000
          -32 -34 -12 -41 vhcurveto
          hintmask 10111000
          15 -30 -34 8 -39 hhcurveto
          -29 callgsubr
          -30 callsubr
          -92 callsubr
          53 -15 44 -29 36 vhcurveto
          -54 -128 -49 callgsubr
          endchar
        </CharString>
        <CharString name="Uhungarumlaut">
          68 callsubr
          792 -20 24 callsubr
          424 902 -93 callsubr
          -227 30 -93 callsubr
          80 -248 -96 callsubr
        </CharString>
        <CharString name="Umacron">
          68 callsubr
          593 61 24 callsubr
          490 764 35 callgsubr
          -39 -79 -96 callsubr
        </CharString>
        <CharString name="Uogonek">
          117 -200 -21 205 121 520 -20 hstem
          70 128 82 78 103 127 vstem
          451 625 rmoveto
          6 -51 3 -40 1 -29 3 -85 1 -68 -1 -50 rrcurveto
          -17 0 -16 -1 -15 vhcurveto
          -1 -43 -11 -35 -21 -27 rrcurveto
          -29 -23 -33 -15 -41 hhcurveto
          -44 -34 15 29 -24 hvcurveto
          -22 27 -11 36 45 vvcurveto
          95 1 72 1 49 vhcurveto
          1 81 4 50 5 21 rrcurveto
          -150 hlineto
          5 -16 3 -24 2 -31 rrcurveto
          1 -67 0 -57 -46 vvcurveto
          2 -126 1 -77 21 -63 40 -49 rlinecurve
          43 -53 60 -28 75 -4 rrcurveto
          -22 -29 -11 -41 -52 -28 callgsubr
          -26 58 -21 -19 -16 -10 -12 -1 rlinecurve
          -23 -1 -24 18 29 vvcurveto
          35 22 36 44 36 vhcurveto
          53 18 41 34 30 51 28 47 14 52 -1 59 34 callsubr
          39 3 28 5 17 rrcurveto
          endchar
        </CharString>
        <CharString name="Upsilon">
          43 21 -21 623 81 callgsubr
          428 623 -86 callgsubr
          endchar
        </CharString>
        <CharString name="Upsilondieresis">
          43 21 -21 705 79 callgsubr
          153 107 -25 126 -13 103 hintmask 11010100
          451 30 callsubr
          hintmask 10110100
          -66 callgsubr
          168 -137 rmoveto
          -9 -31 -12 -27 -14 -22 -88 -134 rcurveline
          -92 135 -16 35 -10 26 -5 18 rlinecurve
          -168 hlineto
          17 -13 30 -37 42 -61 rrcurveto
          hintmask 11001000
          29 callgsubr
        </CharString>
        <CharString name="Upsilontonos">
          43 21 -21 652 81 callgsubr
          -148 652 -93 callsubr
          489 1 -86 callgsubr
          endchar
        </CharString>
        <CharString name="Uring">
          68 callsubr
          595 49 87 48 hstem
          71 128 47 48 87 49 32 125 vstem
          430 797 -47 callsubr
          70 -173 -96 callsubr
        </CharString>
        <CharString name="Utilde">
          68 callsubr
          595 94 24 callsubr
          543 801 rmoveto
          -25 15 -24 14 -25 13 rrcurveto
          -29 -1 -10 -15 -18 hhcurveto
          -23 -31 8 16 -39 hvcurveto
          -39 17 -31 55 callgsubr
          -18 -9 -17 -17 -21 -21 -12 -29 -3 -36 66 -23 rcurveline
          11 30 15 15 19 -1 rrcurveto
          17 26 -8 -17 35 hvcurveto
          -16 35 35 -8 35 hhcurveto
          46 29 32 64 12 hvcurveto
          -92 -177 -96 callsubr
        </CharString>
        <CharString name="V">
          57 52 callgsubr
          454 623 rmoveto
          -151 -449 -103 275 -54 150 -5 24 rlinecurve
          -135 hlineto
          93 -243 77 -207 61 -173 rrcurveto
          120 hlineto
          142 380 81 208 19 35 rrcurveto
          endchar
        </CharString>
        <CharString name="W">
          381 21 -21 624 -20 hstem
          751 624 -67 callsubr
        </CharString>
        <CharString name="Wacute">
          381 21 -21 896 -20 hstem
          469 896 -93 callsubr
          195 -242 -67 callsubr
        </CharString>
        <CharString name="Wcircumflex">
          381 21 -21 887 -20 hstem
          648 763 -100 callgsubr
          162 -81 -67 callsubr
        </CharString>
        <CharString name="Wdieresis">
          381 21 -21 700 79 callgsubr
          304 107 88 103 hintmask 11011000
          602 753 -73 callsubr
          hintmask 10111000
          -66 callgsubr
          340 -131 -67 callsubr
        </CharString>
        <CharString name="Wgrave">
          381 21 -21 895 -20 hstem
          441 895 -68 callsubr
          266 -97 -67 callsubr
        </CharString>
        <CharString name="X">
          -7 callgsubr
        </CharString>
        <CharString name="Xi">
          51 -6 110 -110 138 -111 -21 297 100 100 129 -100 100 hstemhm
          hintmask 01011000
          461 132 rmoveto
          -5 -11 -4 -7 -5 -3 rrcurveto
          hintmask 10011000
          -5 -7 -29 -2 -51 hhcurveto
          -75 hlineto
          215 213 rlineto
          80 vlineto
          -1 -1 -64 0 -128 1 217 186 rcurveline
          43 vlineto
          -3 -111 -84 -2 -59 hhcurveto
          -53 -1 -69 2 -85 3 -1 -3 -2 -22 -4 -40 -3 -29 -4 -21 -5 -13 rrcurveto
          79 hlineto
          4 12 4 8 5 3 rrcurveto
          hintmask 01010100
          4 5 29 2 52 hhcurveto
          68 hlineto
          -212 -203 rlineto
          -17 1 -1 -9 -1 hhcurveto
          241 hlineto
          -261 -258 -1 1 0 -15 1 -31 rlinecurve
          hintmask 00111000
          4 113 86 2 60 hhcurveto
          53 1 69 -2 85 -4 1 10 2 23 2 37 rrcurveto
          hintmask 01011000
          1 32 2 22 4 13 rrcurveto
          endchar
        </CharString>
        <CharString name="Xi1.alt">
          -41 0 102 -90 -21 533 102 7 -20 hstemhm
          hintmask 10010000
          479 515 109 callsubr
          hintmask 10010000
          -117 -74 2 5 -31 hvcurveto
          -118 vlineto
          hintmask 01100000
          78 callgsubr
          51 -1 39 -4 25 -7 rrcurveto
          -97 -256 rmoveto
          -10 5 -45 3 -80 1 -39 -1 -43 -3 -48 -6 rrcurveto
          117 vlineto
          9 -6 43 -4 78 -1 24 1 21 1 17 1 43 2 24 3 6 4 rrcurveto
          97 -385 109 callsubr
          -117 -74 2 5 -31 hvcurveto
          hintmask 01100000
          -118 vlineto
          hintmask 10100000
          78 callgsubr
          hintmask 01100000
          51 -1 39 -4 25 -7 rrcurveto
          endchar
        </CharString>
        <CharString name="Xi2.alt">
          -41 0 102 -90 -21 535 100 7 -20 hstemhm
          117 188 -125 125 -125 202 hintmask 10101000
          306 526 rmoveto
          93 -1 57 -4 23 -6 rrcurveto
          hintmask 10011000
          118 vlineto
          hintmask 10101000
          -5 -31 -78 -2 -124 hhcurveto
          hintmask 10011000
          -117 -74 2 5 -31 hvcurveto
          -118 vlineto
          21 5 25 4 31 1 rrcurveto
          hintmask 10100100
          26 26 0 1 26 hvcurveto
          1 -28 1 -53 -1 -79 rrcurveto
          hintmask 10101000
          -37 3 -21 3 -5 3 rrcurveto
          -117 vlineto
          hintmask 10100100
          5 3 21 2 37 2 1 -81 -1 -55 -1 -27 rrcurveto
          -70 -52 2 5 -33 hvcurveto
          hintmask 01101000
          -118 vlineto
          20 5 24 4 28 1 rrcurveto
          72 hlineto
          hintmask 10101000
          -1 147 2 vlineto
          hintmask 01101000
          87 -1 55 -4 22 -6 rrcurveto
          118 vlineto
          hintmask 10101000
          -5 -31 -58 -2 -85 hhcurveto
          -1 26 0 55 1 84 rrcurveto
          hintmask 10100010
          45 -2 25 -3 7 -3 rrcurveto
          117 vlineto
          hintmask 10101000
          -6 -4 -26 -3 -45 -3 -1 79 1 54 1 27 rrcurveto
          endchar
        </CharString>
        <CharString name="Y">
          43 21 -21 623 81 callgsubr
          428 623 -86 callgsubr
          endchar
        </CharString>
        <CharString name="Yacute">
          43 21 -21 902 81 callgsubr
          326 902 -93 callsubr
          15 -249 -86 callgsubr
          endchar
        </CharString>
        <CharString name="Ycircumflex">
          43 21 -21 850 81 callgsubr
          492 726 -100 callgsubr
          -5 -45 -86 callgsubr
          endchar
        </CharString>
        <CharString name="Ydieresis">
          46 21 -21 664 79 callgsubr
          148 107 -24 126 -14 103 hintmask 11001000
          424 623 -86 callgsubr
          hintmask 11010100
          -127 94 -73 callsubr
          hintmask 10110100
          -66 callgsubr
          endchar
        </CharString>
        <CharString name="Ygrave">
          43 21 -21 900 81 callgsubr
          286 900 -68 callsubr
          98 -103 -86 callgsubr
          endchar
        </CharString>
        <CharString name="Z">
          -27 callsubr
        </CharString>
        <CharString name="Zacute">
          23 callsubr
          277 -20 hstemhm
          hintmask 01010100
          303 902 -93 callsubr
          53 -725 -54 callsubr
        </CharString>
        <CharString name="Zcaron">
          23 callsubr
          224 -20 hstemhm
          hintmask 01010100
          402 846 -79 callgsubr
          -18 -641 -54 callsubr
        </CharString>
        <CharString name="Zdotaccent">
          23 callsubr
          80 110 hstemhm
          hintmask 01010100
          365 760 2 callsubr
          78 -613 -54 callsubr
        </CharString>
        <CharString name="Zeta">
          -27 callsubr
        </CharString>
        <CharString name="a">
          -15 callgsubr
          28 callsubr
          hintmask 10111000
          408 75 -14 callsubr
          -100 callsubr
          hintmask 01111000
          -65 callgsubr
          hintmask 10111000
          -82 callgsubr
        </CharString>
        <CharString name="aacute">
          -15 callgsubr
          261 -20 112 callgsubr
          213 656 -93 callsubr
          108 -551 -14 callsubr
          -100 callsubr
          hintmask 01111100
          -65 callgsubr
          hintmask 10111100
          -82 callgsubr
        </CharString>
        <CharString name="abreve">
          -15 callgsubr
          70 56 85 -20 28 callsubr
          hintmask 10111110
          334 605 -98 callgsubr
          33 -493 -14 callsubr
          -100 callsubr
          hintmask 01111110
          -65 callgsubr
          hintmask 10111110
          -82 callgsubr
        </CharString>
        <CharString name="acircumflex">
          -15 callgsubr
          254 -20 112 callgsubr
          396 525 -100 callgsubr
          71 -392 -14 callsubr
          -100 callsubr
          hintmask 01111100
          -65 callgsubr
          hintmask 10111100
          -82 callgsubr
        </CharString>
        <CharString name="acute">
          -386 465 61 callsubr
          81 641 -93 callsubr
          endchar
        </CharString>
        <CharString name="acutecomb">
          -382 466 61 callsubr
          61 642 -93 callsubr
          endchar
        </CharString>
        <CharString name="adieresis">
          -15 callgsubr
          64 79 callgsubr
          40 91 -71 107 88 108 -91 91 hintmask 1011001100000000
          358 512 -73 callsubr
          hintmask 1010101100000000
          -66 callgsubr
          241 -439 -14 callsubr
          -11 -6 8 15 hvcurveto
          206 vlineto
          42 -17 30 -33 19 vhcurveto
          -28 16 -38 7 -47 -3 -61 -4 -47 -21 -33 -38 rrcurveto
          -93 vlineto
          43 33 68 29 57 hhcurveto
          hintmask 1011010010000000
          37 18 -14 -27 hvcurveto
          -26 vlineto
          -81 -11 -54 -12 -28 -13 rrcurveto
          -46 -22 -23 -37 -53 vvcurveto
          -72 35 -36 70 47 44 16 31 39 vhcurveto
          hintmask 0111010010000000
          -65 callgsubr
          hintmask 1011010010000000
          -82 callgsubr
        </CharString>
        <CharString name="ae">
          106 -13 77 -77 91 87 74 71 84 hstemhm
          12 91 140 105 hintmask 01111100
          -27 callgsubr
          hintmask 10111100
          -20 -20 -45 -19 -32 hhcurveto
          -30 -15 15 29 1 hvcurveto
          1 21 19 21 38 21 29 16 27 11 26 5 rrcurveto
          endchar
        </CharString>
        <CharString name="aeacute">
          107 -13 77 -77 91 87 74 71 84 247 -20 hstemhm
          12 91 140 105 hintmask 01111110
          -27 callgsubr
          hintmask 10111110
          -20 -20 -45 -19 -32 hhcurveto
          -30 -15 15 29 1 hvcurveto
          1 21 19 21 38 21 29 16 27 11 26 5 rrcurveto
          97 438 -93 callsubr
          endchar
        </CharString>
        <CharString name="agrave">
          -15 callgsubr
          260 -20 112 callgsubr
          219 655 -68 callsubr
          145 -406 -14 callsubr
          -100 callsubr
          hintmask 01111100
          -65 callgsubr
          hintmask 10111100
          -82 callgsubr
        </CharString>
        <CharString name="alpha">
          17 callsubr
          12 -20 46 callsubr
          hintmask 10011010
          30 callgsubr
          hintmask 10101100
          15 -23 -30 7 -37 hhcurveto
          -59 -48 -21 -43 -37 hvcurveto
          -33 -39 -17 -46 -51 vvcurveto
          -59 16 -48 32 -37 vhcurveto
          -41 35 49 -20 62 hhcurveto
          72 48 27 54 23 hvcurveto
          hintmask 01101100
          -74 callgsubr
          hintmask 10101100
          -92 callgsubr
          endchar
        </CharString>
        <CharString name="alphatonos">
          17 callsubr
          238 -20 46 callsubr
          hintmask 10111010
          270 635 -93 callsubr
          152 -517 -62 callsubr
        </CharString>
        <CharString name="amacron">
          -15 callgsubr
          67 61 112 callgsubr
          370 523 35 callgsubr
          38 -387 -14 callsubr
          -100 callsubr
          hintmask 01111100
          -65 callgsubr
          hintmask 10111100
          -82 callgsubr
        </CharString>
        <CharString name="ampersand">
          53 -12 81 -48 -21 569 76 hstemhm
          94 87 111 89 hintmask 10111000
          292 503 rmoveto
          -38 -19 -31 -41 -21 vhcurveto
          -32 37 -19 20 36 vvcurveto
          34 27 29 31 35 18 -35 -31 vhcurveto
          53 -377 rmoveto
          -32 -29 -48 -25 -41 hhcurveto
          -60 -46 40 62 -5 hvcurveto
          -5 61 28 46 60 31 rrcurveto
          260 -176 rmoveto
          22 46 11 54 6 69 rrcurveto
          -90 hlineto
          -2 -43 -2 -26 -9 -25 -42 54 -31 39 -41 52 rrcurveto
          75 44 25 42 71 vvcurveto
          72 -55 63 -86 -87 -59 -57 -85 -46 21 -33 36 -49 vhcurveto
          -86 -49 -40 -61 -2 -79 rrcurveto
          -118 -3 80 -80 125 hhcurveto
          70 67 27 43 41 hvcurveto
          hintmask 01111000
          46 -58 rlineto
          118 hlineto
          endchar
        </CharString>
        <CharString name="anoteleia">
          -325 327 126 hstem
          45 127 vstem
          172 390 rmoveto
          35 -28 28 -35 -36 -28 -28 -35 -36 28 -27 36 35 28 28 35 vhcurveto
          endchar
        </CharString>
        <CharString name="aogonek">
          -115 -200 -21 209 76 246 85 hstemhm
          42 91 90 78 -28 92 hintmask 11111000
          397 -125 16 callgsubr
          33 17 31 34 31 vhcurveto
          22 1 19 9 17 18 -1 61 rcurveline
          -13 -11 -9 -7 -7 hhcurveto
          hintmask 11110100
          -11 -6 8 15 hvcurveto
          206 vlineto
          41 -19 30 -37 19 vhcurveto
          -29 15 -35 7 -43 -1 -59 -1 -47 -21 -35 -41 rrcurveto
          -93 vlineto
          28 36 60 31 49 4 rrcurveto
          51 3 25 -14 -29 vvcurveto
          -5 vlineto
          -81 -23 -49 -17 -18 -9 -55 -28 -28 -40 -1 -52 rrcurveto
          -72 -1 34 -36 71 hhcurveto
          48 44 16 31 39 hvcurveto
          2 -7 3 -7 3 -6 rrcurveto
          hintmask 11111000
          -41 -35 -21 -51 -67 -28 callgsubr
          -149 286 rmoveto
          -20 -20 -45 -19 -32 hhcurveto
          -30 -15 15 29 1 hvcurveto
          1 21 19 21 38 21 rrcurveto
          hintmask 11110100
          29 16 27 11 26 5 rrcurveto
          endchar
        </CharString>
        <CharString name="approxequal">
          278 154 48 -35 -21 75 47 50 47 19 48 10 -20 hstemhm
          hintmask 10110100
          734 442 rmoveto
          -51 -73 -61 -26 -49 hhcurveto
          -33 -46 11 22 -61 hvcurveto
          hintmask 10111000
          23 -60 -47 11 -33 hhcurveto
          -58 -62 -24 -47 -66 hvcurveto
          -53 vlineto
          43 27 30 18 16 7 rrcurveto
          16 33 33 8 31 hhcurveto
          33 46 -11 -22 60 hvcurveto
          -22 61 47 -11 33 hhcurveto
          53 61 23 46 69 hvcurveto
          hintmask 10110100
          -108 vmoveto
          -51 -76 -61 -26 -46 hhcurveto
          -33 -47 11 22 -60 hvcurveto
          22 -59 -46 11 -32 hhcurveto
          -59 -63 -23 -45 -67 hvcurveto
          hintmask 01111000
          -54 vlineto
          39 25 29 17 20 9 rrcurveto
          16 34 33 8 31 hhcurveto
          32 46 -11 -23 60 hvcurveto
          hintmask 10111000
          -22 60 46 -11 32 hhcurveto
          63 63 24 47 61 hvcurveto
          endchar
        </CharString>
        <CharString name="aring">
          -15 callgsubr
          74 50 100 50 hstemhm
          40 91 -27 50 100 50 -32 91 hintmask 1011101100000000
          304 569 rmoveto
          55 -45 45 -55 -56 -44 -45 -55 -55 44 -45 56 55 45 45 55 vhcurveto
          -50 hmoveto
          -28 -22 -22 -28 -28 -22 22 28 28 22 22 28 28 22 -22 -28 vhcurveto
          154 -494 -14 callsubr
          hintmask 1011110010000000
          -100 callsubr
          hintmask 0111110010000000
          -65 callgsubr
          hintmask 1011110010000000
          -82 callgsubr
        </CharString>
        <CharString name="aringacute">
          -15 callgsubr
          71 49 87 48 213 -20 hstemhm
          40 91 -7 48 87 49 -36 91 hintmask 1011110110000000
          308 558 -47 callsubr
          -31 305 -93 callsubr
          93 -758 -14 callsubr
          hintmask 1011111001000000
          -100 callsubr
          hintmask 0111111001000000
          -65 callgsubr
          hintmask 1011111001000000
          -82 callgsubr
        </CharString>
        <CharString name="asciicircum">
          -42 257 -21 392 -20 hstem
          273 628 rmoveto
          -62 hlineto
          -182 -392 rlineto
          88 hlineto
          40 92 44 98 41 93 125 -283 rcurveline
          86 hlineto
          endchar
        </CharString>
        <CharString name="asciitilde">
          -52 160 64 76 -20 hstem
          377 292 rmoveto
          -44 -10 -17 -24 -28 hhcurveto
          -14 -26 13 17 -30 hvcurveto
          20 -35 -41 26 -34 hhcurveto
          -40 -32 -41 -72 -28 hvcurveto
          59 -26 13 44 14 21 21 1 rlinecurve
          17 1 26 -15 29 -17 rrcurveto
          -19 32 35 -17 32 hhcurveto
          52 37 30 70 22 hvcurveto
          endchar
        </CharString>
        <CharString name="asterisk">
          -20 267 -21 331 -20 hstem
          234 74 vstem
          395 527 rmoveto
          -14 -15 -29 -21 -44 -26 1 55 3 37 6 20 rrcurveto
          -94 hlineto
          7 -17 4 -38 -1 -59 -41 25 -27 19 -13 15 -47 -82 rcurveline
          19 -2 30 -13 41 -25 -36 -21 -29 -14 -22 -5 47 -81 rcurveline
          9 13 26 19 43 26 -1 -47 -4 -30 -6 -14 rrcurveto
          94 hlineto
          -7 21 -3 30 1 39 46 -28 28 -21 10 -13 47 81 rcurveline
          -22 5 -32 15 -42 25 47 28 33 15 19 2 rrcurveto
          endchar
        </CharString>
        <CharString name="at">
          434 -263 109 131 103 212 94 135 103 hstem
          34 109 74 89 198 112 223 103 vstem
          701 -23 rmoveto
          152 1 89 101 163 vvcurveto
          109 -38 90 -76 71 vhcurveto
          75 -80 -107 37 -134 hhcurveto
          -145 -117 -47 -94 -89 hvcurveto
          -81 -86 -41 -105 -124 vvcurveto
          -122 38 -100 76 -79 vhcurveto
          -87 85 118 -43 152 hhcurveto
          3 -2 1 37 75 vvcurveto
          -1 -12 -12 0 -12 hhcurveto
          -102 -81 33 67 -61 hvcurveto
          -55 60 -28 74 -1 88 -1 94 30 80 61 67 rrcurveto
          75 67 90 37 113 hhcurveto
          105 84 -30 -60 63 hvcurveto
          57 -55 28 -64 -1 -75 -1 -57 -14 -43 -29 -31 -24 -26 -29 -12 -34 1 -31 1 -23 12 -16 23 rrcurveto
          -15 20 -7 25 31 vvcurveto
          1 53 25 53 40 20 -11 91 rcurveline
          -60 -12 -44 -50 -9 -49 -9 29 -17 23 -25 18 rrcurveto
          19 -27 -32 10 -37 hhcurveto
          -59 -48 -21 -43 -37 hvcurveto
          -33 -39 -17 -45 -52 vvcurveto
          -58 16 -48 33 -37 vhcurveto
          -41 35 49 -21 61 hhcurveto
          69 63 39 59 13 hvcurveto
          13 -60 60 -43 72 1 rrcurveto
          -197 210 rmoveto
          -63 -46 -44 -56 -57 -39 44 64 28 10 24 19 21 vhcurveto
          21 19 22 10 24 hhcurveto
          27 24 -11 -21 21 hvcurveto
          21 -21 11 -24 -28 vvcurveto
          endchar
        </CharString>
        <CharString name="atilde">
          -15 callgsubr
          67 94 112 callgsubr
          421 558 rmoveto
          -25 15 -24 14 -25 13 rrcurveto
          -29 -1 -10 -15 -18 hhcurveto
          -23 -31 8 16 -39 hvcurveto
          -39 17 -31 55 callgsubr
          -18 -9 -17 -17 -21 -21 -12 -29 -3 -36 66 -23 rcurveline
          11 30 15 15 19 -1 rrcurveto
          17 26 -8 -17 35 hvcurveto
          -16 35 35 -8 35 hhcurveto
          46 29 32 64 12 hvcurveto
          -13 -483 -14 callsubr
          -100 callsubr
          hintmask 01111100
          -65 callgsubr
          hintmask 10111100
          -82 callgsubr
        </CharString>
        <CharString name="b">
          -73 -8 92 -63 -21 304 89 232 -20 hstemhm
          61 91 186 92 hintmask 01111100
          430 194 rmoveto
          1 62 -15 49 -32 35 -34 38 -48 18 -63 -3 -38 -1 -30 -10 -21 -17 1 23 0 44 1 63 rrcurveto
          55 1 43 3 32 vhcurveto
          -102 hlineto
          4 -30 2 -34 1 -38 1 -27 0 -34 -1 -43 rrcurveto
          -1 -59 0 -35 -9 vvcurveto
          -143 -1 -105 -3 -68 vhcurveto
          38 hlineto
          38 21 15 -11 10 -6 5 -3 rlinecurve
          hintmask 10111100
          -6 15 23 -3 29 hhcurveto
          57 47 18 37 38 hvcurveto
          38 37 20 49 1 61 rrcurveto
          -92 hmoveto
          -67 -1 -43 -43 -60 hhcurveto
          -34 -28 12 23 -21 hvcurveto
          1 56 0 50 43 vvcurveto
          24 21 27 12 34 hhcurveto
          61 44 -47 -63 -1 hvcurveto
          endchar
        </CharString>
        <CharString name="backslash">
          -219 -67 -21 735 -20 hstem
          2 647 rmoveto
          238 -735 rlineto
          72 hlineto
          -236 735 rlineto
          endchar
        </CharString>
        <CharString name="bar">
          -319 -199 -21 846 -20 hstem
          59 97 vstem
          156 626 rmoveto
          -97 -846 97 hlineto
          endchar
        </CharString>
        <CharString name="beta">
          -49 -187 -21 199 96 436 89 hstemhm
          66 98 133 98 -23 97 hintmask 11110100
          469 189 rmoveto
          -3 47 -15 37 -29 29 -27 27 -31 13 -36 1 rrcurveto
          hintmask 11111000
          43 29 22 38 2 47 2 45 -14 38 -31 29 -31 29 -39 15 -48 -1 -40 -1 -34 -10 -28 -20 -31 -22 -20 -31 -8 -41 rrcurveto
          -5 -24 -2 -92 -161 vvcurveto
          -266 0 -139 -1 -13 vhcurveto
          99 hlineto
          -3 87 -1 84 1 80 rrcurveto
          -47 49 36 -5 45 hhcurveto
          57 45 20 40 33 hvcurveto
          hintmask 11110100
          32 38 14 46 -3 54 rrcurveto
          -97 -5 rmoveto
          -63 -38 -39 -64 5 vhcurveto
          -27 2 -24 10 -21 17 -17 14 -12 16 -7 18 -1 107 0 83 3 59 2 33 5 24 7 16 11 23 20 12 28 2 rrcurveto
          hintmask 11111000
          40 3 21 -33 -1 -43 -1 -30 -7 -23 -15 -15 -13 -13 -20 -9 -29 -7 rrcurveto
          -91 vlineto
          11 24 24 6 24 hhcurveto
          7 8 -1 -1 7 hvcurveto
          hintmask 11110100
          36 -5 30 -40 -48 vvcurveto
          endchar
        </CharString>
        <CharString name="braceleft">
          -132 -229 101 657 100 hstemhm
          138 114 -114 200 hintmask 11010000
          338 -128 rmoveto
          -42 hlineto
          hintmask 11100000
          -29 -15 26 52 hvcurveto
          116 vlineto
          43 -10 34 -19 26 vhcurveto
          -13 18 -14 10 -15 3 -10 2 rcurveline
          17 5 16 11 15 17 rrcurveto
          22 26 11 33 40 vvcurveto
          117 vlineto
          52 15 26 29 vhcurveto
          hintmask 11010000
          42 100 -55 hlineto
          -29 -30 -11 -21 -31 hvcurveto
          -37 -25 -18 -29 -35 vvcurveto
          -160 vlineto
          -68 -32 -50 -44 vhcurveto
          -57 vlineto
          44 32 -50 -71 hvcurveto
          -159 vlineto
          -35 18 -30 37 -25 vhcurveto
          -21 31 30 -11 29 hhcurveto
          55 hlineto
          endchar
        </CharString>
        <CharString name="braceright">
          -132 -229 101 657 100 hstemhm
          103 200 -114 114 hintmask 11100000
          379 230 rmoveto
          -44 -32 50 68 hvcurveto
          160 vlineto
          35 -18 29 -37 25 vhcurveto
          21 -31 -30 11 -29 hhcurveto
          -55 -100 42 hlineto
          hintmask 11010000
          29 15 -26 -52 hvcurveto
          -117 vlineto
          -40 11 -33 23 -26 vhcurveto
          15 -17 16 -11 16 -5 -10 -2 rcurveline
          -14 -3 -14 -10 -14 -18 rrcurveto
          -19 -26 -10 -34 -43 vvcurveto
          -116 vlineto
          -52 -15 -26 -29 vhcurveto
          hintmask 11100000
          -42 -101 55 hlineto
          29 30 11 21 31 hvcurveto
          37 25 18 30 35 vvcurveto
          159 vlineto
          71 32 50 44 vhcurveto
          endchar
        </CharString>
        <CharString name="bracketleft">
          -50 -227 104 680 95 hstem
          95 117 vstem
          387 -123 rmoveto
          -175 680 174 hlineto
          1 95 rlineto
          -292 -879 292 hlineto
          endchar
        </CharString>
        <CharString name="bracketright">
          -50 -227 104 680 95 hstem
          298 117 vstem
          415 652 rmoveto
          -292 hlineto
          1 -95 rlineto
          174 -680 -175 -104 292 hlineto
          endchar
        </CharString>
        <CharString name="breve">
          -178 465 56 85 -20 hstem
          299 605 -98 callgsubr
          endchar
        </CharString>
        <CharString name="brokenbar">
          -303 5 -21 702 -20 hstem
          90 59 vstem
          149 686 rmoveto
          -59 -294 59 hlineto
          -114 vmoveto
          -59 -294 59 hlineto
          endchar
        </CharString>
        <CharString name="bullet">
          52 190 -21 337 -20 hstem
          466 337 rmoveto
          46 -17 40 -33 33 vhcurveto
          33 -33 -40 17 -46 hhcurveto
          -46 -40 -17 -33 -33 hvcurveto
          -33 -33 -17 -40 -46 vvcurveto
          -46 17 -40 33 -33 vhcurveto
          -33 33 40 -16 46 hhcurveto
          46 40 16 33 33 hvcurveto
          33 33 17 40 46 vvcurveto
          endchar
        </CharString>
        <CharString name="c">
          102 callsubr
          hstemhm
          38 91 hintmask 01100000
          317 98 rmoveto
          -53 callgsubr
          -59 18 -48 36 -39 vhcurveto
          hintmask 10100000
          5 callsubr
        </CharString>
        <CharString name="cacute">
          102 callsubr
          356 -20 hstemhm
          38 91 hintmask 01110000
          231 656 -93 callsubr
          -1 -528 rmoveto
          -53 callgsubr
          -59 18 -48 36 -39 vhcurveto
          hintmask 10110000
          5 callsubr
        </CharString>
        <CharString name="caron">
          -161 487 -21 182 -20 hstem
          303 645 -79 callgsubr
          endchar
        </CharString>
        <CharString name="ccaron">
          102 callsubr
          347 -20 hstemhm
          38 91 hintmask 01110000
          339 644 -79 callgsubr
          -81 -488 rmoveto
          -53 callgsubr
          -59 18 -48 36 -39 vhcurveto
          hintmask 10110000
          5 callsubr
        </CharString>
        <CharString name="ccedilla">
          -174 82 221 hstem
          32 91 vstem
          276 -133 rmoveto
          4 11 2 11 11 vvcurveto
          31 -15 24 -30 16 vhcurveto
          17 22 19 1 16 3 15 5 rlinecurve
          9 3 11 4 15 7 -28 85 rcurveline
          -53 callgsubr
          -96 54 -81 89 -21 vhcurveto
          -30 -17 -7 -15 2 hhcurveto
          36 -4 21 -23 -5 -25 rrcurveto
          -15 -3 -12 -7 -20 hhcurveto
          -11 -11 2 4 -9 hvcurveto
          -24 -64 7 -6 18 -4 30 -3 rlinecurve
          17 -1 18 2 19 7 27 11 17 17 8 24 rrcurveto
          endchar
        </CharString>
        <CharString name="ccircumflex">
          102 callsubr
          350 -20 hstemhm
          38 91 hintmask 01110000
          379 526 -100 callgsubr
          -3 -370 rmoveto
          -53 callgsubr
          -59 18 -48 36 -39 vhcurveto
          hintmask 10110000
          5 callsubr
        </CharString>
        <CharString name="cdotaccent">
          -171 -12 91 382 94 hstem
          38 91 38 93 vstem
          260 510 -11 callsubr
          57 -412 rmoveto
          -53 callgsubr
          -59 18 -48 36 -39 vhcurveto
          5 callsubr
        </CharString>
        <CharString name="cedilla">
          -141 -193 77 -77 204 1 -20 hstemhm
          hintmask 01000000
          286 -135 rmoveto
          5 13 2 12 12 vvcurveto
          31 -15 23 -29 15 vhcurveto
          20 40 rlineto
          hintmask 10100000
          -86 1 rlineto
          -40 -22 -10 -20 33 callgsubr
        </CharString>
        <CharString name="cent">
          -128 608 -20 hstem
          57 90 vstem
          211 206 rmoveto
          -43 19 -21 34 47 vvcurveto
          1 65 29 36 59 9 rrcurveto
          100 -200 rmoveto
          -13 -27 -27 -7 -27 hhcurveto
          -4 -4 0 1 -3 hvcurveto
          26 220 20 -1 20 -4 21 -8 rlinecurve
          17 93 -25 7 -22 3 -21 1 rlinecurve
          12 100 rlineto
          -33 hlineto
          -12 -100 -55 -4 -46 -20 -35 -36 rlinecurve
          -35 -36 -18 -46 -1 -56 -1 -48 13 -42 25 -36 26 -38 35 -24 45 -11 -14 -111 rcurveline
          1 -3 11 0 21 3 7 58 5 35 2 13 9 -1 126 callgsubr
          1 21 3 18 5 10 3 13 6 17 7 rrcurveto
          endchar
        </CharString>
        <CharString name="ch202">
          -292 endchar
        </CharString>
        <CharString name="chi">
          -69 385 -20 hstem
          503 -99 rmoveto
          -6 -18 -14 -3 -9 hhcurveto
          -11 -11 3 5 -11 hvcurveto
          -11 5 -18 29 -25 54 -39 85 -21 45 -3 6 73 125 47 79 23 35 -88 22 rcurveline
          -45 -81 -34 -60 -24 -41 -33 61 -18 34 -5 7 -20 33 -17 19 -13 7 -25 12 -39 4 -55 -4 1 -97 rcurveline
          31 4 23 -2 17 -8 5 -3 8 -11 11 -19 23 -41 24 -42 23 -41 -78 -127 -57 -89 -36 -52 30 -15 29 -14 29 -12 59 102 44 75 29 47 21 -47 21 -48 21 -47 rrcurveto
          19 -37 20 -24 22 -10 15 -7 24 -3 33 -1 30 -1 18 2 5 4 rrcurveto
          endchar
        </CharString>
        <CharString name="circumflex">
          -138 484 -21 185 -20 hstem
          380 524 rmoveto
          -59 42 -60 41 -60 41 -177 -124 rcurveline
          49 -61 58 40 43 29 28 19 rlinecurve
          50 -36 40 -28 29 -21 59 58 rcurveline
          endchar
        </CharString>
        <CharString name="colon">
          -253 -10 135 136 135 hstem
          86 135 vstem
          221 329 rmoveto
          89 callsubr
          -271 vmoveto
          89 callsubr
          endchar
        </CharString>
        <CharString name="colonmonetary">
          16 -51 -21 22 -21 61 127 520 -20 69 -20 hstemhm
          33 137 hintmask 10111100
          202 195 rmoveto
          -21 33 -11 38 43 vvcurveto
          55 13 46 26 37 vhcurveto
          23 33 29 21 36 9 rrcurveto
          -36 -372 rmoveto
          -11 7 -11 9 -10 9 105 352 rcurveline
          14 14 -1 -3 13 hvcurveto
          70 -332 rmoveto
          -4 -17 -6 -12 -7 -7 -14 -15 -27 -8 -41 -3 -17 -1 -18 3 -18 5 113 377 rcurveline
          13 -6 9 -6 3 -6 2 -3 3 -11 4 -17 rrcurveto
          78 hlineto
          -10 89 -5 53 17 vvcurveto
          -9 -2 -21 2 -32 6 21 69 rcurveline
          -34 hlineto
          -19 -62 -19 5 -13 4 -7 1 rlinecurve
          15 52 rlineto
          -34 hlineto
          -7 -25 -5 -17 -3 -7 rrcurveto
          -4 hlineto
          -91 1 -74 -32 -56 -64 rrcurveto
          -52 -61 -26 -76 -92 vvcurveto
          -105 45 -101 79 -60 vhcurveto
          -36 -119 rlineto
          37 hlineto
          30 98 11 -6 11 -5 12 -5 rlinecurve
          hintmask 01111100
          -25 -81 rlineto
          38 hlineto
          21 70 rlineto
          -6 22 24 -3 25 hhcurveto
          35 33 4 9 31 hvcurveto
          36 9 28 4 19 -3 rrcurveto
          17 5 56 10 93 vhcurveto
          endchar
        </CharString>
        <CharString name="comma">
          -336 -100 -21 142 -21 67 -20 hstemhm
          56 106 vstemhm
          162 67 114 callsubr
          hintmask 11110000
          -50 callgsubr
          endchar
        </CharString>
        <CharString name="commaaccent">
          -399 -279 -21 188 -20 hstemhm
          25 106 vstemhm
          131 -112 114 callsubr
          hintmask 11100000
          -50 callgsubr
          endchar
        </CharString>
        <CharString name="congruent">
          -42 152 55 74 55 87 57 5 57 13 -20 hstemhm
          hintmask 11101000
          452 555 rmoveto
          -50 -28 -33 -25 -37 hhcurveto
          -17 -33 10 21 -49 hvcurveto
          hintmask 11110000
          21 -49 -36 10 -23 hhcurveto
          -28 -26 -11 -23 -24 hvcurveto
          -15 -13 -17 -23 -21 -33 33 -35 rcurveline
          17 27 14 18 10 9 rrcurveto
          18 18 20 9 21 hhcurveto
          13 23 -6 -13 31 hvcurveto
          -29 74 47 -14 19 hhcurveto
          50 43 33 65 35 hvcurveto
          hintmask 11101000
          1 -185 rmoveto
          -470 -55 470 hlineto
          -74 vmoveto
          -470 -55 470 hlineto
          endchar
        </CharString>
        <CharString name="copyright">
          206 -17 57 -57 188 327 52 84 58 hstemhm
          19 58 119 61 414 58 hintmask 01111110
          449 208 rmoveto
          -4 -13 -3 -8 -3 -4 rrcurveto
          1 vlineto
          -9 -8 -16 -4 -24 hhcurveto
          -39 -33 17 33 -26 hvcurveto
          -25 31 -11 36 42 vvcurveto
          45 11 40 22 30 vhcurveto
          24 33 32 19 40 1 24 1 20 -5 8 -8 4 -8 1 -8 2 -10 rrcurveto
          46 hlineto
          -4 33 -2 24 17 vvcurveto
          -6 -13 2 5 -21 hvcurveto
          6 -27 -20 3 -10 hhcurveto
          -58 -50 -24 -42 -35 hvcurveto
          -31 -40 -18 -53 -60 vvcurveto
          -50 15 -46 28 -40 vhcurveto
          -1 hlineto
          29 -42 40 -24 50 -10 45 -2 rcurveline
          25 3 14 3 8 2 17 4 10 3 13 -3 rrcurveto
          19 2 25 4 35 vhcurveto
          176 129 rmoveto
          -81 -29 -70 -59 -59 vhcurveto
          hintmask 10111110
          -3 callsubr
        </CharString>
        <CharString name="currency">
          -42 112 45 -35 -21 392 47 11 -20 hstemhm
          34 58 318 56 hintmask 10011100
          466 326 rmoveto
          51 -15 44 -31 37 vhcurveto
          45 45 -2 1 -9 8 -16 15 rlinecurve
          -15 15 -8 8 1 1 -41 -51 rcurveline
          hintmask 10101100
          -38 28 -42 13 -45 -1 -48 -1 -42 -13 -35 -26 rrcurveto
          hintmask 01011100
          -41 51 1 -1 -9 -8 -17 -16 rlinecurve
          -15 -14 -8 -8 -1 -1 45 -45 rcurveline
          -31 -37 -15 -44 -51 vvcurveto
          -51 15 -44 31 -37 vhcurveto
          -45 -45 -1 -1 7 -9 17 -16 rlinecurve
          9 -7 8 -8 9 -7 41 51 rcurveline
          hintmask 10101100
          -27 37 41 -13 47 hhcurveto
          46 42 13 27 37 hvcurveto
          hintmask 01101100
          41 -51 3 2 8 8 14 13 rlinecurve
          17 15 8 9 -1 1 -45 45 rcurveline
          31 37 15 44 51 vvcurveto
          -56 -1 rmoveto
          -47 -16 -39 -32 -33 vhcurveto
          hintmask 10101100
          -33 -32 -37 -16 -42 hhcurveto
          -43 -37 16 32 -32 hvcurveto
          -31 33 -16 40 47 vvcurveto
          46 16 39 31 33 vhcurveto
          33 32 37 17 43 hhcurveto
          42 37 -17 -33 32 hvcurveto
          32 -33 16 -39 -46 vvcurveto
          endchar
        </CharString>
        <CharString name="d">
          -68 -7 89 -61 -21 304 89 232 -20 hstemhm
          38 94 189 93 hintmask 10111100
          318 -21 callsubr
          endchar
        </CharString>
        <CharString name="dagger">
          -48 -200 -21 584 92 169 -20 hstem
          203 104 vstem
          481 351 rmoveto
          -8 37 0 40 8 42 -17 -7 -18 -5 -20 -1 -10 -1 -40 0 -69 -1 rrcurveto
          62 0 37 1 13 vhcurveto
          1 17 4 19 7 21 -27 -9 -43 0 -60 9 7 -16 5 -18 1 -19 rrcurveto
          -115 vlineto
          -68 -39 0 1 -11 hvcurveto
          -21 1 -18 5 -17 7 11 -36 0 -40 -11 -43 22 7 20 4 18 1 10 1 38 0 66 -1 rrcurveto
          -470 vlineto
          50 -114 54 114 rlineto
          470 vlineto
          66 1 38 0 10 -1 18 -1 20 -4 22 -7 rrcurveto
          endchar
        </CharString>
        <CharString name="daggerdbl">
          -42 -208 -21 185 74 345 74 185 -20 hstem
          195 86 vstem
          195 30 rmoveto
          -1 -31 -8 1 -18 hhcurveto
          -15 -10 0 1 -5 hvcurveto
          -20 1 -23 6 -29 9 rrcurveto
          -9 -23 -4 -18 -15 vvcurveto
          -12 4 -18 10 -24 vhcurveto
          25 11 22 6 18 1 rrcurveto
          1 9 26 0 58 hhcurveto
          -101 vlineto
          -1 -22 -7 -24 -10 -22 rrcurveto
          -11 23 19 -5 19 hhcurveto
          19 18 5 10 22 hvcurveto
          -10 28 -5 23 22 vvcurveto
          -1 13 0 38 47 vvcurveto
          21 2 -1 17 hhcurveto
          28 17 0 -1 7 hvcurveto
          19 -1 22 -6 23 -10 rrcurveto
          11 23 5 17 13 vvcurveto
          17 -5 17 -10 22 vhcurveto
          -29 -9 -24 -6 -18 -1 rrcurveto
          -1 -5 -9 0 -15 hhcurveto
          -15 -20 -1 1 -22 hvcurveto
          345 vlineto
          1 31 8 -1 18 hhcurveto
          15 9 0 -1 5 hvcurveto
          18 -1 24 -6 29 -8 rrcurveto
          10 21 5 18 16 vvcurveto
          13 -5 17 -11 23 vhcurveto
          -23 -10 -22 -6 -19 -1 rrcurveto
          -1 -7 -17 0 -28 -13 -12 -1 -15 hhcurveto
          63 0 21 1 14 vhcurveto
          22 5 24 10 27 vhcurveto
          11 -22 -18 4 -19 hhcurveto
          -19 -19 -4 -12 -23 hvcurveto
          10 -22 7 -23 1 -22 rrcurveto
          -102 vlineto
          -48 -37 0 1 -8 hvcurveto
          -18 1 -22 6 -25 11 rrcurveto
          -10 -24 -4 -18 -12 vvcurveto
          -15 4 -18 9 -22 vhcurveto
          29 8 23 6 20 1 rrcurveto
          1 5 10 0 15 hhcurveto
          14 20 1 -1 23 hvcurveto
          endchar
        </CharString>
        <CharString name="dcaron">
          -73 -7 89 -61 -21 304 89 275 -20 hstemhm
          32 94 189 93 hintmask 10111100
          312 -21 callsubr
          210 549 -93 callsubr
          endchar
        </CharString>
        <CharString name="dcroat">
          -73 -7 89 -61 -21 304 89 86 33 -33 146 hstemhm
          32 94 191 91 hintmask 10110110
          479 512 rmoveto
          -71 hlineto
          hintmask 10101110
          1 47 2 38 3 28 rrcurveto
          -102 hlineto
          hintmask 10110110
          3 -36 1 -38 1 -39 rrcurveto
          -90 -33 90 hlineto
          -61 0 -38 1 -15 vhcurveto
          19 -23 -30 9 -36 hhcurveto
          -121 -76 -81 -120 -62 19 -49 37 -37 hvcurveto
          38 -36 49 -17 61 2 43 1 33 12 21 23 rrcurveto
          hintmask 01110110
          12 -29 rlineto
          67 hlineto
          -3 71 -1 116 161 vvcurveto
          131 71 vlineto
          -162 -360 rmoveto
          hintmask 10110110
          -25 -22 -27 -12 -33 hhcurveto
          -31 -26 9 18 -20 hvcurveto
          -22 20 -11 28 1 36 rrcurveto
          65 1 44 46 63 hhcurveto
          34 27 -12 -24 21 hvcurveto
          1 -62 0 -50 -37 vvcurveto
          endchar
        </CharString>
        <CharString name="degree">
          -194 382 35 188 35 hstem
          40 56 156 56 vstem
          308 511 rmoveto
          38 -13 31 -26 24 vhcurveto
          24 -26 -32 12 -37 hhcurveto
          -37 -32 -12 -24 -26 hvcurveto
          -26 -24 -13 -31 -38 vvcurveto
          -39 13 -32 27 -24 vhcurveto
          -23 25 31 -11 38 hhcurveto
          76 58 50 79 hvcurveto
          -56 hmoveto
          -56 -33 -38 -45 -45 -33 38 56 56 33 38 45 45 33 -38 -56 vhcurveto
          endchar
        </CharString>
        <CharString name="delta">
          -98 -8 94 442 80 hstemhm
          33 94 -64 100 157 92 hintmask 11011000
          412 189 rmoveto
          69 -32 58 -63 47 vhcurveto
          -27 17 -26 18 -26 17 -34 23 -22 18 -9 15 rrcurveto
          -7 11 -3 9 8 vvcurveto
          19 16 9 33 1 vhcurveto
          26 1 26 -6 26 -12 19 -9 28 -18 37 -25 23 83 rcurveline
          -15 9 -14 9 -15 9 -27 15 -29 10 -30 7 rrcurveto
          5 -21 -22 2 -21 hhcurveto
          -37 -31 -7 -15 -24 hvcurveto
          -31 -19 -16 -28 -1 -38 -1 -48 39 -48 79 -48 -40 -3 -34 -18 -29 -34 rrcurveto
          hintmask 11101000
          -29 -33 -14 -38 -1 -42 -1 -59 18 -47 35 -37 rrcurveto
          -36 35 48 -18 59 hhcurveto
          56 45 20 39 35 hvcurveto
          33 37 16 46 55 vvcurveto
          -92 3 rmoveto
          -61 -42 -45 -51 -29 -24 9 17 -18 vhcurveto
          -20 19 -10 27 1 34 1 29 11 27 23 23 rrcurveto
          23 23 24 12 25 hhcurveto
          23 -7 20 -15 17 -23 rrcurveto
          17 -23 9 -23 -23 vvcurveto
          endchar
        </CharString>
        <CharString name="delta.alt">
          -71 0 88 -74 -21 407 116 hstemhm
          hintmask 01100000
          321 394 rmoveto
          -31 85 -51 41 -71 -4 -65 -3 -44 -39 -22 -74 79 -63 rcurveline
          4 11 4 10 4 11 rrcurveto
          21 10 13 10 15 hhcurveto
          39 13 -12 -45 9 hvcurveto
          -123 -256 -13 -5 -25 1 -36 9 rlinecurve
          -99 vlineto
          hintmask 10100000
          5 31 37 2 41 hhcurveto
          323 hlineto
          -242 88 rmoveto
          51 135 41 -135 rlineto
          endchar
        </CharString>
        <CharString name="dialytika">
          -220 463 79 callgsubr
          12 107 88 103 hintmask 10110000
          310 31 callgsubr
          hintmask 01110000
          -66 callgsubr
          endchar
        </CharString>
        <CharString name="dieresis">
          -229 466 79 callgsubr
          1 107 88 103 hintmask 10110000
          299 519 -73 callsubr
          hintmask 01110000
          -66 callgsubr
          endchar
        </CharString>
        <CharString name="dieresistonos">
          -146 459 96 callsubr
          512 15 callsubr
        </CharString>
        <CharString name="divide">
          52 10 113 105 55 105 114 hstem
          241 114 vstem
          355 444 rmoveto
          31 -27 27 -31 -29 -27 -27 -31 -29 27 -27 29 31 27 25 31 vhcurveto
          188 -161 rmoveto
          -494 -55 494 hlineto
          -188 -161 rmoveto
          29 -27 27 -31 -29 -27 -27 -29 -31 27 -26 29 32 26 25 32 vhcurveto
          endchar
        </CharString>
        <CharString name="dollar">
          -51 -93 -21 749 -20 106 -20 hstemhm
          22 245 -231 122 62 47 -47 209 -93 133 hintmask 11101101
          268 250 rmoveto
          45 -21 23 -26 -31 vvcurveto
          -37 -30 -25 -39 -4 vhcurveto
          -47 282 rmoveto
          -41 18 -21 23 29 vvcurveto
          9 2 10 5 10 vhcurveto
          10 19 18 12 27 5 rrcurveto
          49 -637 rmoveto
          -1 59 -1 34 9 vvcurveto
          57 3 47 17 37 30 rrcurveto
          41 33 20 44 55 vvcurveto
          49 -20 43 -39 37 vhcurveto
          -35 33 -48 25 -59 16 rrcurveto
          154 4 vlineto
          22 -1 17 -4 13 -9 13 -12 18 -7 7 -39 rrcurveto
          hintmask 11101010
          67 152 hlineto
          -9 -2 -22 3 -33 7 rrcurveto
          13 -62 -32 7 -2 hhcurveto
          86 -50 -89 vlineto
          -123 -15 -61 -64 1 -111 1 -46 19 -37 37 -29 24 -19 42 -20 61 -23 1 -159 rcurveline
          -45 7 -34 13 -24 20 -15 13 -9 15 -3 17 rrcurveto
          hintmask 11110001
          -69 -161 hlineto
          5 1 15 -2 24 -5 21 -6 20 -6 21 -7 37 -10 31 -6 25 -3 rrcurveto
          -20 -1 -34 -1 -49 vhcurveto
          endchar
        </CharString>
        <CharString name="dotaccent">
          -400 483 94 hstem
          25 93 vstem
          118 532 -11 callsubr
          endchar
        </CharString>
        <CharString name="dotbelowcomb">
          -412 -182 106 hstem
          12 106 vstem
          118 -129 21 callsubr
        </CharString>
        <CharString name="dotlessi">
          -367 20 -21 390 -20 hstem
          41 96 vstem
          137 -37 callsubr
          96 hlineto
          endchar
        </CharString>
        <CharString name="e">
          14 callsubr
          107 callgsubr
          425 165 -97 callgsubr
        </CharString>
        <CharString name="eacute">
          14 callsubr
          262 -20 107 callgsubr
          248 656 -93 callsubr
          90 -461 -97 callgsubr
        </CharString>
        <CharString name="ebreve">
          14 callsubr
          74 56 85 -20 107 callgsubr
          351 608 -98 callgsubr
          33 -406 -97 callgsubr
        </CharString>
        <CharString name="ecaron">
          14 callsubr
          248 -20 107 callgsubr
          351 639 -79 callgsubr
          15 -416 -97 callgsubr
        </CharString>
        <CharString name="ecircumflex">
          14 callsubr
          251 -20 107 callgsubr
          410 521 -100 callgsubr
          74 -298 -97 callgsubr
        </CharString>
        <CharString name="edieresis">
          14 callsubr
          68 79 callgsubr
          38 103 -66 107 88 103 hintmask 11110011
          373 515 -73 callsubr
          hintmask 11101011
          -66 callgsubr
          243 -352 -55 callsubr
          hintmask 11110101
          -39 -39 -19 -46 -55 vvcurveto
          -136 82 -76 131 7 vhcurveto
          42 2 47 15 52 29 -60 78 rcurveline
          -17 -17 -25 -11 -32 -5 rrcurveto
          -2 -9 -8 -1 -8 hhcurveto
          -59 -30 29 58 -3 hvcurveto
          16 74 rmoveto
          8 42 27 21 46 1 rrcurveto
          39 28 -21 -43 17 hvcurveto
          endchar
        </CharString>
        <CharString name="edotaccent">
          14 callsubr
          72 94 hstem
          38 103 48 93 vstem
          282 515 -11 callsubr
          143 -350 -97 callgsubr
        </CharString>
        <CharString name="egrave">
          14 callsubr
          261 -20 107 callgsubr
          223 655 -68 callsubr
          158 -316 -97 callgsubr
        </CharString>
        <CharString name="eight">
          -7 -17 102 461 97 hstemhm
          42 119 -85 111 172 111 -92 117 hintmask 11100100
          495 181 rmoveto
          1 41 -12 37 -23 33 -23 34 -29 21 -37 7 rrcurveto
          hintmask 11011000
          60 13 38 53 71 vvcurveto
          50 -21 39 -43 27 vhcurveto
          24 -37 -45 12 -52 hhcurveto
          -47 -43 -12 -23 -38 hvcurveto
          -45 -27 -22 -35 -1 -45 -2 -77 33 -50 68 -24 -37 -5 -32 -18 -25 -33 rrcurveto
          hintmask 11100100
          -25 -33 -13 -35 -1 -39 rrcurveto
          -56 19 -47 37 -38 vhcurveto
          -42 41 56 -21 71 hhcurveto
          71 56 21 42 43 hvcurveto
          38 37 20 45 1 53 rrcurveto
          hintmask 11011000
          -136 297 rmoveto
          -41 -32 -37 -53 -3 vhcurveto
          -48 3 -39 36 41 vvcurveto
          21 10 18 20 13 vhcurveto
          11 17 18 6 19 hhcurveto
          59 29 -23 -45 hvcurveto
          hintmask 11100100
          19 -296 rmoveto
          -53 -46 -44 -60 -33 -27 11 21 -21 vhcurveto
          -20 19 -10 22 24 vvcurveto
          60 45 46 67 13 vhcurveto
          70 -17 35 -40 -62 vvcurveto
          endchar
        </CharString>
        <CharString name="eightinferior">
          -167 -11 57 -57 233 84 55 hstemhm
          60 68 callgsubr
          hintmask 10110010
          314 101 55 callsubr
          hintmask 10101100
          -46 callgsubr
          hintmask 01110010
          -41 -5 -33 -43 -44 vvcurveto
          -1 -31 11 -27 21 -21 rrcurveto
          -24 23 32 -12 39 hhcurveto
          40 32 12 24 24 hvcurveto
          21 21 11 25 1 30 rrcurveto
          -76 167 rmoveto
          -29 -16 -15 -32 -2 vhcurveto
          hintmask 10101100
          -36 callgsubr
          hintmask 10110100
          1 callgsubr
        </CharString>
        <CharString name="eightsuperior">
          -154 262 57 -57 233 84 55 hstemhm
          70 68 callgsubr
          hintmask 10110010
          324 374 55 callsubr
          hintmask 10101100
          -46 callgsubr
          hintmask 01110010
          -41 -5 -33 -43 -44 vvcurveto
          -1 -31 11 -27 21 -21 rrcurveto
          -24 23 32 -12 39 hhcurveto
          40 32 12 24 24 hvcurveto
          21 21 11 25 1 30 rrcurveto
          -76 167 rmoveto
          -29 -16 -15 -32 -2 vhcurveto
          hintmask 10101100
          -36 callgsubr
          hintmask 10110100
          1 callgsubr
        </CharString>
        <CharString name="ellipsis">
          340 -16 127 hstem
          102 128 177 128 167 128 vstem
          830 48 rmoveto
          49 callgsubr
          -295 hmoveto
          49 callgsubr
          -305 hmoveto
          49 callgsubr
          endchar
        </CharString>
        <CharString name="emacron">
          14 callsubr
          70 61 107 callgsubr
          381 525 35 callgsubr
          44 -299 -97 callgsubr
        </CharString>
        <CharString name="emdash">
          1 211 62 hstem
          543 273 rmoveto
          -543 -62 543 hlineto
          endchar
        </CharString>
        <CharString name="endash">
          -20 210 52 hstem
          629 262 rmoveto
          -537 -52 537 hlineto
          endchar
        </CharString>
        <CharString name="eng">
          -98 -201 -21 243 -21 304 91 hstem
          46 97 167 100 vstem
          410 196 rmoveto
          133 -50 66 -99 -57 -40 -18 -37 -23 vhcurveto
          2 15 2 16 1 17 rrcurveto
          -104 hlineto
          1 -18 2 -16 1 -14 rrcurveto
          -40 callsubr
          rrcurveto
          -172 vlineto
          -19 -1 -28 -1 -39 vhcurveto
          -1 -35 -14 -15 -27 4 -11 1 -16 9 -21 17 -13 -45 -10 -31 -5 -17 23 -7 16 -6 8 -5 rrcurveto
          -4 11 14 -2 16 hhcurveto
          55 37 19 39 17 hvcurveto
          12 27 7 28 3 31 1 12 1 30 -1 48 rrcurveto
          endchar
        </CharString>
        <CharString name="eogonek">
          -107 -200 -21 386 74 64 91 hstem
          25 103 25 78 vstem
          412 165 -55 callsubr
          -39 -39 -19 -46 -55 vvcurveto
          -119 63 -73 104 -12 vhcurveto
          -26 -31 -13 -43 -55 -28 callgsubr
          -26 58 -21 -19 -16 -10 -12 -1 rlinecurve
          -23 -1 -24 18 29 vvcurveto
          35 23 37 45 37 vhcurveto
          21 6 27 12 32 18 -60 78 rcurveline
          -17 -17 -25 -11 -32 -5 rrcurveto
          -2 -9 -8 -1 -8 hhcurveto
          -59 -30 29 58 -3 hvcurveto
          16 74 rmoveto
          8 42 27 21 46 1 rrcurveto
          39 28 -21 -43 17 hvcurveto
          endchar
        </CharString>
        <CharString name="epsilon">
          -207 82 callsubr
          105 callgsubr
          hintmask 11010000
          38 callgsubr
          hintmask 11100000
          -87 callsubr
          endchar
        </CharString>
        <CharString name="epsilontonos">
          -207 82 callsubr
          239 -20 105 callgsubr
          hintmask 11101000
          180 637 -93 callsubr
          -4 -503 -51 callgsubr
          hintmask 11110000
          -87 callsubr
          endchar
        </CharString>
        <CharString name="equal">
          246 131 90 84 89 hstem
          670 394 rmoveto
          -552 -89 552 hlineto
          -84 vmoveto
          -552 -90 552 hlineto
          endchar
        </CharString>
        <CharString name="equivalence">
          -67 55 50 66 50 66 50 hstem
          cntrmask 11100000
          462 337 rmoveto
          -424 -50 424 hlineto
          -66 vmoveto
          -424 -50 424 hlineto
          -66 vmoveto
          -424 -50 424 hlineto
          endchar
        </CharString>
        <CharString name="estimated">
          292 -9 42 296 42 292 42 hstem
          13 168 482 162 vstem
          825 329 rmoveto
          -3 70 -13 59 -23 49 rrcurveto
          128 -61 -131 70 -176 hhcurveto
          -74 -68 -14 -27 -61 hvcurveto
          -129 -56 -73 -117 -143 vvcurveto
          -107 40 -88 81 -67 vhcurveto
          -63 75 93 -32 110 hhcurveto
          76 65 11 21 53 hvcurveto
          58 23 52 39 47 54 rrcurveto
          -102 hlineto
          -39 -38 -36 -26 -31 -15 rrcurveto
          -18 -37 -43 -9 -50 hhcurveto
          -93 -81 35 71 -70 hvcurveto
          190 vlineto
          42 vmoveto
          179 vlineto
          75 58 79 38 101 hhcurveto
          49 45 -9 -18 43 hvcurveto
          48 -20 36 -29 23 -37 rrcurveto
          -179 vlineto
          endchar
        </CharString>
        <CharString name="eta">
          -5 callgsubr
          66 callsubr
          -106 callgsubr
          endchar
        </CharString>
        <CharString name="etatonos">
          -5 callgsubr
          248 -20 66 callsubr
          280 638 -93 callsubr
          115 -426 rmoveto
          -1 140 -49 69 -99 -1 rrcurveto
          -32 -26 -7 -13 -19 hvcurveto
          -14 -9 -14 -17 -15 -23 rrcurveto
          46 -9 -23 23 -37 hhcurveto
          -18 -26 -11 -21 -33 hvcurveto
          -28 -18 -16 -12 -5 -7 35 -81 rcurveline
          28 17 16 14 15 hhcurveto
          5 4 -2 -5 3 hvcurveto
          7 -8 3 -30 -53 vvcurveto
          -27 -2 -66 -5 -105 vhcurveto
          102 hlineto
          27 callgsubr
          endchar
        </CharString>
        <CharString name="eth">
          -95 -6 52 callsubr
          246 -20 hstem
          22 58 callgsubr
          vstem
          427 196 rmoveto
          83 -40 90 -81 97 vhcurveto
          -21 25 -21 22 -21 21 110 57 rcurveline
          -9 20 -6 11 -1 1 -122 -64 rcurveline
          -29 26 -34 26 -38 25 -10 6 rcurveline
          -90 -47 47 -32 39 -29 33 -27 rlinecurve
          -108 -56 11 -21 4 -11 -1 -1 rlinecurve
          123 64 7 -3 11 -11 15 -17 rlinecurve
          17 -19 13 -19 10 -17 rrcurveto
          -9 hlineto
          -29 callgsubr
          11 callsubr
        </CharString>
        <CharString name="euro">
          176 0 89 125 88 28 89 140 89 hstem
          144 214 rmoveto
          -133 45 116 -81 144 hhcurveto
          83 72 26 53 62 hvcurveto
          104 vlineto
          -81 -73 -73 -13 -71 hhcurveto
          -90 -73 42 83 -48 hvcurveto
          314 hlineto
          38 88 rlineto
          -377 hlineto
          -1 12 1 2 14 vvcurveto
          389 hlineto
          36 89 rlineto
          -406 hlineto
          12 26 17 25 20 21 rrcurveto
          45 46 56 23 66 hhcurveto
          70 68 -36 -72 66 hvcurveto
          37 91 rlineto
          71 -70 -80 35 -91 hhcurveto
          -93 -77 -31 -63 -61 hvcurveto
          -39 -38 -26 -47 -14 -50 rrcurveto
          -68 hlineto
          -37 -89 rlineto
          92 hlineto
          -9 -1 -10 1 -9 vhcurveto
          -61 hlineto
          -37 -88 rlineto
          endchar
        </CharString>
        <CharString name="exclam">
          -314 -10 135 499 -20 hstemhm
          62 102 callgsubr
          hintmask 11010000
          67 624 13 callsubr
          hintmask 11001000
          3 -566 58 callsubr
        </CharString>
        <CharString name="exclamdbl">
          -103 -10 135 499 -20 hstemhm
          59 102 callgsubr
          63 102 callgsubr
          hintmask 11010100
          64 624 13 callsubr
          hintmask 11001100
          3 -566 rmoveto
          36 -32 31 -36 vhcurveto
          hintmask 11100100
          67 callsubr
          hvcurveto
          hintmask 11001010
          36 32 31 37 hvcurveto
          68 566 13 callsubr
          hintmask 11100001
          3 -566 rmoveto
          36 -32 31 -36 vhcurveto
          hintmask 11100100
          67 callsubr
          hvcurveto
          hintmask 11100001
          36 32 31 37 hvcurveto
          endchar
        </CharString>
        <CharString name="exclamdown">
          -249 5 -21 585 139 hstemhm
          68 156 -141 141 hintmask 11010000
          224 638 rmoveto
          40 -31 30 -40 -39 -31 -30 -40 -39 31 -30 39 39 32 32 37 vhcurveto
          11 -570 rmoveto
          13 -4 30 9 vvcurveto
          -60 387 rlineto
          -40 hlineto
          -59 -387 rlineto
          hintmask 11100000
          -9 -4 -30 -13 vvcurveto
          -20 7 -18 14 -17 vhcurveto
          -19 16 21 -10 25 hhcurveto
          29 22 10 19 15 hvcurveto
          12 16 6 18 21 vvcurveto
          endchar
        </CharString>
        <CharString name="f">
          -233 21 -21 309 80 246 -20 105 callsubr
          -90 210 hintmask 11110000
          345 53 callsubr
          -69 -42 -21 -43 -16 hvcurveto
          -11 -27 -4 -62 1 -96 75 callsubr
          hintmask 11101000
          9 3 22 2 35 71 callsubr
          hintmask 11100100
          73 -1 40 -3 7 -4 rrcurveto
          98 vlineto
          hintmask 11110000
          -7 -4 -40 -3 -73 -3 rrcurveto
          68 1 41 2 13 vhcurveto
          5 27 15 15 27 3 124 callsubr
          endchar
        </CharString>
        <CharString name="ff">
          -4 21 -21 310 79 246 -20 105 callsubr
          139 90 hintmask 11101100
          574 53 callsubr
          -58 -40 -16 -33 -21 hvcurveto
          -27 13 -19 8 -9 2 39 callgsubr
          hintmask 11110100
          99 callsubr
          hintmask 11101100
          20 callgsubr
          73 -1 40 -3 7 -4 rrcurveto
          98 vlineto
          -7 -4 -40 -3 -73 -3 rrcurveto
          68 1 41 2 13 vhcurveto
          5 27 15 15 27 3 22 2 22 -6 23 -13 22 -18 16 -14 9 -10 rrcurveto
          -254 2 rmoveto
          -1 -22 -1 -38 1 -53 -61 1 -46 1 33 callsubr
        </CharString>
        <CharString name="ffi">
          158 20 -21 22 -21 310 79 171 88 105 callsubr
          139 90 154 93 hintmask 10110111
          657 73 callsubr
          5 59 32 30 61 1 31 1 30 -8 30 -17 27 -15 17 111 callsubr
          -60 1 -63 -27 -33 -40 -20 13 -22 9 -24 5 39 callgsubr
          hintmask 10111011
          99 callsubr
          hintmask 01110111
          20 callgsubr
          66 1 51 1 37 1 rrcurveto
          hintmask 10111011
          2 -115 -1 -105 -4 -93 rrcurveto
          -241 500 rmoveto
          -1 -22 -1 -38 1 -53 -61 1 -46 1 33 callsubr
        </CharString>
        <CharString name="ffl">
          184 20 -21 22 -21 309 79 176 80 105 callsubr
          139 90 161 97 hintmask 01110111
          584 626 rmoveto
          12 -30 -34 6 -38 hhcurveto
          -68 -47 -19 -39 -26 hvcurveto
          -27 13 -19 8 -9 2 39 callgsubr
          hintmask 01111011
          99 callsubr
          hintmask 01110111
          9 3 22 2 35 71 callsubr
          23 -1 46 0 70 1 rrcurveto
          -7 vlineto
          -167 -2 -100 -4 -35 vhcurveto
          hintmask 10111011
          -1 98 vlineto
          36 callsubr
          -236 rmoveto
          -71 -54 0 1 -36 hvcurveto
          61 1 37 97 callsubr
          -251 -38 rmoveto
          -1 -22 -1 -37 1 -53 -61 1 -46 0 33 callsubr
        </CharString>
        <CharString name="fi">
          -71 20 -21 22 -21 309 80 171 88 105 callsubr
          153 94 hintmask 10111010
          428 73 callsubr
          4 59 33 30 61 1 31 1 30 -8 29 -17 27 -15 18 111 callsubr
          -38 1 -36 -9 -34 -19 -34 -19 -22 -23 -11 -27 -10 -27 -5 -56 1 -83 75 callsubr
          hintmask 01110110
          9 3 22 2 35 71 callsubr
          66 1 51 1 36 1 rrcurveto
          hintmask 10111010
          3 -115 -1 -105 -4 -93 rrcurveto
          96 hlineto
          endchar
        </CharString>
        <CharString name="figuredash">
          -42 213 58 hstem
          500 271 rmoveto
          -500 -58 500 hlineto
          endchar
        </CharString>
        <CharString name="five">
          -6 -13 101 -85 -21 357 98 63 123 -97 97 1 -20 hstemhm
          365 130 hintmask 10101010
          483 139 rmoveto
          8 29 4 28 26 vvcurveto
          77 -31 59 -62 41 vhcurveto
          25 -39 -53 13 -68 hhcurveto
          -23 -24 -1 -3 -25 hvcurveto
          -1 41 1 31 5 21 rrcurveto
          131 hlineto
          45 hlineto
          hintmask 10110010
          15 -2 9 -9 3 -15 rrcurveto
          80 hlineto
          -3 47 0 41 4 35 -85 -5 -69 -2 -53 1 rrcurveto
          hintmask 10100110
          -95 2 -67 2 -40 3 rrcurveto
          5 -19 2 -106 -191 vvcurveto
          72 hlineto
          2 4 4 8 6 5 9 3 rlinecurve
          7 25 25 4 25 hhcurveto
          41 32 -9 -19 25 hvcurveto
          28 -21 14 -30 -39 vvcurveto
          -9 -1 -8 -1 -9 vhcurveto
          -5 -37 -22 -28 -38 -19 rrcurveto
          -15 -33 -40 -8 -49 hhcurveto
          -51 -44 4 8 -39 hvcurveto
          hintmask 01110010
          -118 vlineto
          hintmask 10110010
          26 4 41 2 56 -1 56 -1 42 2 29 4 105 16 64 49 22 82 rrcurveto
          endchar
        </CharString>
        <CharString name="fiveeighths">
          265 -2 57 -57 233 -227 -21 282 59 -9 55 95 55 50 55 63 -20 hstemhm
          67 247 -73 73 185 68 callgsubr
          hintmask 1001011110101000
          307 353 -40 callgsubr
          -77 callsubr
          hintmask 0011011101100100
          -42 callsubr
          360 335 -55 callgsubr
          83 -573 55 callsubr
          hintmask 1000111110011000
          -46 callgsubr
          hintmask 0101011110100100
          -41 -5 -33 -43 -44 vvcurveto
          -1 -31 11 -27 21 -21 rrcurveto
          -24 23 32 -12 39 hhcurveto
          40 32 12 24 24 hvcurveto
          21 21 11 25 1 30 rrcurveto
          -76 167 rmoveto
          -29 -16 -15 -32 -2 vhcurveto
          hintmask 1000111110011000
          -36 callgsubr
          hintmask 1001011110101000
          1 callgsubr
        </CharString>
        <CharString name="fiveinferior">
          -167 -10 59 -39 -21 201 55 50 55 hstemhm
          86 247 -73 73 hintmask 10111000
          326 78 -40 callgsubr
          -77 callsubr
          hintmask 10110100
          70 callsubr
          hintmask 01111000
          -66 vlineto
          hintmask 10111000
          1 2 18 0 35 hhcurveto
          35 29 2 3 22 hvcurveto
          59 9 36 28 12 46 rrcurveto
          endchar
        </CharString>
        <CharString name="fivesuperior">
          -154 273 59 -39 -21 201 55 50 55 hstemhm
          75 247 -73 73 hintmask 10111000
          315 361 -40 callgsubr
          -77 callsubr
          hintmask 10110100
          70 callsubr
          hintmask 01111000
          -66 vlineto
          hintmask 10111000
          1 2 18 0 35 hhcurveto
          35 29 2 3 22 hvcurveto
          59 9 36 28 12 46 rrcurveto
          endchar
        </CharString>
        <CharString name="fl">
          -45 20 -21 309 79 177 80 hstem
          91 90 161 97 vstem
          355 626 rmoveto
          12 -30 -34 6 -38 hhcurveto
          -80 -50 -25 -49 -19 hvcurveto
          -10 -27 -4 -62 1 -96 rrcurveto
          -33 -22 2 4 -11 hvcurveto
          -88 vlineto
          9 3 22 2 35 1 rrcurveto
          -8 vlineto
          1 -167 -2 -100 -5 -35 rrcurveto
          98 hlineto
          36 callsubr
          -237 rmoveto
          -68 -54 0 1 -39 hvcurveto
          61 1 38 97 callsubr
          endchar
        </CharString>
        <CharString name="florin">
          -212 -202 -21 532 80 255 -20 hstem
          401 605 rmoveto
          -21 7 -15 6 -7 5 rrcurveto
          14 -30 -29 7 -29 hhcurveto
          -52 -40 -24 -49 -28 hvcurveto
          -17 -29 -17 -62 -19 -94 -33 -1 -22 2 -9 5 -19 -88 rcurveline
          10 3 23 2 35 1 -2 -8 rcurveline
          -47 -223 -30 -128 -11 -35 -12 -35 -18 -16 -23 3 -11 1 -14 9 -17 17 -23 -45 -16 -31 -9 -17 21 -7 15 -6 7 -5 rrcurveto
          -5 13 15 -2 19 hhcurveto
          54 39 20 40 24 hvcurveto
          13 20 20 68 28 116 25 107 19 89 13 72 72 -1 39 -3 7 -4 21 98 rcurveline
          -7 -4 -41 -3 -74 -3 15 75 10 42 3 9 11 27 19 15 27 3 33 3 34 -21 35 -45 23 108 rcurveline
          endchar
        </CharString>
        <CharString name="four">
          -5 22 -21 161 98 365 -20 hstemhm
          293 129 -129 197 hintmask 11101000
          490 271 rmoveto
          hintmask 11110000
          -30 -4 -23 -2 -15 -1 rrcurveto
          53 vlineto
          193 0 102 1 13 vhcurveto
          -2 -2 -34 0 -66 2 -21 -39 -52 -78 -85 -117 -35 -49 -41 -54 -45 -61 rrcurveto
          -65 vlineto
          105 1 83 0 63 -1 -1 -73 -2 -53 -3 -35 rrcurveto
          144 hlineto
          -3 71 -2 54 -1 35 rrcurveto
          hintmask 11101000
          36 -1 22 -2 7 -1 rrcurveto
          -194 103 rmoveto
          -49 -1 -33 0 -18 1 99 137 rcurveline
          1 4 0 -26 -56 vvcurveto
          endchar
        </CharString>
        <CharString name="fourinferior">
          -167 20 -21 351 -20 hstemhm
          186 73 -73 111 hintmask 11010000
          297 150 rmoveto
          hintmask 11100000
          0 callgsubr
          hintmask 11010000
          26 callgsubr
          endchar
        </CharString>
        <CharString name="foursuperior">
          -154 301 -21 351 -20 hstemhm
          198 73 -73 111 hintmask 11010000
          309 431 rmoveto
          hintmask 11100000
          0 callgsubr
          hintmask 11010000
          26 callgsubr
          endchar
        </CharString>
        <CharString name="fraction">
          -375 4 -21 705 -20 hstem
          326 688 -55 callgsubr
          endchar
        </CharString>
        <CharString name="franc">
          -46 108 callsubr
          83 124 hintmask 11010100
          536 -26 callsubr
        </CharString>
        <CharString name="g">
          49 callsubr
          122 callgsubr
          342 389 -85 callgsubr
        </CharString>
        <CharString name="gamma">
          60 -172 -21 597 -20 hstem
          497 397 rmoveto
          -16 -11 -24 -24 -31 -37 -49 -57 -43 -62 -37 -69 -6 65 -30 58 -54 51 -51 48 -59 31 -66 14 -16 -111 rcurveline
          58 -17 52 -35 45 -51 16 -19 14 -27 11 -35 10 -31 6 -28 1 -26 -9 -19 -8 -20 -7 -19 -21 -53 -16 -46 -10 -38 114 -22 rcurveline
          30 112 40 99 50 86 51 86 68 86 86 86 rrcurveto
          endchar
        </CharString>
        <CharString name="gbreve">
          49 callsubr
          71 56 85 -20 122 callgsubr
          355 607 -98 callgsubr
          -54 -181 -85 callgsubr
        </CharString>
        <CharString name="gcircumflex">
          49 callsubr
          252 -20 122 callgsubr
          402 524 -100 callgsubr
          -1 -77 -85 callgsubr
        </CharString>
        <CharString name="gcommaaccent">
          -101 -222 89 0 129 0 89 0 222 0 89 0 52 188 -20 hstemhm
          29 94 55 78 -78 106 31 90 hintmask 1010011101100000
          178 448 rmoveto
          106 67 hlineto
          hintmask 0100101101100000
          90 callsubr
          164 -120 rmoveto
          -12 -29 -21 23 -33 12 -43 1 rlinecurve
          -121 4 -82 -79 -1 -124 -1 -128 74 -76 124 3 41 1 29 10 19 17 rrcurveto
          -69 vlineto
          -65 -26 -23 -57 -39 -41 16 32 -42 vhcurveto
          -48 -95 17 -2 23 -7 29 -11 rlinecurve
          29 -12 26 -7 23 -2 rrcurveto
          hintmask 1001011110100000
          -1 8 8 0 7 hhcurveto
          51 41 14 28 31 hvcurveto
          33 30 17 42 54 vvcurveto
          9 0 25 -1 41 vhcurveto
          97 vlineto
          -1 45 0 46 -1 45 rrcurveto
          60 2 45 5 30 vhcurveto
          -95 -119 rmoveto
          -1 -56 0 -50 -43 vvcurveto
          -24 -21 -27 -12 -34 hhcurveto
          -63 -44 46 65 -1 hvcurveto
          -1 36 11 28 22 20 rrcurveto
          18 20 26 9 31 hhcurveto
          33 27 -12 -25 22 hvcurveto
          endchar
        </CharString>
        <CharString name="gdotaccent">
          49 callsubr
          64 94 hstem
          29 94 59 93 40 90 vstem
          275 509 -11 callsubr
          67 -120 -85 callgsubr
        </CharString>
        <CharString name="germandbls">
          -74 9 -21 33 -21 561 87 hstemhm
          6 156 -90 90 133 100 hintmask 01110100
          450 117 rmoveto
          -1 59 -31 41 -61 23 -30 12 -18 9 -7 5 -9 6 -5 10 -2 15 -2 12 13 21 28 29 33 34 21 32 9 29 rrcurveto
          5 16 2 16 17 vvcurveto
          40 -13 34 -25 27 vhcurveto
          -25 28 -32 15 -40 1 -41 1 -39 -5 -31 -15 -35 -17 -20 -28 -9 -33 -10 -39 -5 -55 1 -71 75 callsubr
          hintmask 01101100
          9 3 22 2 35 -34 callsubr
          2 167 rlineto
          61 1 25 30 51 hhcurveto
          36 -1 18 -22 -43 vvcurveto
          -5 0 -6 -1 -6 vhcurveto
          -2 -18 -18 -28 -33 -39 rrcurveto
          -33 -38 -16 -36 -34 vvcurveto
          -35 13 -28 27 -19 vhcurveto
          6 -4 28 -13 50 -23 22 -10 12 -15 3 -21 3 -27 -20 -21 -29 3 -17 2 -13 6 -8 9 -4 7 -4 6 -4 6 rrcurveto
          -64 hlineto
          hintmask 10110100
          -99 vlineto
          6 1 9 -1 11 -4 26 -9 16 -5 5 -1 rrcurveto
          -1 6 15 -1 24 hhcurveto
          39 1 33 12 27 23 27 23 14 31 -1 39 rrcurveto
          endchar
        </CharString>
        <CharString name="grave">
          -390 468 113 callsubr
          88 643 -68 callsubr
          endchar
        </CharString>
        <CharString name="gravecomb">
          -391 461 113 callsubr
          95 636 -68 callsubr
          endchar
        </CharString>
        <CharString name="greater">
          -34 -66 -21 732 -20 hstem
          459 304 rmoveto
          -342 341 2 -126 236 -237 -236 -237 -2 -132 342 345 rlineto
          endchar
        </CharString>
        <CharString name="greaterequal">
          -67 2 49 506 -20 hstem
          462 352 rmoveto
          -424 205 rlineto
          -56 vlineto
          359 -171 -359 -171 rlineto
          -56 vlineto
          424 205 rlineto
          -257 vmoveto
          -424 -49 424 hlineto
          endchar
        </CharString>
        <CharString name="guillemotleft">
          125 6 -21 478 -20 hstem
          557 93 63 callgsubr
          -210 108 63 callgsubr
          endchar
        </CharString>
        <CharString name="guillemotright">
          125 6 -21 478 -20 hstem
          589 255 60 callgsubr
          -210 62 60 callgsubr
          endchar
        </CharString>
        <CharString name="guilsinglleft">
          -244 -1 -21 445 -20 hstem
          274 337 rmoveto
          86 vlineto
          -250 -197 rlineto
          -51 vlineto
          250 -197 rlineto
          86 vlineto
          -53 42 -63 51 -54 43 rrcurveto
          endchar
        </CharString>
        <CharString name="guilsinglright">
          -244 -1 -21 445 -20 hstem
          194 200 rmoveto
          -54 -43 -63 -51 -53 -42 rrcurveto
          -86 vlineto
          250 197 rlineto
          51 vlineto
          -250 197 rlineto
          -86 vlineto
          endchar
        </CharString>
        <CharString name="h">
          -62 93 callgsubr
          230 -20 hstem
          60 95 169 100 vstem
          426 -1 callsubr
          101 hlineto
          endchar
        </CharString>
        <CharString name="hbar">
          -98 93 callgsubr
          61 73 -73 169 hstemhm
          46 95 169 100 hintmask 11101100
          72 callgsubr
          116 111 73 -111 vlineto
          hintmask 11011100
          1 25 1 32 3 39 rrcurveto
          -106 hlineto
          hintmask 11101100
          3 -29 2 -32 1 -35 rrcurveto
          -77 -73 77 -116 hlineto
          -40 callsubr
          1 -172 rcurveline
          101 hlineto
          endchar
        </CharString>
        <CharString name="hcircumflex">
          -98 93 callgsubr
          460 -20 hstem
          46 95 169 100 vstem
          412 -1 callsubr
          -42 731 51 callgsubr
        </CharString>
        <CharString name="hookabovecomb">
          -375 455 -21 201 -20 hstem
          154 573 rmoveto
          -106 callsubr
          endchar
        </CharString>
        <CharString name="hungarumlaut">
          -235 474 61 callsubr
          199 650 -93 callsubr
          -227 30 -93 callsubr
          endchar
        </CharString>
        <CharString name="hyphen">
          -229 173 84 hstem
          43 228 vstem
          271 257 rmoveto
          -228 -84 228 hlineto
          endchar
        </CharString>
        <CharString name="i">
          -342 17 -21 462 107 hstem
          56 96 vstem
          157 510 -1 callgsubr
          endchar
        </CharString>
        <CharString name="iacute">
          -367 20 -21 657 -20 hstem
          41 96 vstem
          137 -37 callsubr
          54 657 -93 callsubr
          endchar
        </CharString>
        <CharString name="ibreve">
          -367 20 -21 469 56 85 -20 hstem
          41 96 vstem
          137 -37 callsubr
          168 609 -98 callgsubr
          endchar
        </CharString>
        <CharString name="icircumflex">
          -234 20 -21 648 -20 hstem
          100 96 vstem
          196 -37 callsubr
          232 524 51 callgsubr
        </CharString>
        <CharString name="idieresis">
          -292 20 -21 465 106 2 -20 hstemhm
          -24 107 -3 96 -5 103 hintmask 11001000
          176 -37 callsubr
          hintmask 11010100
          194 518 rmoveto
          28 -24 25 -28 -28 -23 -26 -27 -28 23 -25 28 29 23 25 28 35 callsubr
          hintmask 10110100
          76 callsubr
          -25 -26 -27 -28 25 -24 29 28 25 25 27 vhcurveto
          endchar
        </CharString>
        <CharString name="igrave">
          -342 17 -21 659 -20 hstem
          56 96 vstem
          152 -4 rmoveto
          -5 129 0 130 5 131 rrcurveto
          -96 hlineto
          6 -119 0 -130 -6 -141 rrcurveto
          33 659 -68 callsubr
          endchar
        </CharString>
        <CharString name="ij">
          -181 -201 -21 239 -21 462 107 2 -20 hstemhm
          41 96 94 100 hintmask 11101100
          142 510 -1 callgsubr
          290 517 rmoveto
          hintmask 11011100
          28 -27 26 -28 -28 -26 -26 -28 -29 25 -24 29 28 27 25 28 vhcurveto
          -102 -124 -30 callgsubr
          endchar
        </CharString>
        <CharString name="imacron">
          -367 20 -21 465 61 hstem
          41 96 vstem
          137 -37 callsubr
          216 526 35 callgsubr
          endchar
        </CharString>
        <CharString name="infinity">
          136 42 53 -33 -21 227 52 hstemhm
          30 51 519 50 hintmask 10111000
          650 182 rmoveto
          79 -56 59 -79 -33 -32 -12 -23 -31 vhcurveto
          -11 -8 -26 -24 -42 -40 -41 39 -26 24 -12 8 rrcurveto
          24 -32 -32 12 -32 hhcurveto
          -79 -56 -59 -79 -84 51 -56 83 37 32 11 21 29 hvcurveto
          9 7 26 24 43 42 33 -33 33 -38 21 -12 rrcurveto
          hintmask 01111000
          -15 27 28 -8 30 hhcurveto
          77 61 53 88 hvcurveto
          -50 -3 rmoveto
          hintmask 10111000
          -55 -39 -29 -49 -23 -23 6 12 -21 vhcurveto
          -32 27 -24 23 -17 19 43 37 22 18 1 1 rrcurveto
          20 27 26 10 24 hhcurveto
          51 34 -37 -52 hvcurveto
          -292 3 rmoveto
          -35 -35 -21 -19 -6 -5 rrcurveto
          -19 -25 -26 -9 -27 hhcurveto
          -51 -36 33 51 49 33 39 49 26 26 -9 -19 27 hvcurveto
          endchar
        </CharString>
        <CharString name="integral">
          -212 -221 79 777 -20 hstem
          123 98 vstem
          376 53 callsubr
          -68 -42 -21 -43 -17 hvcurveto
          -9 -22 -4 -62 1 -101 2 -218 0 -120 -1 -23 -1 -64 -1 -41 -1 -17 -5 -32 -9 -12 -33 -1 -35 -1 -38 19 -41 41 rrcurveto
          -108 vlineto
          23 -7 16 -6 8 -5 rrcurveto
          -8 19 23 -4 27 hhcurveto
          73 45 21 43 16 hvcurveto
          9 25 4 61 -1 99 -1 361 rcurveline
          69 1 40 2 13 vhcurveto
          5 28 12 15 21 2 124 callsubr
          endchar
        </CharString>
        <CharString name="interrobang">
          -5 -13 136 393 117 hstemhm
          181 109 -109 130 42 141 hintmask 11101000
          492 97 callgsubr
          -39 31 -65 12 -92 -5 89 callgsubr
          45 8 45 26 52 hhcurveto
          28 23 -7 -13 18 hvcurveto
          21 -15 11 -22 -28 vvcurveto
          -12 -2 -13 -4 -13 vhcurveto
          -6 -20 -19 -29 -32 -39 3 59 2 33 2 7 rrcurveto
          -127 hlineto
          7 -16 4 -82 -149 vvcurveto
          -3 0 -3 -1 -3 vhcurveto
          129 hlineto
          1 23 15 27 29 33 29 29 28 30 28 29 31 37 18 35 4 33 rrcurveto
          hintmask 11011000
          -181 72 callsubr
        </CharString>
        <CharString name="intersection">
          -67 48 -21 449 45 hstem
          38 51 322 51 vstem
          462 335 rmoveto
          56 -22 46 -45 35 vhcurveto
          33 -41 -49 16 -57 hhcurveto
          -57 -48 -17 -33 -40 hvcurveto
          -43 -35 -22 -46 -55 vvcurveto
          -308 51 308 vlineto
          42 16 34 33 27 vhcurveto
          25 31 36 13 43 hhcurveto
          43 37 -12 -25 32 hvcurveto
          34 -27 17 -35 -42 vvcurveto
          -308 51 vlineto
          endchar
        </CharString>
        <CharString name="iogonek">
          -367 -200 -21 238 -21 462 107 hstemhm
          -23 78 -14 96 hintmask 11110000
          142 510 rmoveto
          29 -26 26 -29 -28 -25 -26 -29 -28 24 -25 29 1 vhcurveto
          29 26 25 27 hvcurveto
          9 -635 16 callgsubr
          35 21 35 43 35 vhcurveto
          hintmask 11101000
          18 hlineto
          -5 129 0 130 5 131 rrcurveto
          -96 hlineto
          5 -105 1 -123 -5 -141 rrcurveto
          hintmask 11110000
          -43 -35 -22 -52 -68 38 callsubr
        </CharString>
        <CharString name="iota">
          -252 106 73 callgsubr
          hintmask 01000000
          258 -24 callgsubr
          hintmask 10000000
          -98 callsubr
          hintmask 01000000
          6 callsubr
          endchar
        </CharString>
        <CharString name="iotadieresis">
          -252 391 72 0 79 callgsubr
          -2 107 1 73 callgsubr
          -65 103 hintmask 01010010
          296 31 callgsubr
          hintmask 10110100
          -66 callgsubr
          153 -406 -53 callsubr
          hintmask 10111000
          -98 callsubr
          hintmask 10110100
          6 callsubr
          endchar
        </CharString>
        <CharString name="iotadieresistonos">
          -302 465 106 65 -20 hstemhm
          -72 106 40 73 callgsubr
          -30 104 hintmask 11101000
          226 117 rmoveto
          -33 -18 -20 -8 -6 3 rrcurveto
          -2 1 -1 9 17 vvcurveto
          hintmask 11110100
          9 callgsubr
          hintmask 11101000
          37 9 23 9 11 9 rrcurveto
          hintmask 11110100
          74 487 -12 callsubr
          endchar
        </CharString>
        <CharString name="iotatonos">
          -252 644 -20 hstemhm
          106 73 callgsubr
          hintmask 10100000
          138 644 -93 callsubr
          33 -502 -53 callsubr
          hintmask 11000000
          -98 callsubr
          hintmask 10100000
          6 callsubr
          endchar
        </CharString>
        <CharString name="itilde">
          -367 20 -21 468 94 hstem
          41 96 vstem
          137 -37 callsubr
          235 564 rmoveto
          -25 15 -24 14 -25 13 rrcurveto
          -29 -1 -10 -15 -18 hhcurveto
          -23 -31 8 16 -39 hvcurveto
          -39 17 -31 55 callgsubr
          -18 -9 -17 -17 -21 -21 -12 -29 -3 -36 66 -23 rcurveline
          11 30 15 15 19 -1 rrcurveto
          17 26 -8 -17 35 hvcurveto
          -16 35 35 -8 35 hhcurveto
          46 29 32 64 12 hvcurveto
          endchar
        </CharString>
        <CharString name="j">
          -339 -201 -21 682 107 hstem
          71 100 vstem
          171 513 rmoveto
          28 -27 26 -28 -28 -26 -26 -28 -29 25 -24 29 28 27 25 28 vhcurveto
          -102 -124 -30 callgsubr
          endchar
        </CharString>
        <CharString name="jcircumflex">
          -378 -201 -21 869 -20 hstem
          43 92 vstem
          41 389 -30 callgsubr
          126 134 rmoveto
          -59 41 -60 42 -60 41 -177 -124 rcurveline
          49 -61 58 39 43 30 28 19 rlinecurve
          50 -37 40 -28 29 -20 rrcurveto
          endchar
        </CharString>
        <CharString name="k">
          -93 11 -21 24 -21 632 -20 hstemhm
          60 91 hintmask 01110000
          449 63 rmoveto
          -79 82 -55 56 -31 31 rrcurveto
          -1 43 42 83 87 hvcurveto
          -72 51 -87 -84 -63 -59 -40 -35 rlinecurve
          191 3 132 5 72 vhcurveto
          -104 hlineto
          5 -47 2 -108 -2 -169 rrcurveto
          -17 -1 -35 -2 -54 vhcurveto
          -2 -51 -1 -38 -25 vvcurveto
          -55 4 -29 8 -2 vhcurveto
          -1 3 5 -1 5 hhcurveto
          15 19 2 5 22 hvcurveto
          23 5 14 4 7 5 -15 14 -9 17 -2 21 rrcurveto
          -1 7 0 19 31 vvcurveto
          56 50 rlineto
          hintmask 10110000
          167 -183 74 73 rlineto
          endchar
        </CharString>
        <CharString name="kappa">
          -64 11 -21 25 -21 414 -20 hstemhm
          43 146 -95 95 hintmask 01101000
          479 63 rmoveto
          -80 82 -55 56 -30 31 rrcurveto
          -2 43 42 83 88 hvcurveto
          -72 51 -84 -83 -61 -58 -37 -32 rlinecurve
          4 67 2 47 -1 25 rrcurveto
          12 -18 9 -15 -3 vhcurveto
          -43 -1 -40 -6 -36 -10 3 -83 rcurveline
          1 7 2 4 11 hvcurveto
          4 9 7 2 5 hhcurveto
          5 5 4 -39 -1 hvcurveto
          -1 -31 -2 -30 -1 -31 rrcurveto
          -1 -1 -18 -2 -33 vhcurveto
          -2 -29 -1 -23 -18 vvcurveto
          -38 4 -20 8 -2 vhcurveto
          -1 3 5 0 5 hhcurveto
          15 18 2 4 22 hvcurveto
          23 5 15 4 7 5 -15 14 -9 17 -2 21 rrcurveto
          -1 7 0 19 31 vvcurveto
          56 50 rlineto
          hintmask 10110000
          167 -183 74 73 rlineto
          endchar
        </CharString>
        <CharString name="kcommaaccent">
          -93 -276 -21 311 -21 632 -20 hstemhm
          60 91 43 106 vstemhm
          300 -109 114 callsubr
          hintmask 11111000
          -50 callgsubr
          149 233 rmoveto
          -79 82 -55 56 -31 31 rrcurveto
          -1 43 42 83 87 hvcurveto
          -72 51 -87 -84 -63 -59 -40 -35 rlinecurve
          191 3 132 5 72 vhcurveto
          -104 hlineto
          5 -47 2 -108 -2 -169 rrcurveto
          -17 -1 -35 -2 -54 vhcurveto
          -2 -51 -1 -38 -25 vvcurveto
          -55 4 -29 8 -2 vhcurveto
          -1 3 5 -1 5 hhcurveto
          15 19 2 5 22 hvcurveto
          23 5 14 4 7 5 -15 14 -9 17 -2 21 rrcurveto
          -1 7 0 19 31 vvcurveto
          56 50 167 -183 rlineto
          endchar
        </CharString>
        <CharString name="l">
          -328 21 -21 625 -20 hstem
          60 97 vstem
          54 625 rmoveto
          -34 callgsubr
          endchar
        </CharString>
        <CharString name="lacute">
          -328 21 -21 902 -20 hstem
          60 97 vstem
          121 902 -93 callsubr
          -154 -247 rmoveto
          -34 callgsubr
          endchar
        </CharString>
        <CharString name="lambda">
          -87 21 -21 610 -20 hstem
          466 43 rmoveto
          -25 -1 -16 8 -9 16 -11 20 -14 45 -19 71 -24 92 -12 47 -1 2 -22 69 -16 46 -9 22 -29 67 -32 39 -35 12 rrcurveto
          8 -24 -24 4 -25 hhcurveto
          -47 -36 -10 -21 -24 hvcurveto
          32 -80 9 5 9 6 9 5 rlinecurve
          17 8 17 3 17 -2 25 -3 18 -10 12 -16 5 -7 7 -16 10 -27 -121 -293 -61 -149 -1 -3 rrcurveto
          109 hlineto
          41 107 40 107 39 107 8 -25 15 -61 22 -98 15 -65 15 -42 16 -21 7 -9 14 -6 21 -3 18 -3 13 1 7 3 23 9 28 29 -1 13 rrcurveto
          endchar
        </CharString>
        <CharString name="lcaron">
          -348 118 callgsubr
          49 97 vstem
          43 625 rmoveto
          -34 callgsubr
          91 41 -93 callsubr
          endchar
        </CharString>
        <CharString name="lcommaaccent">
          -328 -280 -21 188 113 625 -20 hstemhm
          60 101 -78 78 hintmask 11101000
          161 -113 rmoveto
          -106 -67 -50 callgsubr
          -107 799 rmoveto
          hintmask 11110000
          -34 callgsubr
          endchar
        </CharString>
        <CharString name="ldot">
          -222 21 -21 258 94 273 -20 hstem
          49 97 50 93 vstem
          43 625 rmoveto
          -34 callgsubr
          140 -318 -11 callsubr
          endchar
        </CharString>
        <CharString name="less">
          -49 -46 -21 692 -20 hstem
          411 45 rmoveto
          -234 237 234 237 2 106 -341 -321 rlineto
          -46 vlineto
          341 -325 rlineto
          endchar
        </CharString>
        <CharString name="lessequal">
          -67 1 49 505 -20 hstem
          462 157 rmoveto
          -359 172 359 171 rlineto
          55 vlineto
          -424 -204 rlineto
          -44 vlineto
          424 -205 rlineto
          -52 vmoveto
          -424 -49 424 hlineto
          endchar
        </CharString>
        <CharString name="logicaland">
          -42 21 -21 549 -20 hstem
          278 549 rmoveto
          -56 hlineto
          -207 -549 rlineto
          60 hlineto
          175 474 175 -474 rlineto
          60 hlineto
          endchar
        </CharString>
        <CharString name="logicalnot">
          -42 71 -21 206 49 hstem
          408 59 vstem
          467 305 rmoveto
          -434 -49 375 -206 59 hlineto
          endchar
        </CharString>
        <CharString name="logicalor">
          -42 21 -21 549 -20 hstem
          425 549 rmoveto
          -175 -474 -175 474 rlineto
          -60 hlineto
          207 -549 rlineto
          56 hlineto
          207 549 rlineto
          endchar
        </CharString>
        <CharString name="longs">
          49 callsubr
          260 -20 122 callgsubr
          254 656 -93 callsubr
          1 -237 -85 callgsubr
        </CharString>
        <CharString name="lozenge">
          -91 23 -21 578 -20 hstem
          242 580 rmoveto
          -48 hlineto
          -156 -285 156 -293 rlineto
          48 hlineto
          155 293 rlineto
          -179 -249 rmoveto
          -132 249 132 241 132 -241 rlineto
          endchar
        </CharString>
        <CharString name="lslash">
          -348 21 -21 625 -20 hstem
          49 95 vstem
          229 448 rmoveto
          -27 -16 -29 -16 -29 -17 rrcurveto
          105 2 76 3 45 vhcurveto
          -106 hlineto
          5 -47 2 -94 -1 -141 -114 -66 rcurveline
          35 -61 79 45 -1 -123 -1 -87 -2 -51 rlinecurve
          103 hlineto
          -3 -1 40 -1 83 vhcurveto
          -1 95 -1 65 36 vvcurveto
          121 69 rlineto
          endchar
        </CharString>
        <CharString name="m">
          180 21 -21 313 84 hstem
          58 92 165 91 165 95 vstem
          668 hmoveto
          -4 -1 30 -1 47 vhcurveto
          116 vlineto
          78 -11 55 -23 32 vhcurveto
          29 -20 -33 14 -47 hhcurveto
          -35 -34 -8 -17 -33 hvcurveto
          -24 -12 -16 -12 -9 -11 rrcurveto
          40 -19 -37 20 -54 hhcurveto
          -49 -42 -18 -35 -33 hvcurveto
          1 44 rlineto
          -92 hlineto
          1 -24 0 -16 1 -8 45 callsubr
          96 257 hlineto
          7 10 8 10 7 9 rrcurveto
          18 18 22 9 27 hhcurveto
          33 22 -12 -25 11 hvcurveto
          6 -15 3 -29 1 -42 1 -25 0 -29 -1 -33 rrcurveto
          -1 -44 0 -34 -25 vvcurveto
          93 hlineto
          -1 189 rlineto
          31 0 23 -1 16 vhcurveto
          10 9 10 10 10 9 rrcurveto
          15 21 24 7 27 hhcurveto
          29 19 -19 -39 9 hvcurveto
          4 -18 2 -36 1 -53 1 -63 -1 -48 -1 -34 98 1 rcurveline
          endchar
        </CharString>
        <CharString name="middot">
          -292 241 117 hstem
          66 117 vstem
          183 299 rmoveto
          33 -26 26 -32 -33 -26 -26 -33 -32 27 -26 32 32 26 26 32 vhcurveto
          endchar
        </CharString>
        <CharString name="minus">
          -44 189 69 hstem
          498 258 rmoveto
          -498 -69 498 hlineto
          endchar
        </CharString>
        <CharString name="minute">
          -323 474 61 callsubr
          93 650 -93 callsubr
          endchar
        </CharString>
        <CharString name="multiply">
          -42 146 -21 367 -20 hstem
          290 309 rmoveto
          150 145 -39 38 -151 -145 -150 145 -40 -38 150 -145 -150 -145 40 -39 150 145 151 -145 39 39 rlineto
          endchar
        </CharString>
        <CharString name="n">
          -64 93 callgsubr
          100 callsubr
          424 hmoveto
          -70 callsubr
          101 hlineto
          endchar
        </CharString>
        <CharString name="nacute">
          -64 93 callgsubr
          261 -20 100 callsubr
          246 656 -93 callsubr
          91 -626 rmoveto
          -70 callsubr
          endchar
        </CharString>
        <CharString name="napostrophe">
          -98 93 callgsubr
          268 -20 hstem
          46 97 167 100 vstem
          412 hmoveto
          -70 callsubr
          -200 663 -93 callsubr
          endchar
        </CharString>
        <CharString name="ncaron">
          -64 93 callgsubr
          255 -20 100 callsubr
          369 647 -79 callgsubr
          -4 -589 rmoveto
          -70 callsubr
          endchar
        </CharString>
        <CharString name="ncommaaccent">
          -64 -274 -21 316 -21 304 91 hstemhm
          58 97 34 106 27 100 vstemhm
          295 -107 114 callsubr
          hintmask 11111100
          -50 callgsubr
          129 168 rmoveto
          -70 callsubr
          endchar
        </CharString>
        <CharString name="nine">
          -7 -2 -21 559 105 hstem
          362 133 vstem
          495 419 rmoveto
          1 67 -19 53 -39 39 -43 45 -63 21 -83 -3 -66 -2 -52 -21 -38 -39 -34 -35 -17 -42 -1 -50 rrcurveto
          -50 13 -42 26 -35 vhcurveto
          30 -40 41 -21 53 -2 40 -1 30 3 21 7 34 106 rcurveline
          -17 -13 -23 -6 -29 3 -27 2 -22 9 -17 15 -19 18 -9 23 3 28 rrcurveto
          53 5 29 27 55 hhcurveto
          9 9 -1 -2 9 hvcurveto
          51 -11 26 -41 -71 vvcurveto
          -17 -2 -17 -4 -18 vhcurveto
          -14 -70 -41 -68 -69 -67 -25 -24 -31 -23 -38 -23 -15 -10 -17 -9 -17 -9 72 -78 rcurveline
          31 11 34 18 38 25 50 33 42 38 35 43 rrcurveto
          69 85 35 92 97 vvcurveto
          endchar
        </CharString>
        <CharString name="nineinferior">
          -167 11 -21 161 213 -59 59 hstemhm
          251 75 hintmask 11010000
          326 239 -11 callgsubr
        </CharString>
        <CharString name="ninesuperior">
          -154 279 -21 161 213 -59 59 hstemhm
          247 75 hintmask 11010000
          322 507 -11 callgsubr
        </CharString>
        <CharString name="notequal">
          -67 -42 -21 155 50 84 49 157 -20 hstem
          462 142 rmoveto
          -209 hlineto
          47 84 rlineto
          162 49 -136 hlineto
          74 134 -40 23 -87 -157 rlineto
          -235 -49 209 hlineto
          -47 -84 rlineto
          -162 -50 135 hlineto
          -73 -132 40 -23 87 155 rlineto
          235 hlineto
          endchar
        </CharString>
        <CharString name="nsuperior">
          -234 210 -21 213 63 hstem
          32 68 117 70 vstem
          288 202 rmoveto
          -1 11 0 14 16 vvcurveto
          83 vlineto
          93 -35 46 -69 -40 -28 -13 -25 -16 vhcurveto
          1 11 1 11 1 12 rrcurveto
          -73 hlineto
          1 -13 1 59 callsubr
          -110 -1 -79 -2 -49 vhcurveto
          71 hlineto
          1 159 rlineto
          36 9 21 18 33 hhcurveto
          23 16 -10 -20 7 hvcurveto
          4 -11 2 -21 1 -31 1 -120 rcurveline
          70 hlineto
          endchar
        </CharString>
        <CharString name="ntilde">
          -64 93 callgsubr
          66 94 100 callsubr
          428 557 rmoveto
          -25 15 -24 14 -25 13 rrcurveto
          -29 -1 -10 -15 -18 hhcurveto
          -23 -31 8 16 -39 hvcurveto
          -39 17 -31 55 callgsubr
          -18 -9 -17 -17 -21 -21 -12 -29 -3 -36 66 -23 rcurveline
          11 30 15 15 19 -1 rrcurveto
          17 26 -8 -17 35 hvcurveto
          -16 35 35 -8 35 hhcurveto
          46 29 32 64 12 hvcurveto
          -4 -557 rmoveto
          -70 callsubr
          endchar
        </CharString>
        <CharString name="nu">
          -75 16 -21 hstem
          325 103 vstem
          428 324 rmoveto
          -2 40 -19 24 -37 8 -15 1 -16 -3 -18 -7 -18 -6 -8 -6 1 -6 5 -7 6 -7 5 -7 rrcurveto
          9 -12 4 -15 -17 vvcurveto
          -29 -12 -37 -23 -43 vhcurveto
          -18 -33 -20 -29 -22 -26 -21 168 -18 90 -13 13 rrcurveto
          10 -10 -16 5 -22 hhcurveto
          -33 -26 -6 -11 -21 hvcurveto
          9 -81 17 9 13 4 8 -3 rlinecurve
          5 -2 10 -52 13 -103 rrcurveto
          -102 13 6 -51 -2 hhcurveto
          102 hlineto
          127 132 61 110 -4 87 rrcurveto
          endchar
        </CharString>
        <CharString name="numbersign">
          214 -1 250 -84 84 130 84 169 -20 hstemhm
          hintmask 10110000
          321 379 rmoveto
          128 hlineto
          -11 -48 -6 -37 -10 -45 rrcurveto
          -128 hlineto
          214 hmoveto
          10 49 7 37 10 44 rrcurveto
          178 hlineto
          19 84 rlineto
          -179 107 callsubr
          -129 107 callsubr
          -156 hlineto
          -19 -84 rlineto
          156 hlineto
          -11 -48 -6 -37 -10 -45 rrcurveto
          -156 hlineto
          hintmask 01110000
          -17 -84 rlineto
          155 hlineto
          hintmask 10110000
          -36 -166 rlineto
          86 hlineto
          hintmask 01110000
          10 50 14 64 12 52 rrcurveto
          128 hlineto
          hintmask 10110000
          -36 -166 rlineto
          86 hlineto
          10 50 14 64 12 52 rrcurveto
          179 hlineto
          17 84 rlineto
          endchar
        </CharString>
        <CharString name="o">
          -60 -9 52 callsubr
          15 callgsubr
          444 193 rmoveto
          60 -18 48 -37 37 vhcurveto
          37 -37 -48 18 -61 hhcurveto
          -29 callgsubr
          11 callsubr
        </CharString>
        <CharString name="oacute">
          -60 -9 52 callsubr
          263 -20 15 callgsubr
          263 656 -93 callsubr
          94 -433 rmoveto
          60 -18 48 -37 37 vhcurveto
          37 -37 -48 18 -61 hhcurveto
          -29 callgsubr
          11 callsubr
        </CharString>
        <CharString name="obreve">
          -99 -9 52 callsubr
          74 56 85 -20 hstem
          22 58 callgsubr
          vstem
          427 193 rmoveto
          60 -18 48 -37 37 vhcurveto
          37 -37 -48 18 -61 hhcurveto
          -29 callgsubr
          -30 callsubr
          -92 callsubr
          -98 5 -49 callgsubr
          11 409 -98 callgsubr
          endchar
        </CharString>
        <CharString name="ocircumflex">
          -60 -9 52 callsubr
          252 -20 15 callgsubr
          422 521 -100 callgsubr
          81 -270 rmoveto
          60 -18 48 -37 37 vhcurveto
          37 -37 -48 18 -61 hhcurveto
          -29 callgsubr
          11 callsubr
        </CharString>
        <CharString name="odieresis">
          -60 -9 52 callsubr
          70 79 callgsubr
          39 94 -38 107 88 103 -47 98 hintmask 11100110
          393 31 callgsubr
          hintmask 11010101
          -66 callgsubr
          242 -325 rmoveto
          60 -18 48 -37 37 vhcurveto
          37 -37 -48 18 -61 hhcurveto
          -29 callgsubr
          hintmask 11101001
          11 callsubr
        </CharString>
</ttFont>
